%TF.GenerationSoftware,KiCad,Pcbnew,9.0.0*%
%TF.CreationDate,2025-06-05T20:14:27-05:00*%
%TF.ProjectId,flight-computer-one,666c6967-6874-42d6-936f-6d7075746572,rev?*%
%TF.SameCoordinates,Original*%
%TF.FileFunction,Copper,L4,Bot*%
%TF.FilePolarity,Positive*%
%FSLAX46Y46*%
G04 Gerber Fmt 4.6, Leading zero omitted, Abs format (unit mm)*
G04 Created by KiCad (PCBNEW 9.0.0) date 2025-06-05 20:14:27*
%MOMM*%
%LPD*%
G01*
G04 APERTURE LIST*
G04 Aperture macros list*
%AMRoundRect*
0 Rectangle with rounded corners*
0 $1 Rounding radius*
0 $2 $3 $4 $5 $6 $7 $8 $9 X,Y pos of 4 corners*
0 Add a 4 corners polygon primitive as box body*
4,1,4,$2,$3,$4,$5,$6,$7,$8,$9,$2,$3,0*
0 Add four circle primitives for the rounded corners*
1,1,$1+$1,$2,$3*
1,1,$1+$1,$4,$5*
1,1,$1+$1,$6,$7*
1,1,$1+$1,$8,$9*
0 Add four rect primitives between the rounded corners*
20,1,$1+$1,$2,$3,$4,$5,0*
20,1,$1+$1,$4,$5,$6,$7,0*
20,1,$1+$1,$6,$7,$8,$9,0*
20,1,$1+$1,$8,$9,$2,$3,0*%
G04 Aperture macros list end*
%TA.AperFunction,ComponentPad*%
%ADD10C,0.400000*%
%TD*%
%TA.AperFunction,SMDPad,CuDef*%
%ADD11R,2.200000X2.200000*%
%TD*%
%TA.AperFunction,ComponentPad*%
%ADD12RoundRect,0.250000X1.050000X-1.050000X1.050000X1.050000X-1.050000X1.050000X-1.050000X-1.050000X0*%
%TD*%
%TA.AperFunction,ComponentPad*%
%ADD13C,2.600000*%
%TD*%
%TA.AperFunction,ComponentPad*%
%ADD14RoundRect,0.250000X-1.050000X1.050000X-1.050000X-1.050000X1.050000X-1.050000X1.050000X1.050000X0*%
%TD*%
%TA.AperFunction,ViaPad*%
%ADD15C,0.700000*%
%TD*%
%TA.AperFunction,ViaPad*%
%ADD16C,0.600000*%
%TD*%
%TA.AperFunction,Conductor*%
%ADD17C,0.250000*%
%TD*%
%TA.AperFunction,Conductor*%
%ADD18C,0.300000*%
%TD*%
%TA.AperFunction,Conductor*%
%ADD19C,0.090000*%
%TD*%
%TA.AperFunction,Conductor*%
%ADD20C,0.100000*%
%TD*%
G04 APERTURE END LIST*
D10*
%TO.P,U3,1,OUT*%
%TO.N,PWROR*%
X158575000Y-102775000D03*
%TO.P,U3,2,IN2*%
%TO.N,VBUS*%
X158575000Y-102075000D03*
%TO.P,U3,7,IN1*%
%TO.N,+BATT*%
X157775000Y-102075000D03*
%TO.P,U3,8,OUT*%
%TO.N,PWROR*%
X157775000Y-102775000D03*
%TD*%
D11*
%TO.P,BZ1,1,+*%
%TO.N,+3V3*%
X152800000Y-89400000D03*
%TO.P,BZ1,2,-*%
%TO.N,Net-(BZ1--)*%
X139600000Y-89400000D03*
%TD*%
D12*
%TO.P,J2,1,Pin_1*%
%TO.N,/GPIO40_ADC0*%
X140500000Y-135800000D03*
D13*
%TO.P,J2,2,Pin_2*%
%TO.N,GND*%
X140500000Y-130800000D03*
%TO.P,J2,3,Pin_3*%
%TO.N,/CANL*%
X140500000Y-125800000D03*
%TO.P,J2,4,Pin_4*%
%TO.N,/CANH*%
X140500000Y-120800000D03*
%TO.P,J2,5,Pin_5*%
%TO.N,/PYRO2_DRAIN*%
X140500000Y-115800000D03*
%TO.P,J2,6,Pin_6*%
%TO.N,+PBP*%
X140500000Y-110800000D03*
%TO.P,J2,7,Pin_7*%
%TO.N,/PYRO1_DRAIN*%
X140500000Y-105800000D03*
%TO.P,J2,8,Pin_8*%
%TO.N,+PBP*%
X140500000Y-100800000D03*
%TD*%
D14*
%TO.P,J1,1,Pin_1*%
%TO.N,+BATT*%
X152000000Y-100800000D03*
D13*
%TO.P,J1,2,Pin_2*%
%TO.N,GND*%
X152000000Y-105800000D03*
%TO.P,J1,3,Pin_3*%
%TO.N,+PBP*%
X152000000Y-110800000D03*
%TO.P,J1,4,Pin_4*%
%TO.N,GND*%
X152000000Y-115800000D03*
%TO.P,J1,5,Pin_5*%
%TO.N,/SERVO1_CTL*%
X152000000Y-120800000D03*
%TO.P,J1,6,Pin_6*%
%TO.N,/SERVO2_CTL*%
X152000000Y-125800000D03*
%TO.P,J1,7,Pin_7*%
%TO.N,/SERVO3_CTL*%
X152000000Y-130800000D03*
%TO.P,J1,8,Pin_8*%
%TO.N,/SERVO4_CTL*%
X152000000Y-135800000D03*
%TD*%
D15*
%TO.N,GND*%
X137720000Y-66810000D03*
X149330000Y-46970000D03*
X168960000Y-73550000D03*
D16*
X157100000Y-96000000D03*
D15*
X161840000Y-129170000D03*
X158800000Y-40640000D03*
D16*
X142050000Y-82350000D03*
X156800000Y-101200000D03*
D15*
X143460000Y-41740000D03*
D16*
X157900000Y-116150000D03*
D15*
X169020000Y-77130000D03*
D16*
X159400000Y-116200000D03*
D15*
X167910000Y-73550000D03*
X130630000Y-130870000D03*
D16*
X165800000Y-109050000D03*
D15*
X152580000Y-40490000D03*
X133380000Y-91950000D03*
X164280000Y-87130000D03*
D16*
X133340000Y-105360000D03*
D15*
X155230000Y-53470000D03*
X130540000Y-40710000D03*
D16*
X153750000Y-84750000D03*
D15*
X155110000Y-72350000D03*
D16*
X141850000Y-72550000D03*
D15*
X122310000Y-115900000D03*
D16*
X144200000Y-76800000D03*
X131827800Y-87690000D03*
X141600000Y-88900000D03*
X135867500Y-85482500D03*
X127577800Y-86640000D03*
D15*
X141240000Y-56320000D03*
X168290000Y-82000000D03*
X150690000Y-46980000D03*
D16*
X136050000Y-111000000D03*
X159400000Y-115550000D03*
D15*
X127040000Y-94590000D03*
X148690000Y-55090000D03*
D16*
X127880000Y-83180000D03*
D15*
X123180000Y-122210000D03*
X134630000Y-40890000D03*
D16*
X129377800Y-88740000D03*
X159500000Y-103575000D03*
D15*
X160280000Y-135920000D03*
X123740000Y-67010000D03*
X155660000Y-80350000D03*
D16*
X161550000Y-69850000D03*
D15*
X135680000Y-47780000D03*
D16*
X133050000Y-101050000D03*
X128677800Y-85640000D03*
X158440000Y-75760000D03*
D15*
X149250000Y-41780000D03*
D16*
X131950000Y-111900000D03*
D15*
X165020000Y-77040000D03*
D16*
X157900000Y-115550000D03*
X163150000Y-119700000D03*
X132130000Y-55740000D03*
D15*
X126340000Y-91730000D03*
D16*
X160100000Y-106400000D03*
D15*
X142330000Y-41760000D03*
X167790000Y-66740000D03*
X141290000Y-57650000D03*
X137460000Y-92100000D03*
D16*
X153150000Y-72240000D03*
D15*
X146110000Y-40600000D03*
D16*
X161870000Y-75510000D03*
X128520000Y-69600000D03*
D15*
X164080000Y-92590000D03*
X143350000Y-46840000D03*
D16*
X158650000Y-115550000D03*
X125070000Y-56120000D03*
D15*
X123620000Y-70920000D03*
D16*
X168350000Y-98050000D03*
X136050000Y-101050000D03*
D15*
X156360000Y-45480000D03*
X135700000Y-50920000D03*
D16*
X132125000Y-102000000D03*
D15*
X167540000Y-58640000D03*
X168800000Y-66810000D03*
D16*
X148700000Y-85600000D03*
X133140000Y-115310000D03*
D15*
X122510000Y-126640000D03*
X147280000Y-64830000D03*
X137700000Y-94250000D03*
D16*
X146700000Y-69900000D03*
X131300000Y-114950000D03*
X135417500Y-89032500D03*
D15*
X126800000Y-79140000D03*
X167660000Y-63210000D03*
X161240000Y-132860000D03*
X145760000Y-64830000D03*
D16*
X150750000Y-77100000D03*
D15*
X168240000Y-121740000D03*
X154010000Y-69360000D03*
X158270000Y-67270000D03*
D16*
X145630000Y-49610000D03*
X128370000Y-120120000D03*
X148850000Y-70050000D03*
D15*
X155060000Y-57570000D03*
X164970000Y-63340000D03*
X150370000Y-41750000D03*
D16*
X135900000Y-75690000D03*
D15*
X130080000Y-94580000D03*
D16*
X165210000Y-106570000D03*
X134190000Y-68740000D03*
D15*
X163740000Y-63340000D03*
X162740000Y-45570000D03*
X142200000Y-46850000D03*
D16*
X127577800Y-85640000D03*
D15*
X166320000Y-125270000D03*
D16*
X156900000Y-103550000D03*
X154550000Y-59200000D03*
D15*
X167660000Y-76970000D03*
D16*
X140560000Y-79870000D03*
D15*
X131190000Y-135810000D03*
X160850000Y-49840000D03*
X154800000Y-95860000D03*
X139740000Y-40910000D03*
X164240000Y-83610000D03*
X138080000Y-80440000D03*
D16*
X142850000Y-80750000D03*
D15*
X169340000Y-82030000D03*
D16*
X128710000Y-122930000D03*
D15*
X160860000Y-52040000D03*
D16*
X159400000Y-118250000D03*
D15*
X163880000Y-77040000D03*
D16*
X125530000Y-84260000D03*
D15*
X168760000Y-63190000D03*
D16*
X156020000Y-94900000D03*
D15*
X128900000Y-91700000D03*
X123760000Y-63710000D03*
X122760000Y-111110000D03*
D16*
X133050000Y-111000000D03*
X156500000Y-74800000D03*
D15*
X133080000Y-94430000D03*
D16*
%TO.N,VBUS*%
X158950000Y-77550000D03*
%TO.N,+3V3*%
X152300000Y-76150000D03*
X168100000Y-109200000D03*
X151350000Y-68350000D03*
X156500000Y-119450000D03*
X166750000Y-98600000D03*
X126227800Y-84690000D03*
X158500000Y-120850000D03*
X132000000Y-79550000D03*
X132700000Y-45650000D03*
X133410000Y-85780000D03*
X144500000Y-79200000D03*
X156850000Y-120000000D03*
X148480000Y-87030000D03*
X164150000Y-113200000D03*
X139480000Y-72690000D03*
X142900000Y-85950000D03*
X144900000Y-67250000D03*
X128620000Y-123690000D03*
X133700000Y-47600000D03*
X132880000Y-88120000D03*
X156850000Y-118900000D03*
X167100000Y-50900000D03*
X155550000Y-118900000D03*
X156200000Y-118900000D03*
X141990000Y-87680000D03*
X142110000Y-86460000D03*
X128070000Y-73250000D03*
X141350000Y-55050000D03*
X154800000Y-90550000D03*
X156150000Y-120000000D03*
X162540000Y-103660000D03*
X125650000Y-88320000D03*
X155450000Y-120000000D03*
X155850000Y-119450000D03*
X127042500Y-80750000D03*
X133600000Y-79550000D03*
X131577800Y-86140000D03*
X169250000Y-103630000D03*
X154550000Y-60800000D03*
X151150000Y-89400000D03*
X143900000Y-63300000D03*
X133070000Y-71150000D03*
%TO.N,/Compute/SWO*%
X143290000Y-67760000D03*
X145100000Y-58900000D03*
D15*
%TO.N,/Compute/I2C0_SDA*%
X131440000Y-83100000D03*
D16*
X132770000Y-79030000D03*
D15*
%TO.N,/Compute/I2C0_SCL*%
X131960000Y-84240000D03*
D16*
X130730000Y-84630000D03*
%TO.N,/Compute/TXCAN*%
X148770000Y-73070000D03*
X149730000Y-81140000D03*
%TO.N,/Compute/RXCAN*%
X150520000Y-81150000D03*
X151050000Y-71920000D03*
%TO.N,/Compute/SD_CS*%
X154880000Y-86550000D03*
X154490000Y-75700000D03*
D15*
%TO.N,/Compute/SPI0_SCK*%
X129710000Y-63740000D03*
D16*
X129120000Y-67645000D03*
%TO.N,/Compute/CS_RADIO*%
X143640000Y-69900000D03*
X135610000Y-67080000D03*
D15*
%TO.N,/Compute/PYRO1_ARM*%
X137550000Y-100780000D03*
D16*
X138990000Y-71979142D03*
%TO.N,/Compute/PYRO1_FIRE*%
X139850000Y-71550000D03*
D15*
X134560000Y-100660000D03*
%TO.N,/Compute/PYRO2_ARM*%
X137540000Y-110600000D03*
D16*
X139850000Y-70550000D03*
D15*
%TO.N,/Compute/PYRO2_FIRE*%
X134320000Y-110440000D03*
X139080000Y-70060000D03*
D16*
%TO.N,/Compute/PYRO1_PRESENT*%
X139070000Y-71040554D03*
D15*
X131460000Y-105830000D03*
D16*
%TO.N,/Compute/PYRO2_PRESENT*%
X139850000Y-69550000D03*
D15*
X130870000Y-116590000D03*
%TO.N,Net-(BZ1--)*%
X139730000Y-91430000D03*
D16*
%TO.N,/Compute/TCAN_STB*%
X131750000Y-97750000D03*
X139870000Y-76820000D03*
%TO.N,/Compute/CS_ICM*%
X142780000Y-69950000D03*
X130210000Y-68140000D03*
%TO.N,/Compute/I2C1_SCL*%
X149100000Y-82740000D03*
X148200000Y-76570000D03*
X156710000Y-98540000D03*
D15*
X157660000Y-58200000D03*
D16*
%TO.N,/Compute/I2C1_SDA*%
X156740000Y-99750000D03*
D15*
X157780000Y-56500000D03*
D16*
X148440000Y-82940000D03*
X147420000Y-76820000D03*
%TO.N,+PBP*%
X157186682Y-113576153D03*
X162300000Y-115000000D03*
%TO.N,/Power & USB/TPS_SW*%
X156350000Y-113900000D03*
X159850000Y-117100000D03*
%TO.N,/GPIO40_ADC0*%
X142700000Y-78750000D03*
D15*
%TO.N,/SERVO2_CTL*%
X146750000Y-78840000D03*
%TO.N,/SERVO4_CTL*%
X145495000Y-78869160D03*
%TO.N,/SERVO1_CTL*%
X147570000Y-79190000D03*
%TO.N,/SERVO3_CTL*%
X146120000Y-79420000D03*
%TD*%
D17*
%TO.N,VBUS*%
X158950000Y-83550000D02*
X157950000Y-84550000D01*
X158575000Y-100725000D02*
X158575000Y-102075000D01*
X157950000Y-84550000D02*
X157950000Y-100100000D01*
X157950000Y-100100000D02*
X158575000Y-100725000D01*
X158950000Y-77550000D02*
X158950000Y-79150000D01*
X158950000Y-79150000D02*
X158950000Y-83550000D01*
D18*
%TO.N,+3V3*%
X152800000Y-89400000D02*
X151150000Y-89400000D01*
D19*
%TO.N,/Compute/SWO*%
X145100000Y-65950000D02*
X145100000Y-65830000D01*
D20*
X143290000Y-67760000D02*
X143490000Y-67760000D01*
X145100000Y-65830000D02*
X145100000Y-58900000D01*
D19*
X143290000Y-67760000D02*
X145100000Y-65950000D01*
D20*
%TO.N,/Compute/I2C0_SDA*%
X132770000Y-79030000D02*
X132770000Y-81770000D01*
X132770000Y-81770000D02*
X131440000Y-83100000D01*
%TO.N,/Compute/I2C0_SCL*%
X130730000Y-84630000D02*
X131570000Y-84630000D01*
X131570000Y-84630000D02*
X131960000Y-84240000D01*
%TO.N,/Compute/TXCAN*%
X148770000Y-73070000D02*
X148770000Y-80180000D01*
X148770000Y-80180000D02*
X149730000Y-81140000D01*
%TO.N,/Compute/RXCAN*%
X151201000Y-78961189D02*
X150520000Y-79642189D01*
X151201000Y-72071000D02*
X151201000Y-78961189D01*
X150520000Y-79642189D02*
X150520000Y-81150000D01*
X151050000Y-71920000D02*
X151201000Y-72071000D01*
%TO.N,/Compute/SD_CS*%
X154490000Y-86160000D02*
X154615000Y-86285000D01*
X154490000Y-75700000D02*
X154490000Y-86160000D01*
X154615000Y-86285000D02*
X154880000Y-86550000D01*
D19*
%TO.N,/Compute/SPI0_SCK*%
X129120000Y-67645000D02*
X129120000Y-64330000D01*
X129120000Y-64330000D02*
X129710000Y-63740000D01*
D20*
%TO.N,/Compute/CS_RADIO*%
X141090000Y-67350000D02*
X143640000Y-69900000D01*
X135880000Y-67350000D02*
X141090000Y-67350000D01*
X135610000Y-67080000D02*
X135880000Y-67350000D01*
%TO.N,/Compute/PYRO1_ARM*%
X126000000Y-77000000D02*
X124500000Y-78500000D01*
X128000000Y-98250000D02*
X134500000Y-98250000D01*
X132500000Y-77000000D02*
X126000000Y-77000000D01*
X137520858Y-71979142D02*
X132500000Y-77000000D01*
X134500000Y-98250000D02*
X135020000Y-98250000D01*
X138990000Y-71979142D02*
X137520858Y-71979142D01*
X135020000Y-98250000D02*
X137550000Y-100780000D01*
X124500000Y-94750000D02*
X128000000Y-98250000D01*
X124500000Y-78500000D02*
X124500000Y-94750000D01*
%TO.N,/Compute/PYRO1_FIRE*%
X125750000Y-76500000D02*
X124000000Y-78250000D01*
X139850000Y-71550000D02*
X139828142Y-71528142D01*
X137221858Y-71528142D02*
X132250000Y-76500000D01*
X127750000Y-98750000D02*
X132500000Y-98750000D01*
X132650000Y-98750000D02*
X134560000Y-100660000D01*
X139828142Y-71528142D02*
X137221858Y-71528142D01*
X132500000Y-98750000D02*
X132650000Y-98750000D01*
X124000000Y-95000000D02*
X127750000Y-98750000D01*
X124000000Y-78250000D02*
X124000000Y-95000000D01*
X132250000Y-76500000D02*
X125750000Y-76500000D01*
%TO.N,/Compute/PYRO2_ARM*%
X125250000Y-75500000D02*
X123000000Y-77750000D01*
X131750000Y-75500000D02*
X125250000Y-75500000D01*
X136750000Y-109810000D02*
X137540000Y-110600000D01*
X136700000Y-70550000D02*
X131750000Y-75500000D01*
X132740000Y-109810000D02*
X136750000Y-109810000D01*
X123000000Y-77750000D02*
X123000000Y-98520000D01*
X123000000Y-100070000D02*
X132740000Y-109810000D01*
X139850000Y-70550000D02*
X136700000Y-70550000D01*
X123000000Y-98520000D02*
X123000000Y-100070000D01*
%TO.N,/Compute/PYRO2_FIRE*%
X125000000Y-75000000D02*
X122500000Y-77500000D01*
X131080000Y-110050000D02*
X131470000Y-110440000D01*
X122500000Y-101087811D02*
X122500000Y-101470000D01*
X131470000Y-110440000D02*
X134320000Y-110440000D01*
X122500000Y-101470000D02*
X131080000Y-110050000D01*
X122500000Y-77500000D02*
X122500000Y-101087811D01*
X131500000Y-75000000D02*
X125000000Y-75000000D01*
X139080000Y-70060000D02*
X136440000Y-70060000D01*
X136440000Y-70060000D02*
X131500000Y-75000000D01*
%TO.N,/Compute/PYRO1_PRESENT*%
X139070000Y-71040554D02*
X136959446Y-71040554D01*
X125500000Y-76000000D02*
X123500000Y-78000000D01*
X131460000Y-105610000D02*
X131460000Y-105830000D01*
X136959446Y-71040554D02*
X132000000Y-76000000D01*
X132000000Y-76000000D02*
X125500000Y-76000000D01*
X123500000Y-97650000D02*
X131460000Y-105610000D01*
X123500000Y-78000000D02*
X123500000Y-97650000D01*
%TO.N,/Compute/PYRO2_PRESENT*%
X136200000Y-69550000D02*
X131250000Y-74500000D01*
X122000000Y-77250000D02*
X122000000Y-106330000D01*
X139850000Y-69550000D02*
X136200000Y-69550000D01*
X131250000Y-74500000D02*
X124750000Y-74500000D01*
X122000000Y-107720000D02*
X130870000Y-116590000D01*
X124750000Y-74500000D02*
X122000000Y-77250000D01*
X122000000Y-106330000D02*
X122000000Y-107720000D01*
D18*
%TO.N,Net-(BZ1--)*%
X139730000Y-89530000D02*
X139600000Y-89400000D01*
X139730000Y-91430000D02*
X139730000Y-89530000D01*
D20*
%TO.N,/Compute/TCAN_STB*%
X139190000Y-77500000D02*
X131500000Y-77500000D01*
X125000000Y-80250000D02*
X125000000Y-94500000D01*
X126250000Y-77500000D02*
X125500000Y-78250000D01*
X125000000Y-94500000D02*
X127750000Y-97250000D01*
X128250000Y-97750000D02*
X131750000Y-97750000D01*
X139870000Y-76820000D02*
X139190000Y-77500000D01*
X131500000Y-77500000D02*
X126250000Y-77500000D01*
X125000000Y-78750000D02*
X125000000Y-80250000D01*
X127750000Y-97250000D02*
X128250000Y-97750000D01*
X125500000Y-78250000D02*
X125000000Y-78750000D01*
%TO.N,/Compute/CS_ICM*%
X130210000Y-68140000D02*
X140970000Y-68140000D01*
D19*
X141155000Y-68325000D02*
X141120000Y-68290000D01*
X141155000Y-68325000D02*
X142780000Y-69950000D01*
D20*
X140970000Y-68140000D02*
X141155000Y-68325000D01*
%TO.N,/Compute/I2C1_SCL*%
X150500000Y-90200000D02*
X150500000Y-90830000D01*
X151990000Y-95820000D02*
X151990000Y-95927811D01*
X151830000Y-92160000D02*
X151990000Y-92320000D01*
X149100000Y-82740000D02*
X150500000Y-84140000D01*
X148200000Y-70060000D02*
X157660000Y-60600000D01*
X154602189Y-98540000D02*
X156710000Y-98540000D01*
X157660000Y-60600000D02*
X157660000Y-58200000D01*
X150500000Y-84140000D02*
X150500000Y-90200000D01*
X148200000Y-76570000D02*
X148200000Y-70060000D01*
X150500000Y-90830000D02*
X151830000Y-92160000D01*
X151990000Y-92320000D02*
X151990000Y-95820000D01*
X151990000Y-95927811D02*
X154602189Y-98540000D01*
%TO.N,/Compute/I2C1_SDA*%
X154070000Y-99750000D02*
X156740000Y-99750000D01*
X156780000Y-58000000D02*
X156780000Y-57500000D01*
X151120000Y-96840000D02*
X151160000Y-96840000D01*
X156780000Y-57500000D02*
X157780000Y-56500000D01*
X147420000Y-76820000D02*
X147420000Y-69860000D01*
X148440000Y-82940000D02*
X149151000Y-83651000D01*
X151160000Y-96840000D02*
X153160000Y-98840000D01*
X153160000Y-98840000D02*
X154070000Y-99750000D01*
X149151000Y-91563189D02*
X151120000Y-93532189D01*
X151120000Y-93532189D02*
X151120000Y-96840000D01*
X156780000Y-60500000D02*
X156780000Y-58000000D01*
X147420000Y-69860000D02*
X156780000Y-60500000D01*
X149151000Y-83651000D02*
X149151000Y-91563189D01*
D17*
%TO.N,+PBP*%
X157186682Y-113576153D02*
X157210529Y-113600000D01*
X157210529Y-113600000D02*
X160900000Y-113600000D01*
X160900000Y-113600000D02*
X162300000Y-115000000D01*
%TO.N,/Power & USB/TPS_SW*%
X156350000Y-115550000D02*
X157900000Y-117100000D01*
X156350000Y-115550000D02*
X156350000Y-113900000D01*
X157900000Y-117100000D02*
X159850000Y-117100000D01*
%TO.N,/GPIO40_ADC0*%
X140500000Y-135800000D02*
X144860882Y-131439118D01*
X144860882Y-81610882D02*
X142700000Y-79450000D01*
X142700000Y-79450000D02*
X142700000Y-78750000D01*
X144860882Y-131439118D02*
X144860882Y-81610882D01*
%TO.N,/SERVO2_CTL*%
X146850000Y-120650000D02*
X146850000Y-79900000D01*
X146850000Y-78940000D02*
X146750000Y-78840000D01*
X152000000Y-125800000D02*
X146850000Y-120650000D01*
X146850000Y-79900000D02*
X146850000Y-78940000D01*
%TO.N,/SERVO4_CTL*%
X145500000Y-78874160D02*
X145495000Y-78869160D01*
X152000000Y-135800000D02*
X145500000Y-129300000D01*
X145500000Y-129300000D02*
X145500000Y-78874160D01*
%TO.N,/SERVO1_CTL*%
X147500000Y-79260000D02*
X147570000Y-79190000D01*
X152000000Y-120800000D02*
X147500000Y-116300000D01*
X147500000Y-79860000D02*
X147500000Y-79260000D01*
X147500000Y-116300000D02*
X147500000Y-79860000D01*
%TO.N,/SERVO3_CTL*%
X146200000Y-79500000D02*
X146120000Y-79420000D01*
X146200000Y-125000000D02*
X152000000Y-130800000D01*
X146200000Y-79900000D02*
X146200000Y-79500000D01*
X146200000Y-79900000D02*
X146200000Y-125000000D01*
%TD*%
%TA.AperFunction,Conductor*%
%TO.N,GND*%
G36*
X148273692Y-83723102D02*
G01*
X148285708Y-83725492D01*
X148361158Y-83740500D01*
X148411725Y-83740500D01*
X148412801Y-83740519D01*
X148445176Y-83750649D01*
X148477652Y-83760185D01*
X148478920Y-83761207D01*
X148479482Y-83761383D01*
X148480191Y-83762231D01*
X148498294Y-83776819D01*
X148564181Y-83842706D01*
X148597666Y-83904029D01*
X148600500Y-83930387D01*
X148600500Y-86105500D01*
X148580815Y-86172539D01*
X148528011Y-86218294D01*
X148476500Y-86229500D01*
X148401153Y-86229500D01*
X148273691Y-86254854D01*
X148204100Y-86248627D01*
X148148922Y-86205764D01*
X148125678Y-86139874D01*
X148125500Y-86133237D01*
X148125500Y-83844719D01*
X148145185Y-83777680D01*
X148197989Y-83731925D01*
X148267147Y-83721981D01*
X148273692Y-83723102D01*
G37*
%TD.AperFunction*%
%TA.AperFunction,Conductor*%
G36*
X170942539Y-39420185D02*
G01*
X170988294Y-39472989D01*
X170999500Y-39524500D01*
X170999500Y-138875500D01*
X170979815Y-138942539D01*
X170927011Y-138988294D01*
X170875500Y-138999500D01*
X121524500Y-138999500D01*
X121457461Y-138979815D01*
X121411706Y-138927011D01*
X121400500Y-138875500D01*
X121400500Y-135081995D01*
X123399500Y-135081995D01*
X123399500Y-135318004D01*
X123399501Y-135318020D01*
X123430306Y-135552010D01*
X123491394Y-135779993D01*
X123581714Y-135998045D01*
X123581719Y-135998056D01*
X123652677Y-136120957D01*
X123699727Y-136202450D01*
X123699729Y-136202453D01*
X123699730Y-136202454D01*
X123843406Y-136389697D01*
X123843412Y-136389704D01*
X124010295Y-136556587D01*
X124010301Y-136556592D01*
X124197550Y-136700273D01*
X124328918Y-136776118D01*
X124401943Y-136818280D01*
X124401948Y-136818282D01*
X124401951Y-136818284D01*
X124620007Y-136908606D01*
X124847986Y-136969693D01*
X125081989Y-137000500D01*
X125081996Y-137000500D01*
X125318004Y-137000500D01*
X125318011Y-137000500D01*
X125552014Y-136969693D01*
X125779993Y-136908606D01*
X125998049Y-136818284D01*
X126202450Y-136700273D01*
X126389699Y-136556592D01*
X126556592Y-136389699D01*
X126700273Y-136202450D01*
X126818284Y-135998049D01*
X126908606Y-135779993D01*
X126969693Y-135552014D01*
X127000500Y-135318011D01*
X127000500Y-135081989D01*
X126969693Y-134847986D01*
X126930036Y-134699983D01*
X138699500Y-134699983D01*
X138699500Y-136900001D01*
X138699501Y-136900018D01*
X138710000Y-137002796D01*
X138710001Y-137002799D01*
X138760962Y-137156587D01*
X138765186Y-137169334D01*
X138857288Y-137318656D01*
X138981344Y-137442712D01*
X139130666Y-137534814D01*
X139297203Y-137589999D01*
X139399991Y-137600500D01*
X141600008Y-137600499D01*
X141702797Y-137589999D01*
X141869334Y-137534814D01*
X142018656Y-137442712D01*
X142142712Y-137318656D01*
X142234814Y-137169334D01*
X142289999Y-137002797D01*
X142300500Y-136900009D01*
X142300499Y-134935451D01*
X142320184Y-134868413D01*
X142336813Y-134847776D01*
X145346739Y-131837852D01*
X145415193Y-131735404D01*
X145462345Y-131621570D01*
X145486382Y-131500725D01*
X145486382Y-131377512D01*
X145486382Y-130470334D01*
X145506067Y-130403295D01*
X145558871Y-130357540D01*
X145628029Y-130347596D01*
X145691585Y-130376621D01*
X145698063Y-130382653D01*
X150304279Y-134988869D01*
X150337764Y-135050192D01*
X150332780Y-135119884D01*
X150331159Y-135124002D01*
X150291396Y-135219999D01*
X150230306Y-135447989D01*
X150199501Y-135681979D01*
X150199500Y-135681995D01*
X150199500Y-135918004D01*
X150199501Y-135918020D01*
X150230306Y-136152010D01*
X150291394Y-136379993D01*
X150381714Y-136598045D01*
X150381719Y-136598056D01*
X150440733Y-136700269D01*
X150499727Y-136802450D01*
X150499729Y-136802453D01*
X150499730Y-136802454D01*
X150643406Y-136989697D01*
X150643412Y-136989704D01*
X150810295Y-137156587D01*
X150810302Y-137156593D01*
X150826909Y-137169336D01*
X150997550Y-137300273D01*
X151128918Y-137376118D01*
X151201943Y-137418280D01*
X151201948Y-137418282D01*
X151201951Y-137418284D01*
X151420007Y-137508606D01*
X151647986Y-137569693D01*
X151881989Y-137600500D01*
X151881996Y-137600500D01*
X152118004Y-137600500D01*
X152118011Y-137600500D01*
X152352014Y-137569693D01*
X152579993Y-137508606D01*
X152798049Y-137418284D01*
X153002450Y-137300273D01*
X153189699Y-137156592D01*
X153356592Y-136989699D01*
X153500273Y-136802450D01*
X153618284Y-136598049D01*
X153708606Y-136379993D01*
X153769693Y-136152014D01*
X153800500Y-135918011D01*
X153800500Y-135681989D01*
X153769693Y-135447986D01*
X153708606Y-135220007D01*
X153651440Y-135081995D01*
X165399500Y-135081995D01*
X165399500Y-135318004D01*
X165399501Y-135318020D01*
X165430306Y-135552010D01*
X165491394Y-135779993D01*
X165581714Y-135998045D01*
X165581719Y-135998056D01*
X165652677Y-136120957D01*
X165699727Y-136202450D01*
X165699729Y-136202453D01*
X165699730Y-136202454D01*
X165843406Y-136389697D01*
X165843412Y-136389704D01*
X166010295Y-136556587D01*
X166010301Y-136556592D01*
X166197550Y-136700273D01*
X166328918Y-136776118D01*
X166401943Y-136818280D01*
X166401948Y-136818282D01*
X166401951Y-136818284D01*
X166620007Y-136908606D01*
X166847986Y-136969693D01*
X167081989Y-137000500D01*
X167081996Y-137000500D01*
X167318004Y-137000500D01*
X167318011Y-137000500D01*
X167552014Y-136969693D01*
X167779993Y-136908606D01*
X167998049Y-136818284D01*
X168202450Y-136700273D01*
X168389699Y-136556592D01*
X168556592Y-136389699D01*
X168700273Y-136202450D01*
X168818284Y-135998049D01*
X168908606Y-135779993D01*
X168969693Y-135552014D01*
X169000500Y-135318011D01*
X169000500Y-135081989D01*
X168969693Y-134847986D01*
X168908606Y-134620007D01*
X168818284Y-134401951D01*
X168818282Y-134401948D01*
X168818280Y-134401943D01*
X168776118Y-134328918D01*
X168700273Y-134197550D01*
X168618817Y-134091394D01*
X168556593Y-134010302D01*
X168556587Y-134010295D01*
X168389704Y-133843412D01*
X168389697Y-133843406D01*
X168202454Y-133699730D01*
X168202453Y-133699729D01*
X168202450Y-133699727D01*
X168120957Y-133652677D01*
X167998056Y-133581719D01*
X167998045Y-133581714D01*
X167779993Y-133491394D01*
X167552010Y-133430306D01*
X167318020Y-133399501D01*
X167318017Y-133399500D01*
X167318011Y-133399500D01*
X167081989Y-133399500D01*
X167081983Y-133399500D01*
X167081979Y-133399501D01*
X166847989Y-133430306D01*
X166620006Y-133491394D01*
X166401954Y-133581714D01*
X166401943Y-133581719D01*
X166197545Y-133699730D01*
X166010302Y-133843406D01*
X166010295Y-133843412D01*
X165843412Y-134010295D01*
X165843406Y-134010302D01*
X165699730Y-134197545D01*
X165581719Y-134401943D01*
X165581714Y-134401954D01*
X165491394Y-134620006D01*
X165430306Y-134847989D01*
X165399501Y-135081979D01*
X165399500Y-135081995D01*
X153651440Y-135081995D01*
X153637133Y-135047456D01*
X153618288Y-135001959D01*
X153618280Y-135001943D01*
X153550237Y-134884091D01*
X153500273Y-134797550D01*
X153356592Y-134610301D01*
X153356587Y-134610295D01*
X153189704Y-134443412D01*
X153189697Y-134443406D01*
X153002454Y-134299730D01*
X153002453Y-134299729D01*
X153002450Y-134299727D01*
X152920957Y-134252677D01*
X152798056Y-134181719D01*
X152798045Y-134181714D01*
X152579993Y-134091394D01*
X152352010Y-134030306D01*
X152118020Y-133999501D01*
X152118017Y-133999500D01*
X152118011Y-133999500D01*
X151881989Y-133999500D01*
X151881983Y-133999500D01*
X151881979Y-133999501D01*
X151647989Y-134030306D01*
X151419999Y-134091396D01*
X151324002Y-134131159D01*
X151254532Y-134138628D01*
X151192053Y-134107352D01*
X151188869Y-134104279D01*
X146161819Y-129077229D01*
X146128334Y-129015906D01*
X146125500Y-128989548D01*
X146125500Y-126109452D01*
X146145185Y-126042413D01*
X146197989Y-125996658D01*
X146267147Y-125986714D01*
X146330703Y-126015739D01*
X146337181Y-126021771D01*
X150304279Y-129988870D01*
X150337764Y-130050193D01*
X150332780Y-130119885D01*
X150331159Y-130124003D01*
X150291396Y-130219999D01*
X150230306Y-130447989D01*
X150199501Y-130681979D01*
X150199500Y-130681995D01*
X150199500Y-130918004D01*
X150199501Y-130918020D01*
X150230306Y-131152010D01*
X150291394Y-131379993D01*
X150381714Y-131598045D01*
X150381719Y-131598056D01*
X150452677Y-131720957D01*
X150499727Y-131802450D01*
X150499729Y-131802453D01*
X150499730Y-131802454D01*
X150643406Y-131989697D01*
X150643412Y-131989704D01*
X150810295Y-132156587D01*
X150810302Y-132156593D01*
X150920306Y-132241001D01*
X150997550Y-132300273D01*
X151128918Y-132376118D01*
X151201943Y-132418280D01*
X151201948Y-132418282D01*
X151201951Y-132418284D01*
X151420007Y-132508606D01*
X151647986Y-132569693D01*
X151881989Y-132600500D01*
X151881996Y-132600500D01*
X152118004Y-132600500D01*
X152118011Y-132600500D01*
X152352014Y-132569693D01*
X152579993Y-132508606D01*
X152798049Y-132418284D01*
X153002450Y-132300273D01*
X153189699Y-132156592D01*
X153356592Y-131989699D01*
X153500273Y-131802450D01*
X153618284Y-131598049D01*
X153708606Y-131379993D01*
X153769693Y-131152014D01*
X153800500Y-130918011D01*
X153800500Y-130681989D01*
X153769693Y-130447986D01*
X153708606Y-130220007D01*
X153618284Y-130001951D01*
X153618282Y-130001948D01*
X153618280Y-130001943D01*
X153576118Y-129928918D01*
X153500273Y-129797550D01*
X153356592Y-129610301D01*
X153356587Y-129610295D01*
X153189704Y-129443412D01*
X153189697Y-129443406D01*
X153002454Y-129299730D01*
X153002453Y-129299729D01*
X153002450Y-129299727D01*
X152920957Y-129252677D01*
X152798056Y-129181719D01*
X152798045Y-129181714D01*
X152579993Y-129091394D01*
X152352010Y-129030306D01*
X152118020Y-128999501D01*
X152118017Y-128999500D01*
X152118011Y-128999500D01*
X151881989Y-128999500D01*
X151881983Y-128999500D01*
X151881979Y-128999501D01*
X151647989Y-129030306D01*
X151419999Y-129091396D01*
X151324003Y-129131159D01*
X151254534Y-129138628D01*
X151192055Y-129107353D01*
X151188870Y-129104279D01*
X146861819Y-124777228D01*
X146828334Y-124715905D01*
X146825500Y-124689547D01*
X146825500Y-121809452D01*
X146845185Y-121742413D01*
X146897989Y-121696658D01*
X146967147Y-121686714D01*
X147030703Y-121715739D01*
X147037181Y-121721771D01*
X150304279Y-124988869D01*
X150337764Y-125050192D01*
X150332780Y-125119884D01*
X150331159Y-125124002D01*
X150291396Y-125219999D01*
X150230306Y-125447989D01*
X150199501Y-125681979D01*
X150199500Y-125681995D01*
X150199500Y-125918004D01*
X150199501Y-125918020D01*
X150230306Y-126152010D01*
X150291394Y-126379993D01*
X150381714Y-126598045D01*
X150381719Y-126598056D01*
X150452677Y-126720957D01*
X150499727Y-126802450D01*
X150499729Y-126802453D01*
X150499730Y-126802454D01*
X150643406Y-126989697D01*
X150643412Y-126989704D01*
X150810295Y-127156587D01*
X150810301Y-127156592D01*
X150997550Y-127300273D01*
X151128918Y-127376118D01*
X151201943Y-127418280D01*
X151201948Y-127418282D01*
X151201951Y-127418284D01*
X151420007Y-127508606D01*
X151647986Y-127569693D01*
X151881989Y-127600500D01*
X151881996Y-127600500D01*
X152118004Y-127600500D01*
X152118011Y-127600500D01*
X152352014Y-127569693D01*
X152579993Y-127508606D01*
X152798049Y-127418284D01*
X153002450Y-127300273D01*
X153189699Y-127156592D01*
X153356592Y-126989699D01*
X153500273Y-126802450D01*
X153618284Y-126598049D01*
X153708606Y-126379993D01*
X153769693Y-126152014D01*
X153800500Y-125918011D01*
X153800500Y-125681989D01*
X153769693Y-125447986D01*
X153708606Y-125220007D01*
X153618284Y-125001951D01*
X153618282Y-125001948D01*
X153618280Y-125001943D01*
X153576118Y-124928918D01*
X153500273Y-124797550D01*
X153356592Y-124610301D01*
X153356587Y-124610295D01*
X153189704Y-124443412D01*
X153189697Y-124443406D01*
X153002454Y-124299730D01*
X153002453Y-124299729D01*
X153002450Y-124299727D01*
X152920957Y-124252677D01*
X152798056Y-124181719D01*
X152798045Y-124181714D01*
X152579993Y-124091394D01*
X152352010Y-124030306D01*
X152118020Y-123999501D01*
X152118017Y-123999500D01*
X152118011Y-123999500D01*
X151881989Y-123999500D01*
X151881983Y-123999500D01*
X151881979Y-123999501D01*
X151647989Y-124030306D01*
X151419999Y-124091396D01*
X151324002Y-124131159D01*
X151254532Y-124138628D01*
X151192053Y-124107352D01*
X151188869Y-124104279D01*
X147511819Y-120427229D01*
X147478334Y-120365906D01*
X147475500Y-120339548D01*
X147475500Y-117459452D01*
X147495185Y-117392413D01*
X147547989Y-117346658D01*
X147617147Y-117336714D01*
X147680703Y-117365739D01*
X147687181Y-117371771D01*
X150304279Y-119988869D01*
X150337764Y-120050192D01*
X150332780Y-120119884D01*
X150331159Y-120124002D01*
X150291396Y-120219999D01*
X150230306Y-120447989D01*
X150199501Y-120681979D01*
X150199500Y-120681995D01*
X150199500Y-120918004D01*
X150199501Y-120918020D01*
X150221286Y-121083497D01*
X150230307Y-121152014D01*
X150250983Y-121229179D01*
X150291394Y-121379993D01*
X150381714Y-121598045D01*
X150381719Y-121598056D01*
X150438648Y-121696658D01*
X150499727Y-121802450D01*
X150499729Y-121802453D01*
X150499730Y-121802454D01*
X150643406Y-121989697D01*
X150643412Y-121989704D01*
X150810295Y-122156587D01*
X150810301Y-122156592D01*
X150997550Y-122300273D01*
X151128918Y-122376118D01*
X151201943Y-122418280D01*
X151201948Y-122418282D01*
X151201951Y-122418284D01*
X151420007Y-122508606D01*
X151647986Y-122569693D01*
X151881989Y-122600500D01*
X151881996Y-122600500D01*
X152118004Y-122600500D01*
X152118011Y-122600500D01*
X152352014Y-122569693D01*
X152579993Y-122508606D01*
X152798049Y-122418284D01*
X153002450Y-122300273D01*
X153189699Y-122156592D01*
X153356592Y-121989699D01*
X153500273Y-121802450D01*
X153618284Y-121598049D01*
X153708606Y-121379993D01*
X153769693Y-121152014D01*
X153800500Y-120918011D01*
X153800500Y-120681989D01*
X153769693Y-120447986D01*
X153708606Y-120220007D01*
X153618284Y-120001951D01*
X153571635Y-119921153D01*
X154649500Y-119921153D01*
X154649500Y-120078846D01*
X154680261Y-120233489D01*
X154680264Y-120233501D01*
X154740602Y-120379172D01*
X154740609Y-120379185D01*
X154828210Y-120510288D01*
X154828213Y-120510292D01*
X154939707Y-120621786D01*
X154939711Y-120621789D01*
X155070814Y-120709390D01*
X155070827Y-120709397D01*
X155216498Y-120769735D01*
X155216503Y-120769737D01*
X155371153Y-120800499D01*
X155371156Y-120800500D01*
X155371158Y-120800500D01*
X155528844Y-120800500D01*
X155528845Y-120800499D01*
X155683497Y-120769737D01*
X155752549Y-120741134D01*
X155822016Y-120733666D01*
X155847447Y-120741133D01*
X155916503Y-120769737D01*
X156071153Y-120800499D01*
X156071156Y-120800500D01*
X156071158Y-120800500D01*
X156228844Y-120800500D01*
X156228845Y-120800499D01*
X156383497Y-120769737D01*
X156452549Y-120741134D01*
X156522016Y-120733666D01*
X156547447Y-120741133D01*
X156616503Y-120769737D01*
X156771153Y-120800499D01*
X156771156Y-120800500D01*
X156771158Y-120800500D01*
X156928844Y-120800500D01*
X156928845Y-120800499D01*
X157076378Y-120771153D01*
X157699500Y-120771153D01*
X157699500Y-120928846D01*
X157730261Y-121083489D01*
X157730264Y-121083501D01*
X157790602Y-121229172D01*
X157790609Y-121229185D01*
X157878210Y-121360288D01*
X157878213Y-121360292D01*
X157989707Y-121471786D01*
X157989711Y-121471789D01*
X158120814Y-121559390D01*
X158120827Y-121559397D01*
X158266498Y-121619735D01*
X158266503Y-121619737D01*
X158421153Y-121650499D01*
X158421156Y-121650500D01*
X158421158Y-121650500D01*
X158578844Y-121650500D01*
X158578845Y-121650499D01*
X158733497Y-121619737D01*
X158879179Y-121559394D01*
X159010289Y-121471789D01*
X159121789Y-121360289D01*
X159209394Y-121229179D01*
X159269737Y-121083497D01*
X159300500Y-120928842D01*
X159300500Y-120771158D01*
X159300500Y-120771155D01*
X159300499Y-120771153D01*
X159270788Y-120621789D01*
X159269737Y-120616503D01*
X159269735Y-120616498D01*
X159209397Y-120470827D01*
X159209390Y-120470814D01*
X159121789Y-120339711D01*
X159121786Y-120339707D01*
X159010292Y-120228213D01*
X159010288Y-120228210D01*
X158879185Y-120140609D01*
X158879172Y-120140602D01*
X158733501Y-120080264D01*
X158733489Y-120080261D01*
X158578845Y-120049500D01*
X158578842Y-120049500D01*
X158421158Y-120049500D01*
X158421155Y-120049500D01*
X158266510Y-120080261D01*
X158266498Y-120080264D01*
X158120827Y-120140602D01*
X158120814Y-120140609D01*
X157989711Y-120228210D01*
X157989707Y-120228213D01*
X157878213Y-120339707D01*
X157878210Y-120339711D01*
X157790609Y-120470814D01*
X157790602Y-120470827D01*
X157730264Y-120616498D01*
X157730261Y-120616510D01*
X157699500Y-120771153D01*
X157076378Y-120771153D01*
X157083497Y-120769737D01*
X157229179Y-120709394D01*
X157229185Y-120709390D01*
X157300164Y-120661964D01*
X157331224Y-120641209D01*
X157360289Y-120621789D01*
X157471789Y-120510289D01*
X157559394Y-120379179D01*
X157619737Y-120233497D01*
X157650500Y-120078842D01*
X157650500Y-119921158D01*
X157650500Y-119921155D01*
X157650499Y-119921153D01*
X157619737Y-119766503D01*
X157619735Y-119766498D01*
X157559397Y-119620827D01*
X157559393Y-119620820D01*
X157552365Y-119610302D01*
X157491284Y-119518888D01*
X157470408Y-119452214D01*
X157488892Y-119384834D01*
X157491257Y-119381152D01*
X157559394Y-119279179D01*
X157619737Y-119133497D01*
X157650500Y-118978842D01*
X157650500Y-118821158D01*
X157650500Y-118821155D01*
X157650499Y-118821153D01*
X157619738Y-118666510D01*
X157619737Y-118666503D01*
X157619735Y-118666498D01*
X157559397Y-118520827D01*
X157559390Y-118520814D01*
X157471789Y-118389711D01*
X157471786Y-118389707D01*
X157360292Y-118278213D01*
X157360288Y-118278210D01*
X157229185Y-118190609D01*
X157229172Y-118190602D01*
X157083501Y-118130264D01*
X157083489Y-118130261D01*
X156928845Y-118099500D01*
X156928842Y-118099500D01*
X156771158Y-118099500D01*
X156771155Y-118099500D01*
X156616511Y-118130260D01*
X156616506Y-118130262D01*
X156616504Y-118130262D01*
X156616503Y-118130263D01*
X156572449Y-118148510D01*
X156502982Y-118155978D01*
X156477552Y-118148511D01*
X156433497Y-118130263D01*
X156433493Y-118130262D01*
X156433488Y-118130260D01*
X156278845Y-118099500D01*
X156278842Y-118099500D01*
X156121158Y-118099500D01*
X156121155Y-118099500D01*
X155966511Y-118130260D01*
X155966506Y-118130262D01*
X155966504Y-118130262D01*
X155966503Y-118130263D01*
X155922449Y-118148510D01*
X155852982Y-118155978D01*
X155827552Y-118148511D01*
X155783497Y-118130263D01*
X155783493Y-118130262D01*
X155783488Y-118130260D01*
X155628845Y-118099500D01*
X155628842Y-118099500D01*
X155471158Y-118099500D01*
X155471155Y-118099500D01*
X155316510Y-118130261D01*
X155316498Y-118130264D01*
X155170827Y-118190602D01*
X155170814Y-118190609D01*
X155039711Y-118278210D01*
X155039707Y-118278213D01*
X154928213Y-118389707D01*
X154928210Y-118389711D01*
X154840609Y-118520814D01*
X154840602Y-118520827D01*
X154780264Y-118666498D01*
X154780261Y-118666510D01*
X154749500Y-118821153D01*
X154749500Y-118978846D01*
X154780261Y-119133489D01*
X154780264Y-119133501D01*
X154840604Y-119279176D01*
X154863431Y-119313339D01*
X154884309Y-119380017D01*
X154865824Y-119447397D01*
X154848012Y-119469909D01*
X154828212Y-119489708D01*
X154828208Y-119489714D01*
X154740609Y-119620814D01*
X154740602Y-119620827D01*
X154680264Y-119766498D01*
X154680261Y-119766510D01*
X154649500Y-119921153D01*
X153571635Y-119921153D01*
X153500273Y-119797550D01*
X153356592Y-119610301D01*
X153356587Y-119610295D01*
X153189704Y-119443412D01*
X153189697Y-119443406D01*
X153002454Y-119299730D01*
X153002453Y-119299729D01*
X153002450Y-119299727D01*
X152920957Y-119252677D01*
X152798056Y-119181719D01*
X152798045Y-119181714D01*
X152579993Y-119091394D01*
X152352010Y-119030306D01*
X152118020Y-118999501D01*
X152118017Y-118999500D01*
X152118011Y-118999500D01*
X151881989Y-118999500D01*
X151881983Y-118999500D01*
X151881979Y-118999501D01*
X151647989Y-119030306D01*
X151419999Y-119091396D01*
X151324002Y-119131159D01*
X151254532Y-119138628D01*
X151192053Y-119107352D01*
X151188869Y-119104279D01*
X148161819Y-116077229D01*
X148128334Y-116015906D01*
X148125500Y-115989548D01*
X148125500Y-115682014D01*
X150200000Y-115682014D01*
X150200000Y-115917985D01*
X150230799Y-116151914D01*
X150291870Y-116379837D01*
X150382160Y-116597819D01*
X150382165Y-116597828D01*
X150500144Y-116802171D01*
X150500145Y-116802172D01*
X150562721Y-116883723D01*
X151398958Y-116047487D01*
X151423978Y-116107890D01*
X151495112Y-116214351D01*
X151585649Y-116304888D01*
X151692110Y-116376022D01*
X151752511Y-116401041D01*
X150916275Y-117237277D01*
X150997827Y-117299854D01*
X150997828Y-117299855D01*
X151202171Y-117417834D01*
X151202180Y-117417839D01*
X151420163Y-117508129D01*
X151420161Y-117508129D01*
X151648085Y-117569200D01*
X151882014Y-117599999D01*
X151882029Y-117600000D01*
X152117971Y-117600000D01*
X152117985Y-117599999D01*
X152351914Y-117569200D01*
X152579837Y-117508129D01*
X152797819Y-117417839D01*
X152797828Y-117417834D01*
X153002181Y-117299850D01*
X153083723Y-117237279D01*
X153083723Y-117237276D01*
X152247487Y-116401041D01*
X152307890Y-116376022D01*
X152414351Y-116304888D01*
X152504888Y-116214351D01*
X152576022Y-116107890D01*
X152601041Y-116047488D01*
X153437276Y-116883723D01*
X153437279Y-116883723D01*
X153499850Y-116802181D01*
X153617834Y-116597828D01*
X153617839Y-116597819D01*
X153708129Y-116379837D01*
X153769200Y-116151914D01*
X153799999Y-115917985D01*
X153800000Y-115917971D01*
X153800000Y-115682028D01*
X153799999Y-115682014D01*
X153769200Y-115448085D01*
X153708129Y-115220162D01*
X153617839Y-115002180D01*
X153617834Y-115002171D01*
X153499855Y-114797828D01*
X153499854Y-114797827D01*
X153437277Y-114716275D01*
X152601041Y-115552511D01*
X152576022Y-115492110D01*
X152504888Y-115385649D01*
X152414351Y-115295112D01*
X152307890Y-115223978D01*
X152247488Y-115198958D01*
X153083723Y-114362721D01*
X153002172Y-114300145D01*
X153002171Y-114300144D01*
X152797828Y-114182165D01*
X152797819Y-114182160D01*
X152579836Y-114091870D01*
X152579838Y-114091870D01*
X152351914Y-114030799D01*
X152117985Y-114000000D01*
X151882014Y-114000000D01*
X151648085Y-114030799D01*
X151420162Y-114091870D01*
X151202180Y-114182160D01*
X151202171Y-114182165D01*
X150997828Y-114300144D01*
X150997818Y-114300150D01*
X150916275Y-114362720D01*
X150916275Y-114362721D01*
X151752512Y-115198958D01*
X151692110Y-115223978D01*
X151585649Y-115295112D01*
X151495112Y-115385649D01*
X151423978Y-115492110D01*
X151398958Y-115552511D01*
X150562721Y-114716275D01*
X150562720Y-114716275D01*
X150500150Y-114797818D01*
X150500144Y-114797828D01*
X150382165Y-115002171D01*
X150382160Y-115002180D01*
X150291870Y-115220162D01*
X150230799Y-115448085D01*
X150200000Y-115682014D01*
X148125500Y-115682014D01*
X148125500Y-113821153D01*
X155549500Y-113821153D01*
X155549500Y-113978846D01*
X155580261Y-114133489D01*
X155580264Y-114133501D01*
X155640602Y-114279172D01*
X155640609Y-114279184D01*
X155703602Y-114373459D01*
X155724480Y-114440136D01*
X155724500Y-114442350D01*
X155724500Y-115611610D01*
X155726525Y-115621789D01*
X155736518Y-115672029D01*
X155748537Y-115732452D01*
X155754020Y-115745688D01*
X155757455Y-115753982D01*
X155757456Y-115753984D01*
X155795685Y-115846280D01*
X155795690Y-115846289D01*
X155829914Y-115897507D01*
X155829915Y-115897509D01*
X155864141Y-115948733D01*
X155955586Y-116040178D01*
X155955608Y-116040198D01*
X157414139Y-117498729D01*
X157414142Y-117498733D01*
X157501267Y-117585858D01*
X157537831Y-117610289D01*
X157603714Y-117654312D01*
X157603719Y-117654314D01*
X157677390Y-117684829D01*
X157677394Y-117684830D01*
X157684207Y-117687652D01*
X157717548Y-117701463D01*
X157777971Y-117713481D01*
X157838393Y-117725500D01*
X157838394Y-117725500D01*
X159307650Y-117725500D01*
X159374689Y-117745185D01*
X159376541Y-117746398D01*
X159470821Y-117809394D01*
X159470823Y-117809395D01*
X159470827Y-117809397D01*
X159616498Y-117869735D01*
X159616503Y-117869737D01*
X159771153Y-117900499D01*
X159771156Y-117900500D01*
X159771158Y-117900500D01*
X159928844Y-117900500D01*
X159928845Y-117900499D01*
X160083497Y-117869737D01*
X160229179Y-117809394D01*
X160360289Y-117721789D01*
X160471789Y-117610289D01*
X160559394Y-117479179D01*
X160619737Y-117333497D01*
X160650500Y-117178842D01*
X160650500Y-117021158D01*
X160650500Y-117021155D01*
X160650499Y-117021153D01*
X160619738Y-116866510D01*
X160619737Y-116866503D01*
X160607965Y-116838082D01*
X160559397Y-116720827D01*
X160559390Y-116720814D01*
X160471789Y-116589711D01*
X160471786Y-116589707D01*
X160360292Y-116478213D01*
X160360288Y-116478210D01*
X160229185Y-116390609D01*
X160229172Y-116390602D01*
X160083501Y-116330264D01*
X160083489Y-116330261D01*
X159928845Y-116299500D01*
X159928842Y-116299500D01*
X159771158Y-116299500D01*
X159771155Y-116299500D01*
X159616510Y-116330261D01*
X159616498Y-116330264D01*
X159470827Y-116390602D01*
X159470815Y-116390609D01*
X159376541Y-116453602D01*
X159309864Y-116474480D01*
X159307650Y-116474500D01*
X158210452Y-116474500D01*
X158143413Y-116454815D01*
X158122771Y-116438181D01*
X157011819Y-115327229D01*
X156978334Y-115265906D01*
X156975500Y-115239548D01*
X156975500Y-114500431D01*
X156995185Y-114433392D01*
X157047989Y-114387637D01*
X157101748Y-114378685D01*
X157101748Y-114376653D01*
X157265526Y-114376653D01*
X157265527Y-114376652D01*
X157420179Y-114345890D01*
X157565861Y-114285547D01*
X157601373Y-114261819D01*
X157624453Y-114246398D01*
X157691130Y-114225520D01*
X157693343Y-114225500D01*
X160589548Y-114225500D01*
X160656587Y-114245185D01*
X160677229Y-114261819D01*
X161474205Y-115058795D01*
X161507690Y-115120118D01*
X161508141Y-115122285D01*
X161530261Y-115233489D01*
X161530264Y-115233501D01*
X161590602Y-115379172D01*
X161590609Y-115379185D01*
X161678210Y-115510288D01*
X161678213Y-115510292D01*
X161789707Y-115621786D01*
X161789711Y-115621789D01*
X161920814Y-115709390D01*
X161920827Y-115709397D01*
X162066498Y-115769735D01*
X162066503Y-115769737D01*
X162218639Y-115799999D01*
X162221153Y-115800499D01*
X162221156Y-115800500D01*
X162221158Y-115800500D01*
X162378844Y-115800500D01*
X162378845Y-115800499D01*
X162533497Y-115769737D01*
X162679179Y-115709394D01*
X162810289Y-115621789D01*
X162921789Y-115510289D01*
X163009394Y-115379179D01*
X163069737Y-115233497D01*
X163100500Y-115078842D01*
X163100500Y-114921158D01*
X163100500Y-114921155D01*
X163100499Y-114921153D01*
X163075968Y-114797828D01*
X163069737Y-114766503D01*
X163048932Y-114716275D01*
X163009397Y-114620827D01*
X163009390Y-114620814D01*
X162921789Y-114489711D01*
X162921786Y-114489707D01*
X162810292Y-114378213D01*
X162810288Y-114378210D01*
X162679185Y-114290609D01*
X162679172Y-114290602D01*
X162533501Y-114230264D01*
X162533489Y-114230261D01*
X162422285Y-114208141D01*
X162360374Y-114175756D01*
X162358795Y-114174205D01*
X161390198Y-113205608D01*
X161388737Y-113204147D01*
X161387308Y-113202717D01*
X161387306Y-113202714D01*
X161305745Y-113121153D01*
X163349500Y-113121153D01*
X163349500Y-113278846D01*
X163380261Y-113433489D01*
X163380264Y-113433501D01*
X163440602Y-113579172D01*
X163440609Y-113579185D01*
X163528210Y-113710288D01*
X163528213Y-113710292D01*
X163639707Y-113821786D01*
X163639711Y-113821789D01*
X163770814Y-113909390D01*
X163770827Y-113909397D01*
X163916498Y-113969735D01*
X163916503Y-113969737D01*
X164066131Y-113999500D01*
X164071153Y-114000499D01*
X164071156Y-114000500D01*
X164071158Y-114000500D01*
X164228844Y-114000500D01*
X164228845Y-114000499D01*
X164383497Y-113969737D01*
X164529179Y-113909394D01*
X164660289Y-113821789D01*
X164771789Y-113710289D01*
X164859394Y-113579179D01*
X164919737Y-113433497D01*
X164950500Y-113278842D01*
X164950500Y-113121158D01*
X164950500Y-113121155D01*
X164950499Y-113121153D01*
X164928856Y-113012347D01*
X164919737Y-112966503D01*
X164914709Y-112954364D01*
X164859397Y-112820827D01*
X164859390Y-112820814D01*
X164771789Y-112689711D01*
X164771786Y-112689707D01*
X164660292Y-112578213D01*
X164660288Y-112578210D01*
X164529185Y-112490609D01*
X164529172Y-112490602D01*
X164383501Y-112430264D01*
X164383489Y-112430261D01*
X164228845Y-112399500D01*
X164228842Y-112399500D01*
X164071158Y-112399500D01*
X164071155Y-112399500D01*
X163916510Y-112430261D01*
X163916498Y-112430264D01*
X163770827Y-112490602D01*
X163770814Y-112490609D01*
X163639711Y-112578210D01*
X163639707Y-112578213D01*
X163528213Y-112689707D01*
X163528210Y-112689711D01*
X163440609Y-112820814D01*
X163440602Y-112820827D01*
X163380264Y-112966498D01*
X163380261Y-112966510D01*
X163349500Y-113121153D01*
X161305745Y-113121153D01*
X161298733Y-113114141D01*
X161253325Y-113083801D01*
X161253324Y-113083800D01*
X161247509Y-113079915D01*
X161196286Y-113045688D01*
X161115792Y-113012347D01*
X161100457Y-113005995D01*
X161082453Y-112998537D01*
X161072427Y-112996543D01*
X161022029Y-112986518D01*
X160961610Y-112974500D01*
X160961607Y-112974500D01*
X160961606Y-112974500D01*
X157764722Y-112974500D01*
X157697683Y-112954815D01*
X157695831Y-112953602D01*
X157565867Y-112866762D01*
X157565854Y-112866755D01*
X157420183Y-112806417D01*
X157420171Y-112806414D01*
X157265527Y-112775653D01*
X157265524Y-112775653D01*
X157107840Y-112775653D01*
X157107837Y-112775653D01*
X156953192Y-112806414D01*
X156953180Y-112806417D01*
X156807509Y-112866755D01*
X156807496Y-112866762D01*
X156676393Y-112954363D01*
X156676389Y-112954366D01*
X156561132Y-113069624D01*
X156499809Y-113103109D01*
X156449264Y-113103561D01*
X156428845Y-113099500D01*
X156428842Y-113099500D01*
X156271158Y-113099500D01*
X156271155Y-113099500D01*
X156116510Y-113130261D01*
X156116498Y-113130264D01*
X155970827Y-113190602D01*
X155970814Y-113190609D01*
X155839711Y-113278210D01*
X155839707Y-113278213D01*
X155728213Y-113389707D01*
X155728210Y-113389711D01*
X155640609Y-113520814D01*
X155640602Y-113520827D01*
X155580264Y-113666498D01*
X155580261Y-113666510D01*
X155549500Y-113821153D01*
X148125500Y-113821153D01*
X148125500Y-110681995D01*
X150199500Y-110681995D01*
X150199500Y-110918004D01*
X150199501Y-110918020D01*
X150230306Y-111152010D01*
X150291394Y-111379993D01*
X150381714Y-111598045D01*
X150381719Y-111598056D01*
X150452677Y-111720957D01*
X150499727Y-111802450D01*
X150499729Y-111802453D01*
X150499730Y-111802454D01*
X150643406Y-111989697D01*
X150643412Y-111989704D01*
X150810295Y-112156587D01*
X150810301Y-112156592D01*
X150997550Y-112300273D01*
X151128918Y-112376118D01*
X151201943Y-112418280D01*
X151201948Y-112418282D01*
X151201951Y-112418284D01*
X151420007Y-112508606D01*
X151647986Y-112569693D01*
X151881989Y-112600500D01*
X151881996Y-112600500D01*
X152118004Y-112600500D01*
X152118011Y-112600500D01*
X152352014Y-112569693D01*
X152579993Y-112508606D01*
X152798049Y-112418284D01*
X153002450Y-112300273D01*
X153189699Y-112156592D01*
X153356592Y-111989699D01*
X153500273Y-111802450D01*
X153618284Y-111598049D01*
X153708606Y-111379993D01*
X153769693Y-111152014D01*
X153800500Y-110918011D01*
X153800500Y-110681989D01*
X153769693Y-110447986D01*
X153708606Y-110220007D01*
X153618284Y-110001951D01*
X153618282Y-110001948D01*
X153618280Y-110001943D01*
X153553360Y-109889500D01*
X153500273Y-109797550D01*
X153356592Y-109610301D01*
X153356587Y-109610295D01*
X153189704Y-109443412D01*
X153189697Y-109443406D01*
X153002457Y-109299732D01*
X153002455Y-109299730D01*
X153002450Y-109299727D01*
X152868606Y-109222452D01*
X152868605Y-109222451D01*
X152798056Y-109181719D01*
X152798045Y-109181714D01*
X152651838Y-109121153D01*
X167299500Y-109121153D01*
X167299500Y-109278846D01*
X167330261Y-109433489D01*
X167330264Y-109433501D01*
X167390602Y-109579172D01*
X167390609Y-109579185D01*
X167478210Y-109710288D01*
X167478213Y-109710292D01*
X167589707Y-109821786D01*
X167589711Y-109821789D01*
X167720814Y-109909390D01*
X167720827Y-109909397D01*
X167866498Y-109969735D01*
X167866503Y-109969737D01*
X168021153Y-110000499D01*
X168021156Y-110000500D01*
X168021158Y-110000500D01*
X168178844Y-110000500D01*
X168178845Y-110000499D01*
X168333497Y-109969737D01*
X168479179Y-109909394D01*
X168610289Y-109821789D01*
X168721789Y-109710289D01*
X168809394Y-109579179D01*
X168869737Y-109433497D01*
X168900500Y-109278842D01*
X168900500Y-109121158D01*
X168900500Y-109121155D01*
X168900499Y-109121153D01*
X168869737Y-108966503D01*
X168869735Y-108966498D01*
X168809397Y-108820827D01*
X168809390Y-108820814D01*
X168721789Y-108689711D01*
X168721786Y-108689707D01*
X168610292Y-108578213D01*
X168610288Y-108578210D01*
X168479185Y-108490609D01*
X168479172Y-108490602D01*
X168333501Y-108430264D01*
X168333489Y-108430261D01*
X168178845Y-108399500D01*
X168178842Y-108399500D01*
X168021158Y-108399500D01*
X168021155Y-108399500D01*
X167866510Y-108430261D01*
X167866498Y-108430264D01*
X167720827Y-108490602D01*
X167720814Y-108490609D01*
X167589711Y-108578210D01*
X167589707Y-108578213D01*
X167478213Y-108689707D01*
X167478210Y-108689711D01*
X167390609Y-108820814D01*
X167390602Y-108820827D01*
X167330264Y-108966498D01*
X167330261Y-108966510D01*
X167299500Y-109121153D01*
X152651838Y-109121153D01*
X152579993Y-109091394D01*
X152352010Y-109030306D01*
X152118020Y-108999501D01*
X152118017Y-108999500D01*
X152118011Y-108999500D01*
X151881989Y-108999500D01*
X151881983Y-108999500D01*
X151881979Y-108999501D01*
X151647989Y-109030306D01*
X151420006Y-109091394D01*
X151201954Y-109181714D01*
X151201943Y-109181719D01*
X150997545Y-109299730D01*
X150810302Y-109443406D01*
X150810295Y-109443412D01*
X150643412Y-109610295D01*
X150643406Y-109610302D01*
X150499730Y-109797545D01*
X150381719Y-110001943D01*
X150381714Y-110001954D01*
X150291394Y-110220006D01*
X150230306Y-110447989D01*
X150199501Y-110681979D01*
X150199500Y-110681995D01*
X148125500Y-110681995D01*
X148125500Y-105682014D01*
X150200000Y-105682014D01*
X150200000Y-105917985D01*
X150230799Y-106151914D01*
X150291870Y-106379837D01*
X150382160Y-106597819D01*
X150382165Y-106597828D01*
X150500144Y-106802171D01*
X150500145Y-106802172D01*
X150562721Y-106883723D01*
X151398958Y-106047487D01*
X151423978Y-106107890D01*
X151495112Y-106214351D01*
X151585649Y-106304888D01*
X151692110Y-106376022D01*
X151752511Y-106401041D01*
X150916275Y-107237277D01*
X150997827Y-107299854D01*
X150997828Y-107299855D01*
X151202171Y-107417834D01*
X151202180Y-107417839D01*
X151420163Y-107508129D01*
X151420161Y-107508129D01*
X151648085Y-107569200D01*
X151882014Y-107599999D01*
X151882029Y-107600000D01*
X152117971Y-107600000D01*
X152117985Y-107599999D01*
X152351914Y-107569200D01*
X152579837Y-107508129D01*
X152797819Y-107417839D01*
X152797828Y-107417834D01*
X153002181Y-107299850D01*
X153083723Y-107237279D01*
X153083723Y-107237276D01*
X152247487Y-106401041D01*
X152307890Y-106376022D01*
X152414351Y-106304888D01*
X152504888Y-106214351D01*
X152576022Y-106107890D01*
X152601041Y-106047488D01*
X153437276Y-106883723D01*
X153437279Y-106883723D01*
X153499850Y-106802181D01*
X153617834Y-106597828D01*
X153617839Y-106597819D01*
X153708129Y-106379837D01*
X153769200Y-106151914D01*
X153799999Y-105917985D01*
X153800000Y-105917971D01*
X153800000Y-105682028D01*
X153799999Y-105682014D01*
X153769200Y-105448085D01*
X153708129Y-105220162D01*
X153617839Y-105002180D01*
X153617834Y-105002171D01*
X153499855Y-104797828D01*
X153499854Y-104797827D01*
X153437277Y-104716275D01*
X152601041Y-105552511D01*
X152576022Y-105492110D01*
X152504888Y-105385649D01*
X152414351Y-105295112D01*
X152307890Y-105223978D01*
X152247488Y-105198958D01*
X153083723Y-104362721D01*
X153002172Y-104300145D01*
X153002171Y-104300144D01*
X152797828Y-104182165D01*
X152797819Y-104182160D01*
X152579836Y-104091870D01*
X152579838Y-104091870D01*
X152351914Y-104030799D01*
X152117985Y-104000000D01*
X151882014Y-104000000D01*
X151648085Y-104030799D01*
X151420162Y-104091870D01*
X151202180Y-104182160D01*
X151202171Y-104182165D01*
X150997828Y-104300144D01*
X150997818Y-104300150D01*
X150916275Y-104362720D01*
X150916275Y-104362721D01*
X151752512Y-105198958D01*
X151692110Y-105223978D01*
X151585649Y-105295112D01*
X151495112Y-105385649D01*
X151423978Y-105492110D01*
X151398958Y-105552511D01*
X150562721Y-104716275D01*
X150562720Y-104716275D01*
X150500150Y-104797818D01*
X150500144Y-104797828D01*
X150382165Y-105002171D01*
X150382160Y-105002180D01*
X150291870Y-105220162D01*
X150230799Y-105448085D01*
X150200000Y-105682014D01*
X148125500Y-105682014D01*
X148125500Y-103581153D01*
X161739500Y-103581153D01*
X161739500Y-103738846D01*
X161770261Y-103893489D01*
X161770264Y-103893501D01*
X161830602Y-104039172D01*
X161830609Y-104039185D01*
X161918210Y-104170288D01*
X161918213Y-104170292D01*
X162029707Y-104281786D01*
X162029711Y-104281789D01*
X162160814Y-104369390D01*
X162160827Y-104369397D01*
X162234078Y-104399738D01*
X162306503Y-104429737D01*
X162461153Y-104460499D01*
X162461156Y-104460500D01*
X162461158Y-104460500D01*
X162618844Y-104460500D01*
X162618845Y-104460499D01*
X162773497Y-104429737D01*
X162919179Y-104369394D01*
X163050289Y-104281789D01*
X163161789Y-104170289D01*
X163249394Y-104039179D01*
X163309737Y-103893497D01*
X163340500Y-103738842D01*
X163340500Y-103581158D01*
X163334532Y-103551153D01*
X168449500Y-103551153D01*
X168449500Y-103708846D01*
X168480261Y-103863489D01*
X168480264Y-103863501D01*
X168540602Y-104009172D01*
X168540609Y-104009185D01*
X168628210Y-104140288D01*
X168628213Y-104140292D01*
X168739707Y-104251786D01*
X168739711Y-104251789D01*
X168870814Y-104339390D01*
X168870827Y-104339397D01*
X169016498Y-104399735D01*
X169016503Y-104399737D01*
X169167312Y-104429735D01*
X169171153Y-104430499D01*
X169171156Y-104430500D01*
X169171158Y-104430500D01*
X169328844Y-104430500D01*
X169328845Y-104430499D01*
X169483497Y-104399737D01*
X169629179Y-104339394D01*
X169760289Y-104251789D01*
X169871789Y-104140289D01*
X169959394Y-104009179D01*
X170019737Y-103863497D01*
X170050500Y-103708842D01*
X170050500Y-103551158D01*
X170050500Y-103551155D01*
X170050499Y-103551153D01*
X170019737Y-103396503D01*
X170019436Y-103395777D01*
X169959397Y-103250827D01*
X169959390Y-103250814D01*
X169871789Y-103119711D01*
X169871786Y-103119707D01*
X169760292Y-103008213D01*
X169760288Y-103008210D01*
X169629185Y-102920609D01*
X169629172Y-102920602D01*
X169483501Y-102860264D01*
X169483489Y-102860261D01*
X169328845Y-102829500D01*
X169328842Y-102829500D01*
X169171158Y-102829500D01*
X169171155Y-102829500D01*
X169016510Y-102860261D01*
X169016498Y-102860264D01*
X168870827Y-102920602D01*
X168870814Y-102920609D01*
X168739711Y-103008210D01*
X168739707Y-103008213D01*
X168628213Y-103119707D01*
X168628210Y-103119711D01*
X168540609Y-103250814D01*
X168540602Y-103250827D01*
X168480264Y-103396498D01*
X168480261Y-103396510D01*
X168449500Y-103551153D01*
X163334532Y-103551153D01*
X163309737Y-103426503D01*
X163297309Y-103396498D01*
X163249397Y-103280827D01*
X163249390Y-103280814D01*
X163161789Y-103149711D01*
X163161786Y-103149707D01*
X163050292Y-103038213D01*
X163050288Y-103038210D01*
X162919185Y-102950609D01*
X162919172Y-102950602D01*
X162773501Y-102890264D01*
X162773489Y-102890261D01*
X162618845Y-102859500D01*
X162618842Y-102859500D01*
X162461158Y-102859500D01*
X162461155Y-102859500D01*
X162306510Y-102890261D01*
X162306498Y-102890264D01*
X162160827Y-102950602D01*
X162160814Y-102950609D01*
X162029711Y-103038210D01*
X162029707Y-103038213D01*
X161918213Y-103149707D01*
X161918210Y-103149711D01*
X161830609Y-103280814D01*
X161830602Y-103280827D01*
X161770264Y-103426498D01*
X161770261Y-103426510D01*
X161739500Y-103581153D01*
X148125500Y-103581153D01*
X148125500Y-87926762D01*
X148130159Y-87910893D01*
X148129809Y-87894358D01*
X148139800Y-87878061D01*
X148145185Y-87859723D01*
X148157682Y-87848894D01*
X148166328Y-87834792D01*
X148183545Y-87826483D01*
X148197989Y-87813968D01*
X148214898Y-87811353D01*
X148229254Y-87804426D01*
X148256817Y-87804871D01*
X148264540Y-87803678D01*
X148269143Y-87804240D01*
X148401158Y-87830500D01*
X148484044Y-87830500D01*
X148491540Y-87831416D01*
X148516968Y-87842383D01*
X148543539Y-87850185D01*
X148548599Y-87856024D01*
X148555697Y-87859086D01*
X148571162Y-87882064D01*
X148589294Y-87902989D01*
X148591227Y-87911875D01*
X148594710Y-87917050D01*
X148594964Y-87929054D01*
X148600500Y-87954500D01*
X148600500Y-91490715D01*
X148600500Y-91635663D01*
X148638016Y-91775674D01*
X148710489Y-91901202D01*
X148710491Y-91901205D01*
X150533181Y-93723894D01*
X150566666Y-93785217D01*
X150569500Y-93811575D01*
X150569500Y-96912475D01*
X150603832Y-97040602D01*
X150607017Y-97052488D01*
X150679488Y-97178011D01*
X150679490Y-97178013D01*
X150679491Y-97178015D01*
X150781985Y-97280509D01*
X150862488Y-97326987D01*
X150888167Y-97346692D01*
X152329294Y-98787819D01*
X152362779Y-98849142D01*
X152357795Y-98918834D01*
X152315923Y-98974767D01*
X152250459Y-98999184D01*
X152241613Y-98999500D01*
X150899998Y-98999500D01*
X150899981Y-98999501D01*
X150797203Y-99010000D01*
X150797200Y-99010001D01*
X150630668Y-99065185D01*
X150630663Y-99065187D01*
X150481342Y-99157289D01*
X150357289Y-99281342D01*
X150265187Y-99430663D01*
X150265185Y-99430668D01*
X150260962Y-99443412D01*
X150210001Y-99597203D01*
X150210001Y-99597204D01*
X150210000Y-99597204D01*
X150199500Y-99699983D01*
X150199500Y-101900001D01*
X150199501Y-101900018D01*
X150210000Y-102002796D01*
X150210001Y-102002799D01*
X150256789Y-102143993D01*
X150265186Y-102169334D01*
X150357288Y-102318656D01*
X150481344Y-102442712D01*
X150630666Y-102534814D01*
X150797203Y-102589999D01*
X150899991Y-102600500D01*
X153100008Y-102600499D01*
X153202797Y-102589999D01*
X153369334Y-102534814D01*
X153518656Y-102442712D01*
X153642712Y-102318656D01*
X153734814Y-102169334D01*
X153789999Y-102002797D01*
X153800500Y-101900009D01*
X153800499Y-100409305D01*
X153820184Y-100342267D01*
X153872987Y-100296512D01*
X153942146Y-100286568D01*
X153956586Y-100289530D01*
X153997525Y-100300500D01*
X156107060Y-100300500D01*
X156174099Y-100320185D01*
X156194742Y-100336820D01*
X156229707Y-100371786D01*
X156229711Y-100371789D01*
X156360814Y-100459390D01*
X156360827Y-100459397D01*
X156455794Y-100498733D01*
X156506503Y-100519737D01*
X156661153Y-100550499D01*
X156661156Y-100550500D01*
X156661158Y-100550500D01*
X156818844Y-100550500D01*
X156818845Y-100550499D01*
X156973497Y-100519737D01*
X157119179Y-100459394D01*
X157236392Y-100381074D01*
X157245028Y-100378370D01*
X157251763Y-100372321D01*
X157277851Y-100368092D01*
X157303068Y-100360197D01*
X157311795Y-100362591D01*
X157320732Y-100361143D01*
X157344963Y-100371689D01*
X157370448Y-100378681D01*
X157378192Y-100386153D01*
X157384797Y-100389028D01*
X157408380Y-100415281D01*
X157426224Y-100441985D01*
X157464140Y-100498731D01*
X157464141Y-100498732D01*
X157464142Y-100498733D01*
X157551267Y-100585858D01*
X157551268Y-100585858D01*
X157558335Y-100592925D01*
X157558334Y-100592925D01*
X157558338Y-100592928D01*
X157913181Y-100947771D01*
X157927884Y-100974698D01*
X157944477Y-101000517D01*
X157945368Y-101006717D01*
X157946666Y-101009094D01*
X157949500Y-101035452D01*
X157949500Y-101250500D01*
X157929815Y-101317539D01*
X157877011Y-101363294D01*
X157825500Y-101374500D01*
X157706005Y-101374500D01*
X157570677Y-101401418D01*
X157570667Y-101401421D01*
X157443195Y-101454221D01*
X157443182Y-101454228D01*
X157328458Y-101530885D01*
X157328454Y-101530888D01*
X157230888Y-101628454D01*
X157230885Y-101628458D01*
X157154228Y-101743182D01*
X157154221Y-101743195D01*
X157101421Y-101870667D01*
X157101418Y-101870677D01*
X157074500Y-102006004D01*
X157074500Y-102006007D01*
X157074500Y-102143993D01*
X157074500Y-102143995D01*
X157074499Y-102143995D01*
X157101418Y-102279322D01*
X157101421Y-102279332D01*
X157142103Y-102377548D01*
X157149572Y-102447017D01*
X157142103Y-102472452D01*
X157101421Y-102570667D01*
X157101418Y-102570677D01*
X157074500Y-102706004D01*
X157074500Y-102706007D01*
X157074500Y-102843993D01*
X157074500Y-102843995D01*
X157074499Y-102843995D01*
X157101418Y-102979322D01*
X157101421Y-102979332D01*
X157154221Y-103106804D01*
X157154228Y-103106817D01*
X157230885Y-103221541D01*
X157230888Y-103221545D01*
X157328454Y-103319111D01*
X157328458Y-103319114D01*
X157443182Y-103395771D01*
X157443195Y-103395778D01*
X157570667Y-103448578D01*
X157570672Y-103448580D01*
X157570676Y-103448580D01*
X157570677Y-103448581D01*
X157706004Y-103475500D01*
X157706007Y-103475500D01*
X157843995Y-103475500D01*
X157954850Y-103453449D01*
X157979328Y-103448580D01*
X158106811Y-103395775D01*
X158106816Y-103395771D01*
X158112178Y-103392906D01*
X158112837Y-103394139D01*
X158172772Y-103375365D01*
X158237683Y-103393164D01*
X158237822Y-103392906D01*
X158238959Y-103393514D01*
X158240155Y-103393842D01*
X158243031Y-103395690D01*
X158243193Y-103395777D01*
X158244963Y-103396510D01*
X158370672Y-103448580D01*
X158370676Y-103448580D01*
X158370677Y-103448581D01*
X158506004Y-103475500D01*
X158506007Y-103475500D01*
X158643995Y-103475500D01*
X158643996Y-103475499D01*
X158682038Y-103467932D01*
X158754847Y-103453450D01*
X158754852Y-103453449D01*
X158771147Y-103450207D01*
X158779328Y-103448580D01*
X158905037Y-103396510D01*
X158906804Y-103395778D01*
X158906804Y-103395777D01*
X158906811Y-103395775D01*
X159021542Y-103319114D01*
X159119114Y-103221542D01*
X159195775Y-103106811D01*
X159248580Y-102979328D01*
X159266297Y-102890261D01*
X159275500Y-102843995D01*
X159275500Y-102706004D01*
X159248581Y-102570677D01*
X159248580Y-102570676D01*
X159248580Y-102570672D01*
X159207895Y-102472451D01*
X159200427Y-102402984D01*
X159207896Y-102377548D01*
X159248580Y-102279328D01*
X159270459Y-102169336D01*
X159275500Y-102143995D01*
X159275500Y-102006004D01*
X159248581Y-101870677D01*
X159248580Y-101870676D01*
X159248580Y-101870672D01*
X159248578Y-101870667D01*
X159209939Y-101777382D01*
X159200500Y-101729930D01*
X159200500Y-100663394D01*
X159198692Y-100654304D01*
X159198692Y-100654303D01*
X159183162Y-100576228D01*
X159176463Y-100542548D01*
X159129311Y-100428714D01*
X159116343Y-100409306D01*
X159091677Y-100372390D01*
X159091675Y-100372388D01*
X159086960Y-100365331D01*
X159060858Y-100326267D01*
X158973733Y-100239142D01*
X158973732Y-100239141D01*
X158611819Y-99877228D01*
X158578334Y-99815905D01*
X158575500Y-99789547D01*
X158575500Y-98521153D01*
X165949500Y-98521153D01*
X165949500Y-98678846D01*
X165980261Y-98833489D01*
X165980264Y-98833501D01*
X166040602Y-98979172D01*
X166040609Y-98979185D01*
X166128210Y-99110288D01*
X166128213Y-99110292D01*
X166239707Y-99221786D01*
X166239711Y-99221789D01*
X166370814Y-99309390D01*
X166370827Y-99309397D01*
X166437031Y-99336819D01*
X166516503Y-99369737D01*
X166671153Y-99400499D01*
X166671156Y-99400500D01*
X166671158Y-99400500D01*
X166828844Y-99400500D01*
X166828845Y-99400499D01*
X166983497Y-99369737D01*
X167129179Y-99309394D01*
X167260289Y-99221789D01*
X167371789Y-99110289D01*
X167459394Y-98979179D01*
X167461222Y-98974767D01*
X167473067Y-98946166D01*
X167519737Y-98833497D01*
X167550500Y-98678842D01*
X167550500Y-98521158D01*
X167550500Y-98521155D01*
X167550499Y-98521153D01*
X167542119Y-98479025D01*
X167519737Y-98366503D01*
X167519735Y-98366498D01*
X167459397Y-98220827D01*
X167459390Y-98220814D01*
X167371789Y-98089711D01*
X167371786Y-98089707D01*
X167260292Y-97978213D01*
X167260288Y-97978210D01*
X167129185Y-97890609D01*
X167129172Y-97890602D01*
X166983501Y-97830264D01*
X166983489Y-97830261D01*
X166828845Y-97799500D01*
X166828842Y-97799500D01*
X166671158Y-97799500D01*
X166671155Y-97799500D01*
X166516510Y-97830261D01*
X166516498Y-97830264D01*
X166370827Y-97890602D01*
X166370814Y-97890609D01*
X166239711Y-97978210D01*
X166239707Y-97978213D01*
X166128213Y-98089707D01*
X166128210Y-98089711D01*
X166040609Y-98220814D01*
X166040602Y-98220827D01*
X165980264Y-98366498D01*
X165980261Y-98366510D01*
X165949500Y-98521153D01*
X158575500Y-98521153D01*
X158575500Y-84860452D01*
X158595185Y-84793413D01*
X158611819Y-84772771D01*
X159016566Y-84368025D01*
X159435858Y-83948733D01*
X159504312Y-83846285D01*
X159551463Y-83732451D01*
X159552846Y-83725501D01*
X159560006Y-83689501D01*
X159575501Y-83611606D01*
X159575501Y-83488393D01*
X159575500Y-83488387D01*
X159575500Y-79088394D01*
X159575500Y-78092350D01*
X159595185Y-78025311D01*
X159596398Y-78023459D01*
X159603398Y-78012983D01*
X159659394Y-77929179D01*
X159719737Y-77783497D01*
X159750500Y-77628842D01*
X159750500Y-77471158D01*
X159750500Y-77471155D01*
X159750499Y-77471153D01*
X159748938Y-77463306D01*
X159719737Y-77316503D01*
X159671143Y-77199185D01*
X159659397Y-77170827D01*
X159659390Y-77170814D01*
X159571789Y-77039711D01*
X159571786Y-77039707D01*
X159460292Y-76928213D01*
X159460288Y-76928210D01*
X159329185Y-76840609D01*
X159329172Y-76840602D01*
X159183501Y-76780264D01*
X159183489Y-76780261D01*
X159028845Y-76749500D01*
X159028842Y-76749500D01*
X158871158Y-76749500D01*
X158871155Y-76749500D01*
X158716510Y-76780261D01*
X158716498Y-76780264D01*
X158570827Y-76840602D01*
X158570814Y-76840609D01*
X158439711Y-76928210D01*
X158439707Y-76928213D01*
X158328213Y-77039707D01*
X158328210Y-77039711D01*
X158240609Y-77170814D01*
X158240602Y-77170827D01*
X158180264Y-77316498D01*
X158180261Y-77316510D01*
X158149500Y-77471153D01*
X158149500Y-77628846D01*
X158180261Y-77783489D01*
X158180264Y-77783501D01*
X158240602Y-77929172D01*
X158240609Y-77929184D01*
X158303602Y-78023459D01*
X158324480Y-78090136D01*
X158324500Y-78092350D01*
X158324500Y-83239547D01*
X158304815Y-83306586D01*
X158288181Y-83327228D01*
X157553859Y-84061549D01*
X157553851Y-84061557D01*
X157551269Y-84064140D01*
X157551267Y-84064142D01*
X157464142Y-84151267D01*
X157438602Y-84189491D01*
X157433860Y-84196586D01*
X157433855Y-84196593D01*
X157395690Y-84253709D01*
X157395685Y-84253718D01*
X157367700Y-84321281D01*
X157367700Y-84321284D01*
X157354777Y-84352485D01*
X157348537Y-84367549D01*
X157330503Y-84458216D01*
X157329996Y-84460762D01*
X157329991Y-84460785D01*
X157324500Y-84488391D01*
X157324500Y-97755854D01*
X157304815Y-97822893D01*
X157252011Y-97868648D01*
X157182853Y-97878592D01*
X157131610Y-97858956D01*
X157089190Y-97830612D01*
X157089172Y-97830602D01*
X156943501Y-97770264D01*
X156943489Y-97770261D01*
X156788845Y-97739500D01*
X156788842Y-97739500D01*
X156631158Y-97739500D01*
X156631155Y-97739500D01*
X156476510Y-97770261D01*
X156476498Y-97770264D01*
X156330827Y-97830602D01*
X156330814Y-97830609D01*
X156199711Y-97918210D01*
X156199707Y-97918213D01*
X156164742Y-97953180D01*
X156103420Y-97986666D01*
X156077060Y-97989500D01*
X154881576Y-97989500D01*
X154814537Y-97969815D01*
X154793895Y-97953181D01*
X152576819Y-95736105D01*
X152543334Y-95674782D01*
X152540500Y-95648424D01*
X152540500Y-92247527D01*
X152540500Y-92247525D01*
X152502984Y-92107515D01*
X152444643Y-92006465D01*
X152430510Y-91981985D01*
X152430508Y-91981983D01*
X152430507Y-91981981D01*
X152430506Y-91981980D01*
X152168015Y-91719490D01*
X151660705Y-91212180D01*
X151627220Y-91150857D01*
X151632204Y-91081165D01*
X151674076Y-91025232D01*
X151739540Y-91000815D01*
X151748359Y-91000499D01*
X153947872Y-91000499D01*
X154007483Y-90994091D01*
X154016811Y-90990611D01*
X154086500Y-90985623D01*
X154147825Y-91019104D01*
X154163252Y-91037901D01*
X154178212Y-91060291D01*
X154289707Y-91171786D01*
X154289711Y-91171789D01*
X154420814Y-91259390D01*
X154420827Y-91259397D01*
X154543382Y-91310160D01*
X154566503Y-91319737D01*
X154721153Y-91350499D01*
X154721156Y-91350500D01*
X154721158Y-91350500D01*
X154878844Y-91350500D01*
X154878845Y-91350499D01*
X155033497Y-91319737D01*
X155179179Y-91259394D01*
X155310289Y-91171789D01*
X155421789Y-91060289D01*
X155509394Y-90929179D01*
X155569737Y-90783497D01*
X155600500Y-90628842D01*
X155600500Y-90471158D01*
X155600500Y-90471155D01*
X155600499Y-90471153D01*
X155569738Y-90316510D01*
X155569737Y-90316503D01*
X155569735Y-90316498D01*
X155509397Y-90170827D01*
X155509390Y-90170814D01*
X155421789Y-90039711D01*
X155421786Y-90039707D01*
X155310292Y-89928213D01*
X155310288Y-89928210D01*
X155179185Y-89840609D01*
X155179172Y-89840602D01*
X155033501Y-89780264D01*
X155033489Y-89780261D01*
X154878845Y-89749500D01*
X154878842Y-89749500D01*
X154721158Y-89749500D01*
X154721155Y-89749500D01*
X154566510Y-89780261D01*
X154560676Y-89782031D01*
X154559854Y-89779322D01*
X154502398Y-89785460D01*
X154439941Y-89754142D01*
X154404330Y-89694028D01*
X154400499Y-89663445D01*
X154400499Y-88252129D01*
X154400498Y-88252123D01*
X154400497Y-88252116D01*
X154394091Y-88192517D01*
X154393261Y-88190292D01*
X154343797Y-88057671D01*
X154343793Y-88057664D01*
X154257547Y-87942455D01*
X154257544Y-87942452D01*
X154142335Y-87856206D01*
X154142328Y-87856202D01*
X154007482Y-87805908D01*
X154007483Y-87805908D01*
X153947883Y-87799501D01*
X153947881Y-87799500D01*
X153947873Y-87799500D01*
X153947864Y-87799500D01*
X151652129Y-87799500D01*
X151652123Y-87799501D01*
X151592516Y-87805908D01*
X151457671Y-87856202D01*
X151457664Y-87856206D01*
X151342455Y-87942452D01*
X151342452Y-87942455D01*
X151273766Y-88034208D01*
X151217832Y-88076079D01*
X151148141Y-88081063D01*
X151086818Y-88047577D01*
X151053334Y-87986254D01*
X151050500Y-87959897D01*
X151050500Y-84067527D01*
X151050500Y-84067525D01*
X151012984Y-83927515D01*
X151012982Y-83927512D01*
X151012982Y-83927510D01*
X151012981Y-83927509D01*
X150991037Y-83889501D01*
X150991035Y-83889499D01*
X150956395Y-83829500D01*
X150940510Y-83801985D01*
X149936819Y-82798294D01*
X149903334Y-82736971D01*
X149900500Y-82710613D01*
X149900500Y-82661155D01*
X149900499Y-82661153D01*
X149869738Y-82506510D01*
X149869737Y-82506503D01*
X149869735Y-82506498D01*
X149809397Y-82360827D01*
X149809390Y-82360814D01*
X149721789Y-82229711D01*
X149721786Y-82229707D01*
X149644260Y-82152181D01*
X149610775Y-82090858D01*
X149615759Y-82021166D01*
X149657631Y-81965233D01*
X149723095Y-81940816D01*
X149731941Y-81940500D01*
X149808844Y-81940500D01*
X149808845Y-81940499D01*
X149963497Y-81909737D01*
X150065477Y-81867495D01*
X150134944Y-81860027D01*
X150160380Y-81867496D01*
X150262363Y-81909738D01*
X150286503Y-81919737D01*
X150392474Y-81940816D01*
X150441153Y-81950499D01*
X150441156Y-81950500D01*
X150441158Y-81950500D01*
X150598844Y-81950500D01*
X150598845Y-81950499D01*
X150753497Y-81919737D01*
X150899179Y-81859394D01*
X151030289Y-81771789D01*
X151141789Y-81660289D01*
X151229394Y-81529179D01*
X151289737Y-81383497D01*
X151320500Y-81228842D01*
X151320500Y-81071158D01*
X151320500Y-81071155D01*
X151320499Y-81071153D01*
X151289738Y-80916510D01*
X151289737Y-80916503D01*
X151253427Y-80828842D01*
X151229397Y-80770827D01*
X151229390Y-80770814D01*
X151141789Y-80639711D01*
X151141786Y-80639707D01*
X151106819Y-80604740D01*
X151073334Y-80543417D01*
X151070500Y-80517059D01*
X151070500Y-79921576D01*
X151090185Y-79854537D01*
X151106819Y-79833895D01*
X151371000Y-79569714D01*
X151641510Y-79299204D01*
X151713984Y-79173674D01*
X151724002Y-79136286D01*
X151751500Y-79033664D01*
X151751500Y-76974838D01*
X151771185Y-76907799D01*
X151823989Y-76862044D01*
X151893147Y-76852100D01*
X151922952Y-76860277D01*
X152016062Y-76898844D01*
X152066503Y-76919737D01*
X152216131Y-76949500D01*
X152221153Y-76950499D01*
X152221156Y-76950500D01*
X152221158Y-76950500D01*
X152378844Y-76950500D01*
X152378845Y-76950499D01*
X152533497Y-76919737D01*
X152679179Y-76859394D01*
X152810289Y-76771789D01*
X152921789Y-76660289D01*
X153009394Y-76529179D01*
X153069737Y-76383497D01*
X153100500Y-76228842D01*
X153100500Y-76071158D01*
X153100500Y-76071155D01*
X153100499Y-76071153D01*
X153096343Y-76050261D01*
X153069737Y-75916503D01*
X153069735Y-75916498D01*
X153009397Y-75770827D01*
X153009390Y-75770814D01*
X152951354Y-75683957D01*
X152921789Y-75639711D01*
X152921786Y-75639707D01*
X152903232Y-75621153D01*
X153689500Y-75621153D01*
X153689500Y-75778846D01*
X153720261Y-75933489D01*
X153720264Y-75933501D01*
X153780602Y-76079172D01*
X153780609Y-76079185D01*
X153868210Y-76210288D01*
X153868213Y-76210292D01*
X153903180Y-76245258D01*
X153936666Y-76306580D01*
X153939500Y-76332940D01*
X153939500Y-86232474D01*
X153963114Y-86320605D01*
X153977014Y-86372480D01*
X153977016Y-86372485D01*
X154033982Y-86471155D01*
X154049490Y-86498015D01*
X154049493Y-86498018D01*
X154053872Y-86503724D01*
X154079070Y-86568892D01*
X154079500Y-86579216D01*
X154079500Y-86628846D01*
X154110261Y-86783489D01*
X154110264Y-86783501D01*
X154170602Y-86929172D01*
X154170609Y-86929185D01*
X154258210Y-87060288D01*
X154258213Y-87060292D01*
X154369707Y-87171786D01*
X154369711Y-87171789D01*
X154500814Y-87259390D01*
X154500827Y-87259397D01*
X154645931Y-87319500D01*
X154646503Y-87319737D01*
X154799967Y-87350263D01*
X154801153Y-87350499D01*
X154801156Y-87350500D01*
X154801158Y-87350500D01*
X154958844Y-87350500D01*
X154958845Y-87350499D01*
X155113497Y-87319737D01*
X155259179Y-87259394D01*
X155390289Y-87171789D01*
X155501789Y-87060289D01*
X155589394Y-86929179D01*
X155649737Y-86783497D01*
X155680500Y-86628842D01*
X155680500Y-86471158D01*
X155680500Y-86471155D01*
X155680499Y-86471153D01*
X155678338Y-86460288D01*
X155649737Y-86316503D01*
X155638879Y-86290289D01*
X155589397Y-86170827D01*
X155589390Y-86170814D01*
X155501789Y-86039711D01*
X155501786Y-86039707D01*
X155390292Y-85928213D01*
X155390288Y-85928210D01*
X155259185Y-85840609D01*
X155259176Y-85840604D01*
X155117047Y-85781733D01*
X155062644Y-85737892D01*
X155040579Y-85671598D01*
X155040500Y-85667172D01*
X155040500Y-76332940D01*
X155060185Y-76265901D01*
X155076820Y-76245258D01*
X155111786Y-76210292D01*
X155111789Y-76210289D01*
X155199394Y-76079179D01*
X155202719Y-76071153D01*
X155259735Y-75933501D01*
X155259737Y-75933497D01*
X155290500Y-75778842D01*
X155290500Y-75621158D01*
X155290500Y-75621155D01*
X155290499Y-75621153D01*
X155272012Y-75528213D01*
X155259737Y-75466503D01*
X155251738Y-75447191D01*
X155199397Y-75320827D01*
X155199390Y-75320814D01*
X155111789Y-75189711D01*
X155111786Y-75189707D01*
X155000292Y-75078213D01*
X155000288Y-75078210D01*
X154869185Y-74990609D01*
X154869172Y-74990602D01*
X154723501Y-74930264D01*
X154723489Y-74930261D01*
X154568845Y-74899500D01*
X154568842Y-74899500D01*
X154411158Y-74899500D01*
X154411155Y-74899500D01*
X154256510Y-74930261D01*
X154256498Y-74930264D01*
X154110827Y-74990602D01*
X154110814Y-74990609D01*
X153979711Y-75078210D01*
X153979707Y-75078213D01*
X153868213Y-75189707D01*
X153868210Y-75189711D01*
X153780609Y-75320814D01*
X153780602Y-75320827D01*
X153720264Y-75466498D01*
X153720261Y-75466510D01*
X153689500Y-75621153D01*
X152903232Y-75621153D01*
X152810292Y-75528213D01*
X152810288Y-75528210D01*
X152679185Y-75440609D01*
X152679172Y-75440602D01*
X152533501Y-75380264D01*
X152533489Y-75380261D01*
X152378845Y-75349500D01*
X152378842Y-75349500D01*
X152221158Y-75349500D01*
X152221155Y-75349500D01*
X152066510Y-75380261D01*
X152066498Y-75380264D01*
X151922952Y-75439722D01*
X151853482Y-75447191D01*
X151791003Y-75415915D01*
X151755352Y-75355826D01*
X151751500Y-75325161D01*
X151751500Y-72920817D01*
X164359500Y-72920817D01*
X164359500Y-73059183D01*
X164389504Y-73171158D01*
X164395312Y-73192835D01*
X164395313Y-73192838D01*
X164464492Y-73312661D01*
X164464494Y-73312664D01*
X164464495Y-73312665D01*
X164562335Y-73410505D01*
X164682164Y-73479688D01*
X164815817Y-73515500D01*
X164815819Y-73515500D01*
X164954181Y-73515500D01*
X164954183Y-73515500D01*
X165087836Y-73479688D01*
X165207665Y-73410505D01*
X165305505Y-73312665D01*
X165374688Y-73192836D01*
X165410500Y-73059183D01*
X165410500Y-72920817D01*
X165374688Y-72787164D01*
X165319061Y-72690814D01*
X165305507Y-72667338D01*
X165305503Y-72667333D01*
X165207666Y-72569496D01*
X165207661Y-72569492D01*
X165087838Y-72500313D01*
X165087837Y-72500312D01*
X165087836Y-72500312D01*
X164954183Y-72464500D01*
X164815817Y-72464500D01*
X164682164Y-72500312D01*
X164682161Y-72500313D01*
X164562338Y-72569492D01*
X164562333Y-72569496D01*
X164464496Y-72667333D01*
X164464492Y-72667338D01*
X164395313Y-72787161D01*
X164395312Y-72787164D01*
X164359500Y-72920817D01*
X151751500Y-72920817D01*
X151751500Y-72342902D01*
X151760939Y-72295450D01*
X151819735Y-72153501D01*
X151819737Y-72153497D01*
X151850500Y-71998842D01*
X151850500Y-71841158D01*
X151850500Y-71841155D01*
X151850499Y-71841153D01*
X151839029Y-71783489D01*
X151819737Y-71686503D01*
X151808879Y-71660289D01*
X151759397Y-71540827D01*
X151759390Y-71540814D01*
X151671789Y-71409711D01*
X151671786Y-71409707D01*
X151560292Y-71298213D01*
X151560288Y-71298210D01*
X151429185Y-71210609D01*
X151429172Y-71210602D01*
X151283501Y-71150264D01*
X151283489Y-71150261D01*
X151128845Y-71119500D01*
X151128842Y-71119500D01*
X150971158Y-71119500D01*
X150971155Y-71119500D01*
X150816510Y-71150261D01*
X150816498Y-71150264D01*
X150670827Y-71210602D01*
X150670814Y-71210609D01*
X150539711Y-71298210D01*
X150539707Y-71298213D01*
X150428213Y-71409707D01*
X150428210Y-71409711D01*
X150340609Y-71540814D01*
X150340602Y-71540827D01*
X150280264Y-71686498D01*
X150280261Y-71686510D01*
X150249500Y-71841153D01*
X150249500Y-71998846D01*
X150280261Y-72153489D01*
X150280264Y-72153501D01*
X150340602Y-72299172D01*
X150340609Y-72299185D01*
X150428210Y-72430288D01*
X150428213Y-72430292D01*
X150539705Y-72541784D01*
X150539708Y-72541786D01*
X150539711Y-72541789D01*
X150595392Y-72578993D01*
X150640195Y-72632603D01*
X150650500Y-72682094D01*
X150650500Y-78681802D01*
X150630815Y-78748841D01*
X150614181Y-78769483D01*
X150079491Y-79304172D01*
X150079487Y-79304177D01*
X150009240Y-79425849D01*
X150009241Y-79425850D01*
X150009237Y-79425857D01*
X150007016Y-79429704D01*
X149969500Y-79569714D01*
X149969500Y-79569716D01*
X149969500Y-80220362D01*
X149965965Y-80232399D01*
X149967048Y-80244900D01*
X149956307Y-80265290D01*
X149949815Y-80287401D01*
X149940333Y-80295616D01*
X149934486Y-80306718D01*
X149914427Y-80318064D01*
X149897011Y-80333156D01*
X149883131Y-80335767D01*
X149873672Y-80341119D01*
X149852879Y-80341460D01*
X149838510Y-80344165D01*
X149829830Y-80343674D01*
X149808842Y-80339500D01*
X149755886Y-80339500D01*
X149752397Y-80339303D01*
X149722644Y-80328711D01*
X149692348Y-80319815D01*
X149688147Y-80316430D01*
X149686574Y-80315870D01*
X149685126Y-80313995D01*
X149671706Y-80303181D01*
X149356819Y-79988294D01*
X149323334Y-79926971D01*
X149320500Y-79900613D01*
X149320500Y-73702940D01*
X149340185Y-73635901D01*
X149356820Y-73615258D01*
X149391786Y-73580292D01*
X149391789Y-73580289D01*
X149479394Y-73449179D01*
X149539737Y-73303497D01*
X149570500Y-73148842D01*
X149570500Y-72991158D01*
X149570500Y-72991155D01*
X149570499Y-72991153D01*
X149557040Y-72923489D01*
X149539737Y-72836503D01*
X149480489Y-72693464D01*
X149479397Y-72690827D01*
X149479390Y-72690814D01*
X149391789Y-72559711D01*
X149391786Y-72559707D01*
X149280292Y-72448213D01*
X149280288Y-72448210D01*
X149149185Y-72360609D01*
X149149172Y-72360602D01*
X149003501Y-72300264D01*
X149003491Y-72300261D01*
X148850308Y-72269791D01*
X148788397Y-72237406D01*
X148753823Y-72176690D01*
X148750500Y-72148174D01*
X148750500Y-70339386D01*
X148770185Y-70272347D01*
X148786814Y-70251710D01*
X150412359Y-68626164D01*
X150473680Y-68592681D01*
X150543372Y-68597665D01*
X150599305Y-68639537D01*
X150614599Y-68666394D01*
X150640604Y-68729175D01*
X150640609Y-68729185D01*
X150728210Y-68860288D01*
X150728213Y-68860292D01*
X150839707Y-68971786D01*
X150839711Y-68971789D01*
X150970814Y-69059390D01*
X150970827Y-69059397D01*
X151116498Y-69119735D01*
X151116503Y-69119737D01*
X151271153Y-69150499D01*
X151271156Y-69150500D01*
X151271158Y-69150500D01*
X151428844Y-69150500D01*
X151428845Y-69150499D01*
X151583497Y-69119737D01*
X151729179Y-69059394D01*
X151860289Y-68971789D01*
X151971789Y-68860289D01*
X152059394Y-68729179D01*
X152119737Y-68583497D01*
X152150500Y-68428842D01*
X152150500Y-68271158D01*
X152150500Y-68271155D01*
X152150499Y-68271153D01*
X152149630Y-68266786D01*
X152119737Y-68116503D01*
X152092398Y-68050500D01*
X152059397Y-67970827D01*
X152059390Y-67970814D01*
X151971789Y-67839711D01*
X151971786Y-67839707D01*
X151860292Y-67728213D01*
X151860288Y-67728210D01*
X151729185Y-67640609D01*
X151729175Y-67640604D01*
X151666394Y-67614599D01*
X151611990Y-67570757D01*
X151589926Y-67504463D01*
X151607206Y-67436764D01*
X151626162Y-67412361D01*
X151897706Y-67140817D01*
X164359500Y-67140817D01*
X164359500Y-67279183D01*
X164394954Y-67411498D01*
X164395312Y-67412835D01*
X164395313Y-67412838D01*
X164464492Y-67532661D01*
X164464494Y-67532664D01*
X164464495Y-67532665D01*
X164562335Y-67630505D01*
X164562336Y-67630506D01*
X164562338Y-67630507D01*
X164622249Y-67665096D01*
X164682164Y-67699688D01*
X164815817Y-67735500D01*
X164815819Y-67735500D01*
X164954181Y-67735500D01*
X164954183Y-67735500D01*
X165087836Y-67699688D01*
X165207665Y-67630505D01*
X165305505Y-67532665D01*
X165374688Y-67412836D01*
X165410500Y-67279183D01*
X165410500Y-67140817D01*
X165374688Y-67007164D01*
X165305505Y-66887335D01*
X165207665Y-66789495D01*
X165207664Y-66789494D01*
X165207661Y-66789492D01*
X165087838Y-66720313D01*
X165087837Y-66720312D01*
X165087836Y-66720312D01*
X164954183Y-66684500D01*
X164815817Y-66684500D01*
X164682164Y-66720312D01*
X164682161Y-66720313D01*
X164562338Y-66789492D01*
X164562333Y-66789496D01*
X164464496Y-66887333D01*
X164464492Y-66887338D01*
X164395313Y-67007161D01*
X164395312Y-67007164D01*
X164359500Y-67140817D01*
X151897706Y-67140817D01*
X158100510Y-60938015D01*
X158172984Y-60812485D01*
X158210500Y-60672475D01*
X158210500Y-58903650D01*
X158230185Y-58836611D01*
X158246814Y-58815973D01*
X158320626Y-58742162D01*
X158413703Y-58602863D01*
X158477816Y-58448082D01*
X158510500Y-58283767D01*
X158510500Y-58116233D01*
X158477816Y-57951918D01*
X158413703Y-57797137D01*
X158382537Y-57750494D01*
X158320626Y-57657837D01*
X158202164Y-57539375D01*
X158178638Y-57523656D01*
X158123740Y-57486974D01*
X158078936Y-57433364D01*
X158070229Y-57364039D01*
X158100383Y-57301011D01*
X158145180Y-57269312D01*
X158182858Y-57253705D01*
X158182863Y-57253703D01*
X158322162Y-57160626D01*
X158440626Y-57042162D01*
X158533703Y-56902863D01*
X158597816Y-56748082D01*
X158630500Y-56583767D01*
X158630500Y-56416233D01*
X158597816Y-56251918D01*
X158533703Y-56097137D01*
X158502537Y-56050494D01*
X158440626Y-55957837D01*
X158322162Y-55839373D01*
X158182860Y-55746295D01*
X158028082Y-55682184D01*
X158028074Y-55682182D01*
X157863771Y-55649500D01*
X157863767Y-55649500D01*
X157696233Y-55649500D01*
X157696228Y-55649500D01*
X157531925Y-55682182D01*
X157531917Y-55682184D01*
X157377139Y-55746295D01*
X157237837Y-55839373D01*
X157119373Y-55957837D01*
X157026295Y-56097139D01*
X156962184Y-56251917D01*
X156962182Y-56251925D01*
X156929500Y-56416228D01*
X156929500Y-56520613D01*
X156909815Y-56587652D01*
X156893181Y-56608294D01*
X156339491Y-57161983D01*
X156339487Y-57161988D01*
X156286536Y-57253702D01*
X156286537Y-57253703D01*
X156267016Y-57287513D01*
X156250139Y-57350500D01*
X156229500Y-57427525D01*
X156229500Y-57427527D01*
X156229500Y-60220613D01*
X156209815Y-60287652D01*
X156193181Y-60308294D01*
X155562181Y-60939294D01*
X155500858Y-60972779D01*
X155431166Y-60967795D01*
X155375233Y-60925923D01*
X155350816Y-60860459D01*
X155350500Y-60851613D01*
X155350500Y-60721155D01*
X155350499Y-60721153D01*
X155319738Y-60566510D01*
X155319737Y-60566503D01*
X155319735Y-60566498D01*
X155259397Y-60420827D01*
X155259390Y-60420814D01*
X155171789Y-60289711D01*
X155171786Y-60289707D01*
X155060292Y-60178213D01*
X155060288Y-60178210D01*
X154929185Y-60090609D01*
X154929172Y-60090602D01*
X154783501Y-60030264D01*
X154783489Y-60030261D01*
X154628845Y-59999500D01*
X154628842Y-59999500D01*
X154471158Y-59999500D01*
X154471155Y-59999500D01*
X154316510Y-60030261D01*
X154316498Y-60030264D01*
X154170827Y-60090602D01*
X154170814Y-60090609D01*
X154039711Y-60178210D01*
X154039707Y-60178213D01*
X153928213Y-60289707D01*
X153928210Y-60289711D01*
X153840609Y-60420814D01*
X153840602Y-60420827D01*
X153780264Y-60566498D01*
X153780261Y-60566510D01*
X153749500Y-60721153D01*
X153749500Y-60878846D01*
X153780261Y-61033489D01*
X153780264Y-61033501D01*
X153840602Y-61179172D01*
X153840609Y-61179185D01*
X153928210Y-61310288D01*
X153928213Y-61310292D01*
X154039707Y-61421786D01*
X154039711Y-61421789D01*
X154170814Y-61509390D01*
X154170827Y-61509397D01*
X154316498Y-61569735D01*
X154316503Y-61569737D01*
X154471153Y-61600499D01*
X154471156Y-61600500D01*
X154601613Y-61600500D01*
X154668652Y-61620185D01*
X154714407Y-61672989D01*
X154724351Y-61742147D01*
X154695326Y-61805703D01*
X154689294Y-61812181D01*
X146979491Y-69521983D01*
X146979487Y-69521988D01*
X146921472Y-69622475D01*
X146917797Y-69628842D01*
X146907016Y-69647515D01*
X146869500Y-69787525D01*
X146869500Y-69787527D01*
X146869500Y-76187059D01*
X146849815Y-76254098D01*
X146833181Y-76274740D01*
X146798213Y-76309707D01*
X146798210Y-76309711D01*
X146710609Y-76440814D01*
X146710602Y-76440827D01*
X146650264Y-76586498D01*
X146650261Y-76586510D01*
X146619500Y-76741153D01*
X146619500Y-76898846D01*
X146650261Y-77053489D01*
X146650264Y-77053501D01*
X146710602Y-77199172D01*
X146710609Y-77199185D01*
X146798210Y-77330288D01*
X146798213Y-77330292D01*
X146909707Y-77441786D01*
X146909711Y-77441789D01*
X147040814Y-77529390D01*
X147040827Y-77529397D01*
X147186498Y-77589735D01*
X147186503Y-77589737D01*
X147341153Y-77620499D01*
X147341156Y-77620500D01*
X147341158Y-77620500D01*
X147498844Y-77620500D01*
X147498845Y-77620499D01*
X147653497Y-77589737D01*
X147799179Y-77529394D01*
X147930289Y-77441789D01*
X147974550Y-77397527D01*
X147981515Y-77393723D01*
X147986159Y-77387284D01*
X148011744Y-77377217D01*
X148035872Y-77364042D01*
X148045447Y-77363956D01*
X148051177Y-77361702D01*
X148086419Y-77363589D01*
X148119691Y-77370208D01*
X148181601Y-77402591D01*
X148216176Y-77463306D01*
X148219500Y-77491825D01*
X148219500Y-78369107D01*
X148199815Y-78436146D01*
X148147011Y-78481901D01*
X148077853Y-78491845D01*
X148026610Y-78472209D01*
X147972865Y-78436298D01*
X147972861Y-78436296D01*
X147818082Y-78372184D01*
X147818074Y-78372182D01*
X147653771Y-78339500D01*
X147653767Y-78339500D01*
X147503465Y-78339500D01*
X147436426Y-78319815D01*
X147415709Y-78301369D01*
X147414934Y-78302145D01*
X147292162Y-78179373D01*
X147152860Y-78086295D01*
X146998082Y-78022184D01*
X146998074Y-78022182D01*
X146833771Y-77989500D01*
X146833767Y-77989500D01*
X146666233Y-77989500D01*
X146666228Y-77989500D01*
X146501925Y-78022182D01*
X146501917Y-78022184D01*
X146347139Y-78086295D01*
X146207838Y-78179373D01*
X146193950Y-78193261D01*
X146132626Y-78226744D01*
X146062934Y-78221758D01*
X146037381Y-78208679D01*
X145897865Y-78115458D01*
X145897861Y-78115456D01*
X145743082Y-78051344D01*
X145743074Y-78051342D01*
X145578771Y-78018660D01*
X145578767Y-78018660D01*
X145411233Y-78018660D01*
X145411228Y-78018660D01*
X145246925Y-78051342D01*
X145246917Y-78051344D01*
X145092139Y-78115455D01*
X144952837Y-78208533D01*
X144834376Y-78326994D01*
X144834371Y-78327000D01*
X144807664Y-78366970D01*
X144754051Y-78411775D01*
X144684726Y-78420481D01*
X144680372Y-78419695D01*
X144578845Y-78399500D01*
X144578842Y-78399500D01*
X144421158Y-78399500D01*
X144421155Y-78399500D01*
X144266510Y-78430261D01*
X144266498Y-78430264D01*
X144120827Y-78490602D01*
X144120814Y-78490609D01*
X143989711Y-78578210D01*
X143989707Y-78578213D01*
X143878213Y-78689707D01*
X143878210Y-78689711D01*
X143790609Y-78820814D01*
X143790602Y-78820827D01*
X143730264Y-78966498D01*
X143730261Y-78966510D01*
X143699500Y-79121153D01*
X143699500Y-79265547D01*
X143693261Y-79286792D01*
X143691682Y-79308880D01*
X143683609Y-79319663D01*
X143679815Y-79332586D01*
X143663083Y-79347084D01*
X143649811Y-79364814D01*
X143637188Y-79369521D01*
X143627011Y-79378341D01*
X143605095Y-79381492D01*
X143584347Y-79389231D01*
X143571185Y-79386368D01*
X143557853Y-79388285D01*
X143537711Y-79379086D01*
X143516074Y-79374380D01*
X143498345Y-79361108D01*
X143494297Y-79359260D01*
X143487819Y-79353229D01*
X143467176Y-79332586D01*
X143423020Y-79288430D01*
X143389537Y-79227110D01*
X143394521Y-79157418D01*
X143407603Y-79131858D01*
X143409394Y-79129179D01*
X143412719Y-79121153D01*
X143426288Y-79088394D01*
X143469737Y-78983497D01*
X143500500Y-78828842D01*
X143500500Y-78671158D01*
X143500500Y-78671155D01*
X143500499Y-78671153D01*
X143482012Y-78578213D01*
X143469737Y-78516503D01*
X143469735Y-78516498D01*
X143409397Y-78370827D01*
X143409390Y-78370814D01*
X143321789Y-78239711D01*
X143321786Y-78239707D01*
X143210292Y-78128213D01*
X143210288Y-78128210D01*
X143079185Y-78040609D01*
X143079172Y-78040602D01*
X142933501Y-77980264D01*
X142933489Y-77980261D01*
X142778845Y-77949500D01*
X142778842Y-77949500D01*
X142621158Y-77949500D01*
X142621155Y-77949500D01*
X142466510Y-77980261D01*
X142466498Y-77980264D01*
X142320827Y-78040602D01*
X142320814Y-78040609D01*
X142189711Y-78128210D01*
X142189707Y-78128213D01*
X142078213Y-78239707D01*
X142078210Y-78239711D01*
X141990609Y-78370814D01*
X141990602Y-78370827D01*
X141930264Y-78516498D01*
X141930261Y-78516510D01*
X141899500Y-78671153D01*
X141899500Y-78828846D01*
X141930261Y-78983489D01*
X141930264Y-78983501D01*
X141990602Y-79129172D01*
X141990609Y-79129184D01*
X142053602Y-79223459D01*
X142074480Y-79290136D01*
X142074500Y-79292350D01*
X142074500Y-79511611D01*
X142098535Y-79632444D01*
X142098540Y-79632461D01*
X142145685Y-79746280D01*
X142145692Y-79746292D01*
X142174626Y-79789597D01*
X142174634Y-79789607D01*
X142179097Y-79796285D01*
X142214142Y-79848733D01*
X142301267Y-79935858D01*
X142301269Y-79935859D01*
X142311271Y-79945861D01*
X144199063Y-81833653D01*
X144232548Y-81894976D01*
X144235382Y-81921334D01*
X144235382Y-131128665D01*
X144215697Y-131195704D01*
X144199063Y-131216346D01*
X141452227Y-133963181D01*
X141390904Y-133996666D01*
X141364546Y-133999500D01*
X139399998Y-133999500D01*
X139399981Y-133999501D01*
X139297203Y-134010000D01*
X139297200Y-134010001D01*
X139130668Y-134065185D01*
X139130663Y-134065187D01*
X138981342Y-134157289D01*
X138857289Y-134281342D01*
X138765187Y-134430663D01*
X138765185Y-134430668D01*
X138760962Y-134443412D01*
X138710001Y-134597203D01*
X138710001Y-134597204D01*
X138710000Y-134597204D01*
X138699500Y-134699983D01*
X126930036Y-134699983D01*
X126908606Y-134620007D01*
X126818284Y-134401951D01*
X126818282Y-134401948D01*
X126818280Y-134401943D01*
X126776118Y-134328918D01*
X126700273Y-134197550D01*
X126618817Y-134091394D01*
X126556593Y-134010302D01*
X126556587Y-134010295D01*
X126389704Y-133843412D01*
X126389697Y-133843406D01*
X126202454Y-133699730D01*
X126202453Y-133699729D01*
X126202450Y-133699727D01*
X126120957Y-133652677D01*
X125998056Y-133581719D01*
X125998045Y-133581714D01*
X125779993Y-133491394D01*
X125552010Y-133430306D01*
X125318020Y-133399501D01*
X125318017Y-133399500D01*
X125318011Y-133399500D01*
X125081989Y-133399500D01*
X125081983Y-133399500D01*
X125081979Y-133399501D01*
X124847989Y-133430306D01*
X124620006Y-133491394D01*
X124401954Y-133581714D01*
X124401943Y-133581719D01*
X124197545Y-133699730D01*
X124010302Y-133843406D01*
X124010295Y-133843412D01*
X123843412Y-134010295D01*
X123843406Y-134010302D01*
X123699730Y-134197545D01*
X123581719Y-134401943D01*
X123581714Y-134401954D01*
X123491394Y-134620006D01*
X123430306Y-134847989D01*
X123399501Y-135081979D01*
X123399500Y-135081995D01*
X121400500Y-135081995D01*
X121400500Y-130682014D01*
X138700000Y-130682014D01*
X138700000Y-130917985D01*
X138730799Y-131151914D01*
X138791870Y-131379837D01*
X138882160Y-131597819D01*
X138882165Y-131597828D01*
X139000144Y-131802171D01*
X139000145Y-131802172D01*
X139062721Y-131883723D01*
X139898958Y-131047487D01*
X139923978Y-131107890D01*
X139995112Y-131214351D01*
X140085649Y-131304888D01*
X140192110Y-131376022D01*
X140252511Y-131401041D01*
X139416275Y-132237277D01*
X139497827Y-132299854D01*
X139497828Y-132299855D01*
X139702171Y-132417834D01*
X139702180Y-132417839D01*
X139920163Y-132508129D01*
X139920161Y-132508129D01*
X140148085Y-132569200D01*
X140382014Y-132599999D01*
X140382029Y-132600000D01*
X140617971Y-132600000D01*
X140617985Y-132599999D01*
X140851914Y-132569200D01*
X141079837Y-132508129D01*
X141297819Y-132417839D01*
X141297828Y-132417834D01*
X141502181Y-132299850D01*
X141583723Y-132237279D01*
X141583723Y-132237276D01*
X140747487Y-131401041D01*
X140807890Y-131376022D01*
X140914351Y-131304888D01*
X141004888Y-131214351D01*
X141076022Y-131107890D01*
X141101041Y-131047488D01*
X141937276Y-131883723D01*
X141937279Y-131883723D01*
X141999850Y-131802181D01*
X142117834Y-131597828D01*
X142117839Y-131597819D01*
X142208129Y-131379837D01*
X142269200Y-131151914D01*
X142299999Y-130917985D01*
X142300000Y-130917971D01*
X142300000Y-130682028D01*
X142299999Y-130682014D01*
X142269200Y-130448085D01*
X142208129Y-130220162D01*
X142117839Y-130002180D01*
X142117834Y-130002171D01*
X141999855Y-129797828D01*
X141999854Y-129797827D01*
X141937277Y-129716275D01*
X141101041Y-130552511D01*
X141076022Y-130492110D01*
X141004888Y-130385649D01*
X140914351Y-130295112D01*
X140807890Y-130223978D01*
X140747488Y-130198958D01*
X141583723Y-129362721D01*
X141502172Y-129300145D01*
X141502171Y-129300144D01*
X141297828Y-129182165D01*
X141297819Y-129182160D01*
X141079836Y-129091870D01*
X141079838Y-129091870D01*
X140851914Y-129030799D01*
X140617985Y-129000000D01*
X140382014Y-129000000D01*
X140148085Y-129030799D01*
X139920162Y-129091870D01*
X139702180Y-129182160D01*
X139702171Y-129182165D01*
X139497828Y-129300144D01*
X139497818Y-129300150D01*
X139416275Y-129362720D01*
X139416275Y-129362721D01*
X140252512Y-130198958D01*
X140192110Y-130223978D01*
X140085649Y-130295112D01*
X139995112Y-130385649D01*
X139923978Y-130492110D01*
X139898958Y-130552511D01*
X139062721Y-129716275D01*
X139062720Y-129716275D01*
X139000150Y-129797818D01*
X139000144Y-129797828D01*
X138882165Y-130002171D01*
X138882160Y-130002180D01*
X138791870Y-130220162D01*
X138730799Y-130448085D01*
X138700000Y-130682014D01*
X121400500Y-130682014D01*
X121400500Y-125681995D01*
X138699500Y-125681995D01*
X138699500Y-125918004D01*
X138699501Y-125918020D01*
X138730306Y-126152010D01*
X138791394Y-126379993D01*
X138881714Y-126598045D01*
X138881719Y-126598056D01*
X138952677Y-126720957D01*
X138999727Y-126802450D01*
X138999729Y-126802453D01*
X138999730Y-126802454D01*
X139143406Y-126989697D01*
X139143412Y-126989704D01*
X139310295Y-127156587D01*
X139310301Y-127156592D01*
X139497550Y-127300273D01*
X139628918Y-127376118D01*
X139701943Y-127418280D01*
X139701948Y-127418282D01*
X139701951Y-127418284D01*
X139920007Y-127508606D01*
X140147986Y-127569693D01*
X140381989Y-127600500D01*
X140381996Y-127600500D01*
X140618004Y-127600500D01*
X140618011Y-127600500D01*
X140852014Y-127569693D01*
X141079993Y-127508606D01*
X141298049Y-127418284D01*
X141502450Y-127300273D01*
X141689699Y-127156592D01*
X141856592Y-126989699D01*
X142000273Y-126802450D01*
X142118284Y-126598049D01*
X142208606Y-126379993D01*
X142269693Y-126152014D01*
X142300500Y-125918011D01*
X142300500Y-125681989D01*
X142269693Y-125447986D01*
X142208606Y-125220007D01*
X142118284Y-125001951D01*
X142118282Y-125001948D01*
X142118280Y-125001943D01*
X142076118Y-124928918D01*
X142000273Y-124797550D01*
X141856592Y-124610301D01*
X141856587Y-124610295D01*
X141689704Y-124443412D01*
X141689697Y-124443406D01*
X141502454Y-124299730D01*
X141502453Y-124299729D01*
X141502450Y-124299727D01*
X141420957Y-124252677D01*
X141298056Y-124181719D01*
X141298045Y-124181714D01*
X141079993Y-124091394D01*
X140852010Y-124030306D01*
X140618020Y-123999501D01*
X140618017Y-123999500D01*
X140618011Y-123999500D01*
X140381989Y-123999500D01*
X140381983Y-123999500D01*
X140381979Y-123999501D01*
X140147989Y-124030306D01*
X139920006Y-124091394D01*
X139701954Y-124181714D01*
X139701943Y-124181719D01*
X139497545Y-124299730D01*
X139310302Y-124443406D01*
X139310295Y-124443412D01*
X139143412Y-124610295D01*
X139143406Y-124610302D01*
X138999730Y-124797545D01*
X138881719Y-125001943D01*
X138881714Y-125001954D01*
X138791394Y-125220006D01*
X138730306Y-125447989D01*
X138699501Y-125681979D01*
X138699500Y-125681995D01*
X121400500Y-125681995D01*
X121400500Y-123611153D01*
X127819500Y-123611153D01*
X127819500Y-123768846D01*
X127850261Y-123923489D01*
X127850264Y-123923501D01*
X127910602Y-124069172D01*
X127910609Y-124069185D01*
X127998210Y-124200288D01*
X127998213Y-124200292D01*
X128109707Y-124311786D01*
X128109711Y-124311789D01*
X128240814Y-124399390D01*
X128240827Y-124399397D01*
X128386498Y-124459735D01*
X128386503Y-124459737D01*
X128541153Y-124490499D01*
X128541156Y-124490500D01*
X128541158Y-124490500D01*
X128698844Y-124490500D01*
X128698845Y-124490499D01*
X128853497Y-124459737D01*
X128999179Y-124399394D01*
X129130289Y-124311789D01*
X129241789Y-124200289D01*
X129329394Y-124069179D01*
X129389737Y-123923497D01*
X129420500Y-123768842D01*
X129420500Y-123611158D01*
X129420500Y-123611155D01*
X129420499Y-123611153D01*
X129389738Y-123456510D01*
X129389737Y-123456503D01*
X129389735Y-123456498D01*
X129329397Y-123310827D01*
X129329390Y-123310814D01*
X129241789Y-123179711D01*
X129241786Y-123179707D01*
X129130292Y-123068213D01*
X129130288Y-123068210D01*
X128999185Y-122980609D01*
X128999172Y-122980602D01*
X128853501Y-122920264D01*
X128853489Y-122920261D01*
X128698845Y-122889500D01*
X128698842Y-122889500D01*
X128541158Y-122889500D01*
X128541155Y-122889500D01*
X128386510Y-122920261D01*
X128386498Y-122920264D01*
X128240827Y-122980602D01*
X128240814Y-122980609D01*
X128109711Y-123068210D01*
X128109707Y-123068213D01*
X127998213Y-123179707D01*
X127998210Y-123179711D01*
X127910609Y-123310814D01*
X127910602Y-123310827D01*
X127850264Y-123456498D01*
X127850261Y-123456510D01*
X127819500Y-123611153D01*
X121400500Y-123611153D01*
X121400500Y-120681995D01*
X138699500Y-120681995D01*
X138699500Y-120918004D01*
X138699501Y-120918020D01*
X138721286Y-121083497D01*
X138730307Y-121152014D01*
X138750983Y-121229179D01*
X138791394Y-121379993D01*
X138881714Y-121598045D01*
X138881719Y-121598056D01*
X138938648Y-121696658D01*
X138999727Y-121802450D01*
X138999729Y-121802453D01*
X138999730Y-121802454D01*
X139143406Y-121989697D01*
X139143412Y-121989704D01*
X139310295Y-122156587D01*
X139310301Y-122156592D01*
X139497550Y-122300273D01*
X139628918Y-122376118D01*
X139701943Y-122418280D01*
X139701948Y-122418282D01*
X139701951Y-122418284D01*
X139920007Y-122508606D01*
X140147986Y-122569693D01*
X140381989Y-122600500D01*
X140381996Y-122600500D01*
X140618004Y-122600500D01*
X140618011Y-122600500D01*
X140852014Y-122569693D01*
X141079993Y-122508606D01*
X141298049Y-122418284D01*
X141502450Y-122300273D01*
X141689699Y-122156592D01*
X141856592Y-121989699D01*
X142000273Y-121802450D01*
X142118284Y-121598049D01*
X142208606Y-121379993D01*
X142269693Y-121152014D01*
X142300500Y-120918011D01*
X142300500Y-120681989D01*
X142269693Y-120447986D01*
X142208606Y-120220007D01*
X142118284Y-120001951D01*
X142118282Y-120001948D01*
X142118280Y-120001943D01*
X142071635Y-119921153D01*
X142000273Y-119797550D01*
X141856592Y-119610301D01*
X141856587Y-119610295D01*
X141689704Y-119443412D01*
X141689697Y-119443406D01*
X141502454Y-119299730D01*
X141502453Y-119299729D01*
X141502450Y-119299727D01*
X141420957Y-119252677D01*
X141298056Y-119181719D01*
X141298045Y-119181714D01*
X141079993Y-119091394D01*
X140852010Y-119030306D01*
X140618020Y-118999501D01*
X140618017Y-118999500D01*
X140618011Y-118999500D01*
X140381989Y-118999500D01*
X140381983Y-118999500D01*
X140381979Y-118999501D01*
X140147989Y-119030306D01*
X139920006Y-119091394D01*
X139701954Y-119181714D01*
X139701943Y-119181719D01*
X139497545Y-119299730D01*
X139310302Y-119443406D01*
X139310295Y-119443412D01*
X139143412Y-119610295D01*
X139143406Y-119610302D01*
X138999730Y-119797545D01*
X138881719Y-120001943D01*
X138881714Y-120001954D01*
X138791394Y-120220006D01*
X138730306Y-120447989D01*
X138699501Y-120681979D01*
X138699500Y-120681995D01*
X121400500Y-120681995D01*
X121400500Y-108198387D01*
X121420185Y-108131348D01*
X121472989Y-108085593D01*
X121542147Y-108075649D01*
X121605703Y-108104674D01*
X121612181Y-108110706D01*
X129983181Y-116481706D01*
X130016666Y-116543029D01*
X130019500Y-116569387D01*
X130019500Y-116673771D01*
X130052182Y-116838074D01*
X130052184Y-116838082D01*
X130116295Y-116992860D01*
X130209373Y-117132162D01*
X130327837Y-117250626D01*
X130420494Y-117312537D01*
X130467137Y-117343703D01*
X130621918Y-117407816D01*
X130786228Y-117440499D01*
X130786232Y-117440500D01*
X130786233Y-117440500D01*
X130953768Y-117440500D01*
X130953769Y-117440499D01*
X131118082Y-117407816D01*
X131272863Y-117343703D01*
X131412162Y-117250626D01*
X131530626Y-117132162D01*
X131623703Y-116992863D01*
X131687816Y-116838082D01*
X131720500Y-116673767D01*
X131720500Y-116506233D01*
X131687816Y-116341918D01*
X131623703Y-116187137D01*
X131550265Y-116077229D01*
X131530626Y-116047837D01*
X131412162Y-115929373D01*
X131272860Y-115836295D01*
X131167107Y-115792491D01*
X131118082Y-115772184D01*
X131118074Y-115772182D01*
X130953771Y-115739500D01*
X130953767Y-115739500D01*
X130849387Y-115739500D01*
X130782348Y-115719815D01*
X130761706Y-115703181D01*
X130740520Y-115681995D01*
X138699500Y-115681995D01*
X138699500Y-115918004D01*
X138699501Y-115918020D01*
X138730306Y-116152010D01*
X138791394Y-116379993D01*
X138881714Y-116598045D01*
X138881719Y-116598056D01*
X138925432Y-116673768D01*
X138999727Y-116802450D01*
X138999729Y-116802453D01*
X138999730Y-116802454D01*
X139143406Y-116989697D01*
X139143412Y-116989704D01*
X139310295Y-117156587D01*
X139310302Y-117156593D01*
X139420306Y-117241001D01*
X139497550Y-117300273D01*
X139621388Y-117371771D01*
X139701943Y-117418280D01*
X139701948Y-117418282D01*
X139701951Y-117418284D01*
X139920007Y-117508606D01*
X140147986Y-117569693D01*
X140381989Y-117600500D01*
X140381996Y-117600500D01*
X140618004Y-117600500D01*
X140618011Y-117600500D01*
X140852014Y-117569693D01*
X141079993Y-117508606D01*
X141298049Y-117418284D01*
X141502450Y-117300273D01*
X141689699Y-117156592D01*
X141856592Y-116989699D01*
X142000273Y-116802450D01*
X142118284Y-116598049D01*
X142208606Y-116379993D01*
X142269693Y-116152014D01*
X142300500Y-115918011D01*
X142300500Y-115681989D01*
X142269693Y-115447986D01*
X142208606Y-115220007D01*
X142118284Y-115001951D01*
X142118282Y-115001948D01*
X142118280Y-115001943D01*
X142071635Y-114921153D01*
X142000273Y-114797550D01*
X141856592Y-114610301D01*
X141856587Y-114610295D01*
X141689704Y-114443412D01*
X141689697Y-114443406D01*
X141502454Y-114299730D01*
X141502453Y-114299729D01*
X141502450Y-114299727D01*
X141420957Y-114252677D01*
X141298056Y-114181719D01*
X141298045Y-114181714D01*
X141079993Y-114091394D01*
X140852010Y-114030306D01*
X140618020Y-113999501D01*
X140618017Y-113999500D01*
X140618011Y-113999500D01*
X140381989Y-113999500D01*
X140381983Y-113999500D01*
X140381979Y-113999501D01*
X140147989Y-114030306D01*
X139920006Y-114091394D01*
X139701954Y-114181714D01*
X139701943Y-114181719D01*
X139497545Y-114299730D01*
X139310302Y-114443406D01*
X139310295Y-114443412D01*
X139143412Y-114610295D01*
X139143406Y-114610302D01*
X138999730Y-114797545D01*
X138999727Y-114797549D01*
X138999727Y-114797550D01*
X138992014Y-114810909D01*
X138881719Y-115001943D01*
X138881714Y-115001954D01*
X138791394Y-115220006D01*
X138730306Y-115447989D01*
X138699501Y-115681979D01*
X138699500Y-115681995D01*
X130740520Y-115681995D01*
X122586819Y-107528294D01*
X122553334Y-107466971D01*
X122550500Y-107440613D01*
X122550500Y-102598387D01*
X122570185Y-102531348D01*
X122622989Y-102485593D01*
X122692147Y-102475649D01*
X122755703Y-102504674D01*
X122762181Y-102510706D01*
X130639489Y-110388014D01*
X130639490Y-110388015D01*
X131131985Y-110880510D01*
X131131987Y-110880511D01*
X131131991Y-110880514D01*
X131231586Y-110938015D01*
X131231590Y-110938016D01*
X131244551Y-110945499D01*
X131257511Y-110952982D01*
X131257512Y-110952982D01*
X131257515Y-110952984D01*
X131397525Y-110990500D01*
X133616350Y-110990500D01*
X133683389Y-111010185D01*
X133704026Y-111026814D01*
X133777838Y-111100626D01*
X133917137Y-111193703D01*
X134071918Y-111257816D01*
X134236228Y-111290499D01*
X134236232Y-111290500D01*
X134236233Y-111290500D01*
X134403768Y-111290500D01*
X134403769Y-111290499D01*
X134568082Y-111257816D01*
X134722863Y-111193703D01*
X134862162Y-111100626D01*
X134980626Y-110982162D01*
X135073703Y-110842863D01*
X135137816Y-110688082D01*
X135170500Y-110523767D01*
X135170500Y-110484500D01*
X135190185Y-110417461D01*
X135242989Y-110371706D01*
X135294500Y-110360500D01*
X136470613Y-110360500D01*
X136500053Y-110369144D01*
X136530040Y-110375668D01*
X136535055Y-110379422D01*
X136537652Y-110380185D01*
X136558294Y-110396819D01*
X136653181Y-110491706D01*
X136686666Y-110553029D01*
X136689500Y-110579387D01*
X136689500Y-110683771D01*
X136722182Y-110848074D01*
X136722184Y-110848082D01*
X136786295Y-111002860D01*
X136879373Y-111142162D01*
X136997837Y-111260626D01*
X137042547Y-111290500D01*
X137137137Y-111353703D01*
X137291918Y-111417816D01*
X137456228Y-111450499D01*
X137456232Y-111450500D01*
X137456233Y-111450500D01*
X137623768Y-111450500D01*
X137623769Y-111450499D01*
X137788082Y-111417816D01*
X137942863Y-111353703D01*
X138082162Y-111260626D01*
X138200626Y-111142162D01*
X138293703Y-111002863D01*
X138357816Y-110848082D01*
X138390500Y-110683767D01*
X138390500Y-110681995D01*
X138699500Y-110681995D01*
X138699500Y-110918004D01*
X138699501Y-110918020D01*
X138730306Y-111152010D01*
X138791394Y-111379993D01*
X138881714Y-111598045D01*
X138881719Y-111598056D01*
X138952677Y-111720957D01*
X138999727Y-111802450D01*
X138999729Y-111802453D01*
X138999730Y-111802454D01*
X139143406Y-111989697D01*
X139143412Y-111989704D01*
X139310295Y-112156587D01*
X139310301Y-112156592D01*
X139497550Y-112300273D01*
X139628918Y-112376118D01*
X139701943Y-112418280D01*
X139701948Y-112418282D01*
X139701951Y-112418284D01*
X139920007Y-112508606D01*
X140147986Y-112569693D01*
X140381989Y-112600500D01*
X140381996Y-112600500D01*
X140618004Y-112600500D01*
X140618011Y-112600500D01*
X140852014Y-112569693D01*
X141079993Y-112508606D01*
X141298049Y-112418284D01*
X141502450Y-112300273D01*
X141689699Y-112156592D01*
X141856592Y-111989699D01*
X142000273Y-111802450D01*
X142118284Y-111598049D01*
X142208606Y-111379993D01*
X142269693Y-111152014D01*
X142300500Y-110918011D01*
X142300500Y-110681989D01*
X142269693Y-110447986D01*
X142208606Y-110220007D01*
X142118284Y-110001951D01*
X142118282Y-110001948D01*
X142118280Y-110001943D01*
X142053360Y-109889500D01*
X142000273Y-109797550D01*
X141856592Y-109610301D01*
X141856587Y-109610295D01*
X141689704Y-109443412D01*
X141689697Y-109443406D01*
X141502454Y-109299730D01*
X141502453Y-109299729D01*
X141502450Y-109299727D01*
X141420957Y-109252677D01*
X141298056Y-109181719D01*
X141298045Y-109181714D01*
X141079993Y-109091394D01*
X140852010Y-109030306D01*
X140618020Y-108999501D01*
X140618017Y-108999500D01*
X140618011Y-108999500D01*
X140381989Y-108999500D01*
X140381983Y-108999500D01*
X140381979Y-108999501D01*
X140147989Y-109030306D01*
X139920006Y-109091394D01*
X139701954Y-109181714D01*
X139701943Y-109181719D01*
X139497545Y-109299730D01*
X139310302Y-109443406D01*
X139310295Y-109443412D01*
X139143412Y-109610295D01*
X139143406Y-109610302D01*
X138999730Y-109797545D01*
X138881719Y-110001943D01*
X138881714Y-110001954D01*
X138791394Y-110220006D01*
X138730306Y-110447989D01*
X138699501Y-110681979D01*
X138699500Y-110681995D01*
X138390500Y-110681995D01*
X138390500Y-110516233D01*
X138357816Y-110351918D01*
X138293703Y-110197137D01*
X138262537Y-110150494D01*
X138200626Y-110057837D01*
X138082162Y-109939373D01*
X137942860Y-109846295D01*
X137788082Y-109782184D01*
X137788074Y-109782182D01*
X137623771Y-109749500D01*
X137623767Y-109749500D01*
X137519387Y-109749500D01*
X137452348Y-109729815D01*
X137431706Y-109713181D01*
X137088016Y-109369491D01*
X137088015Y-109369490D01*
X136962485Y-109297016D01*
X136962486Y-109297016D01*
X136927482Y-109287637D01*
X136822475Y-109259500D01*
X136822472Y-109259500D01*
X133019387Y-109259500D01*
X132952348Y-109239815D01*
X132931706Y-109223181D01*
X123586819Y-99878294D01*
X123553334Y-99816971D01*
X123550500Y-99790613D01*
X123550500Y-98778387D01*
X123570185Y-98711348D01*
X123622989Y-98665593D01*
X123692147Y-98655649D01*
X123755703Y-98684674D01*
X123762181Y-98690706D01*
X130597176Y-105525701D01*
X130630661Y-105587024D01*
X130631113Y-105637572D01*
X130609500Y-105746234D01*
X130609500Y-105913771D01*
X130642182Y-106078074D01*
X130642184Y-106078082D01*
X130706295Y-106232860D01*
X130799373Y-106372162D01*
X130917837Y-106490626D01*
X131010494Y-106552537D01*
X131057137Y-106583703D01*
X131211918Y-106647816D01*
X131376228Y-106680499D01*
X131376232Y-106680500D01*
X131376233Y-106680500D01*
X131543768Y-106680500D01*
X131543769Y-106680499D01*
X131708082Y-106647816D01*
X131862863Y-106583703D01*
X132002162Y-106490626D01*
X132120626Y-106372162D01*
X132213703Y-106232863D01*
X132277816Y-106078082D01*
X132310500Y-105913767D01*
X132310500Y-105746233D01*
X132297722Y-105681995D01*
X138699500Y-105681995D01*
X138699500Y-105918004D01*
X138699501Y-105918020D01*
X138730293Y-106151914D01*
X138730307Y-106152014D01*
X138758579Y-106257525D01*
X138791394Y-106379993D01*
X138881714Y-106598045D01*
X138881719Y-106598056D01*
X138929319Y-106680500D01*
X138999727Y-106802450D01*
X138999729Y-106802453D01*
X138999730Y-106802454D01*
X139143406Y-106989697D01*
X139143412Y-106989704D01*
X139310295Y-107156587D01*
X139310302Y-107156593D01*
X139420306Y-107241001D01*
X139497550Y-107300273D01*
X139628918Y-107376118D01*
X139701943Y-107418280D01*
X139701948Y-107418282D01*
X139701951Y-107418284D01*
X139920007Y-107508606D01*
X140147986Y-107569693D01*
X140381989Y-107600500D01*
X140381996Y-107600500D01*
X140618004Y-107600500D01*
X140618011Y-107600500D01*
X140852014Y-107569693D01*
X141079993Y-107508606D01*
X141298049Y-107418284D01*
X141502450Y-107300273D01*
X141689699Y-107156592D01*
X141856592Y-106989699D01*
X142000273Y-106802450D01*
X142118284Y-106598049D01*
X142208606Y-106379993D01*
X142269693Y-106152014D01*
X142300500Y-105918011D01*
X142300500Y-105681989D01*
X142269693Y-105447986D01*
X142208606Y-105220007D01*
X142118284Y-105001951D01*
X142118282Y-105001948D01*
X142118280Y-105001943D01*
X142076118Y-104928918D01*
X142000273Y-104797550D01*
X141856592Y-104610301D01*
X141856587Y-104610295D01*
X141689704Y-104443412D01*
X141689697Y-104443406D01*
X141502454Y-104299730D01*
X141502453Y-104299729D01*
X141502450Y-104299727D01*
X141419414Y-104251786D01*
X141298056Y-104181719D01*
X141298045Y-104181714D01*
X141079993Y-104091394D01*
X140885147Y-104039185D01*
X140852014Y-104030307D01*
X140852013Y-104030306D01*
X140852010Y-104030306D01*
X140618020Y-103999501D01*
X140618017Y-103999500D01*
X140618011Y-103999500D01*
X140381989Y-103999500D01*
X140381983Y-103999500D01*
X140381979Y-103999501D01*
X140147989Y-104030306D01*
X139920006Y-104091394D01*
X139701954Y-104181714D01*
X139701943Y-104181719D01*
X139497545Y-104299730D01*
X139310302Y-104443406D01*
X139310295Y-104443412D01*
X139143412Y-104610295D01*
X139143406Y-104610302D01*
X138999730Y-104797545D01*
X138999727Y-104797549D01*
X138999727Y-104797550D01*
X138992014Y-104810909D01*
X138881719Y-105001943D01*
X138881714Y-105001954D01*
X138791394Y-105220006D01*
X138730306Y-105447989D01*
X138699501Y-105681979D01*
X138699500Y-105681995D01*
X132297722Y-105681995D01*
X132283482Y-105610402D01*
X132277816Y-105581918D01*
X132213703Y-105427137D01*
X132182537Y-105380494D01*
X132120626Y-105287837D01*
X132002162Y-105169373D01*
X131862860Y-105076295D01*
X131708082Y-105012184D01*
X131708074Y-105012182D01*
X131660872Y-105002793D01*
X131598961Y-104970409D01*
X131597382Y-104968857D01*
X124086819Y-97458294D01*
X124053334Y-97396971D01*
X124050500Y-97370613D01*
X124050500Y-96128387D01*
X124070185Y-96061348D01*
X124122989Y-96015593D01*
X124192147Y-96005649D01*
X124255703Y-96034674D01*
X124262181Y-96040706D01*
X127411985Y-99190510D01*
X127537515Y-99262984D01*
X127677525Y-99300500D01*
X127677526Y-99300500D01*
X127822474Y-99300500D01*
X132370613Y-99300500D01*
X132437652Y-99320185D01*
X132458294Y-99336819D01*
X133673181Y-100551706D01*
X133706666Y-100613029D01*
X133709500Y-100639387D01*
X133709500Y-100743771D01*
X133742182Y-100908074D01*
X133742184Y-100908082D01*
X133806295Y-101062860D01*
X133899373Y-101202162D01*
X134017837Y-101320626D01*
X134081695Y-101363294D01*
X134157137Y-101413703D01*
X134311918Y-101477816D01*
X134476228Y-101510499D01*
X134476232Y-101510500D01*
X134476233Y-101510500D01*
X134643768Y-101510500D01*
X134643769Y-101510499D01*
X134808082Y-101477816D01*
X134962863Y-101413703D01*
X135102162Y-101320626D01*
X135220626Y-101202162D01*
X135313703Y-101062863D01*
X135377816Y-100908082D01*
X135410500Y-100743767D01*
X135410500Y-100576233D01*
X135377816Y-100411918D01*
X135313703Y-100257137D01*
X135282537Y-100210494D01*
X135220626Y-100117837D01*
X135102162Y-99999373D01*
X134962860Y-99906295D01*
X134808082Y-99842184D01*
X134808074Y-99842182D01*
X134643771Y-99809500D01*
X134643767Y-99809500D01*
X134539387Y-99809500D01*
X134472348Y-99789815D01*
X134451706Y-99773181D01*
X133690706Y-99012181D01*
X133657221Y-98950858D01*
X133662205Y-98881166D01*
X133704077Y-98825233D01*
X133769541Y-98800816D01*
X133778387Y-98800500D01*
X134427525Y-98800500D01*
X134740613Y-98800500D01*
X134807652Y-98820185D01*
X134828294Y-98836819D01*
X136663181Y-100671706D01*
X136696666Y-100733029D01*
X136699500Y-100759387D01*
X136699500Y-100863771D01*
X136732182Y-101028074D01*
X136732184Y-101028082D01*
X136796295Y-101182860D01*
X136889373Y-101322162D01*
X137007837Y-101440626D01*
X137063498Y-101477817D01*
X137147137Y-101533703D01*
X137301918Y-101597816D01*
X137455947Y-101628454D01*
X137466228Y-101630499D01*
X137466232Y-101630500D01*
X137466233Y-101630500D01*
X137633768Y-101630500D01*
X137633769Y-101630499D01*
X137798082Y-101597816D01*
X137952863Y-101533703D01*
X138092162Y-101440626D01*
X138210626Y-101322162D01*
X138303703Y-101182863D01*
X138367816Y-101028082D01*
X138400500Y-100863767D01*
X138400500Y-100696233D01*
X138400500Y-100696232D01*
X138400499Y-100696225D01*
X138397668Y-100681995D01*
X138699500Y-100681995D01*
X138699500Y-100918004D01*
X138699501Y-100918020D01*
X138730306Y-101152010D01*
X138791394Y-101379993D01*
X138881714Y-101598045D01*
X138881719Y-101598056D01*
X138952677Y-101720957D01*
X138999727Y-101802450D01*
X138999729Y-101802453D01*
X138999730Y-101802454D01*
X139143406Y-101989697D01*
X139143412Y-101989704D01*
X139310295Y-102156587D01*
X139310302Y-102156593D01*
X139326909Y-102169336D01*
X139497550Y-102300273D01*
X139628918Y-102376118D01*
X139701943Y-102418280D01*
X139701948Y-102418282D01*
X139701951Y-102418284D01*
X139920007Y-102508606D01*
X140147986Y-102569693D01*
X140381989Y-102600500D01*
X140381996Y-102600500D01*
X140618004Y-102600500D01*
X140618011Y-102600500D01*
X140852014Y-102569693D01*
X141079993Y-102508606D01*
X141298049Y-102418284D01*
X141502450Y-102300273D01*
X141689699Y-102156592D01*
X141856592Y-101989699D01*
X142000273Y-101802450D01*
X142118284Y-101598049D01*
X142208606Y-101379993D01*
X142269693Y-101152014D01*
X142300500Y-100918011D01*
X142300500Y-100681989D01*
X142269693Y-100447986D01*
X142208606Y-100220007D01*
X142118284Y-100001951D01*
X142118282Y-100001948D01*
X142118280Y-100001943D01*
X142063057Y-99906295D01*
X142000273Y-99797550D01*
X141856592Y-99610301D01*
X141856587Y-99610295D01*
X141689704Y-99443412D01*
X141689697Y-99443406D01*
X141502454Y-99299730D01*
X141502453Y-99299729D01*
X141502450Y-99299727D01*
X141420957Y-99252677D01*
X141298056Y-99181719D01*
X141298045Y-99181714D01*
X141079993Y-99091394D01*
X140936645Y-99052984D01*
X140852014Y-99030307D01*
X140852013Y-99030306D01*
X140852010Y-99030306D01*
X140618020Y-98999501D01*
X140618017Y-98999500D01*
X140618011Y-98999500D01*
X140381989Y-98999500D01*
X140381983Y-98999500D01*
X140381979Y-98999501D01*
X140147989Y-99030306D01*
X139920006Y-99091394D01*
X139701954Y-99181714D01*
X139701943Y-99181719D01*
X139497545Y-99299730D01*
X139310302Y-99443406D01*
X139310295Y-99443412D01*
X139143412Y-99610295D01*
X139143406Y-99610302D01*
X138999730Y-99797545D01*
X138881719Y-100001943D01*
X138881714Y-100001954D01*
X138791394Y-100220006D01*
X138730306Y-100447989D01*
X138699501Y-100681979D01*
X138699500Y-100681995D01*
X138397668Y-100681995D01*
X138376631Y-100576233D01*
X138367816Y-100531918D01*
X138311635Y-100396286D01*
X138303704Y-100377139D01*
X138300129Y-100371789D01*
X138245167Y-100289532D01*
X138210626Y-100237837D01*
X138092162Y-100119373D01*
X137952860Y-100026295D01*
X137798082Y-99962184D01*
X137798074Y-99962182D01*
X137633771Y-99929500D01*
X137633767Y-99929500D01*
X137529387Y-99929500D01*
X137462348Y-99909815D01*
X137441706Y-99893181D01*
X135358016Y-97809491D01*
X135358015Y-97809490D01*
X135232485Y-97737016D01*
X135232486Y-97737016D01*
X135197482Y-97727637D01*
X135092475Y-97699500D01*
X135092472Y-97699500D01*
X132657902Y-97699500D01*
X132590863Y-97679815D01*
X132545108Y-97627011D01*
X132536285Y-97599692D01*
X132519738Y-97516508D01*
X132519737Y-97516507D01*
X132519737Y-97516503D01*
X132470226Y-97396971D01*
X132459397Y-97370827D01*
X132459390Y-97370814D01*
X132371789Y-97239711D01*
X132371786Y-97239707D01*
X132260292Y-97128213D01*
X132260288Y-97128210D01*
X132129185Y-97040609D01*
X132129172Y-97040602D01*
X131983501Y-96980264D01*
X131983489Y-96980261D01*
X131828845Y-96949500D01*
X131828842Y-96949500D01*
X131671158Y-96949500D01*
X131671155Y-96949500D01*
X131516510Y-96980261D01*
X131516498Y-96980264D01*
X131370827Y-97040602D01*
X131370814Y-97040609D01*
X131239711Y-97128210D01*
X131239707Y-97128213D01*
X131204742Y-97163180D01*
X131143420Y-97196666D01*
X131117060Y-97199500D01*
X128529387Y-97199500D01*
X128462348Y-97179815D01*
X128441706Y-97163181D01*
X125586819Y-94308294D01*
X125553334Y-94246971D01*
X125550500Y-94220613D01*
X125550500Y-89244500D01*
X125570185Y-89177461D01*
X125622989Y-89131706D01*
X125674500Y-89120500D01*
X125728844Y-89120500D01*
X125728845Y-89120499D01*
X125883497Y-89089737D01*
X126029179Y-89029394D01*
X126160289Y-88941789D01*
X126271789Y-88830289D01*
X126359394Y-88699179D01*
X126419737Y-88553497D01*
X126450500Y-88398842D01*
X126450500Y-88241158D01*
X126450500Y-88241155D01*
X126450499Y-88241153D01*
X126442154Y-88199202D01*
X126419737Y-88086503D01*
X126408416Y-88059172D01*
X126400952Y-88041153D01*
X132079500Y-88041153D01*
X132079500Y-88198846D01*
X132110261Y-88353489D01*
X132110264Y-88353501D01*
X132170602Y-88499172D01*
X132170609Y-88499185D01*
X132258210Y-88630288D01*
X132258213Y-88630292D01*
X132369707Y-88741786D01*
X132369711Y-88741789D01*
X132500814Y-88829390D01*
X132500827Y-88829397D01*
X132646498Y-88889735D01*
X132646503Y-88889737D01*
X132801153Y-88920499D01*
X132801156Y-88920500D01*
X132801158Y-88920500D01*
X132958844Y-88920500D01*
X132958845Y-88920499D01*
X133113497Y-88889737D01*
X133259179Y-88829394D01*
X133390289Y-88741789D01*
X133501789Y-88630289D01*
X133589394Y-88499179D01*
X133649737Y-88353497D01*
X133669349Y-88254901D01*
X133669899Y-88252135D01*
X137999500Y-88252135D01*
X137999500Y-90547870D01*
X137999501Y-90547876D01*
X138005908Y-90607483D01*
X138056202Y-90742328D01*
X138056206Y-90742335D01*
X138142452Y-90857544D01*
X138142455Y-90857547D01*
X138257664Y-90943793D01*
X138257671Y-90943797D01*
X138302618Y-90960561D01*
X138392517Y-90994091D01*
X138452127Y-91000500D01*
X138801752Y-91000499D01*
X138868790Y-91020183D01*
X138914545Y-91072987D01*
X138924489Y-91142146D01*
X138916313Y-91171950D01*
X138912184Y-91181918D01*
X138912182Y-91181925D01*
X138879500Y-91346228D01*
X138879500Y-91513771D01*
X138912182Y-91678074D01*
X138912184Y-91678082D01*
X138976295Y-91832860D01*
X139069373Y-91972162D01*
X139187837Y-92090626D01*
X139280494Y-92152537D01*
X139327137Y-92183703D01*
X139481918Y-92247816D01*
X139646228Y-92280499D01*
X139646232Y-92280500D01*
X139646233Y-92280500D01*
X139813768Y-92280500D01*
X139813769Y-92280499D01*
X139978082Y-92247816D01*
X140132863Y-92183703D01*
X140272162Y-92090626D01*
X140390626Y-91972162D01*
X140483703Y-91832863D01*
X140547816Y-91678082D01*
X140580500Y-91513767D01*
X140580500Y-91346233D01*
X140547816Y-91181918D01*
X140543686Y-91171949D01*
X140536220Y-91102481D01*
X140567495Y-91040002D01*
X140627585Y-91004350D01*
X140658249Y-91000499D01*
X140747871Y-91000499D01*
X140747872Y-91000499D01*
X140807483Y-90994091D01*
X140942331Y-90943796D01*
X141057546Y-90857546D01*
X141143796Y-90742331D01*
X141194091Y-90607483D01*
X141200500Y-90547873D01*
X141200499Y-88321939D01*
X141220184Y-88254901D01*
X141272987Y-88209146D01*
X141342146Y-88199202D01*
X141405702Y-88228227D01*
X141412180Y-88234259D01*
X141479707Y-88301786D01*
X141479711Y-88301789D01*
X141610814Y-88389390D01*
X141610827Y-88389397D01*
X141756498Y-88449735D01*
X141756503Y-88449737D01*
X141911153Y-88480499D01*
X141911156Y-88480500D01*
X141911158Y-88480500D01*
X142068844Y-88480500D01*
X142068845Y-88480499D01*
X142223497Y-88449737D01*
X142369179Y-88389394D01*
X142500289Y-88301789D01*
X142611789Y-88190289D01*
X142699394Y-88059179D01*
X142700020Y-88057669D01*
X142729600Y-87986254D01*
X142759737Y-87913497D01*
X142790500Y-87758842D01*
X142790500Y-87601158D01*
X142790500Y-87601155D01*
X142790499Y-87601153D01*
X142759738Y-87446510D01*
X142759737Y-87446503D01*
X142759735Y-87446498D01*
X142699397Y-87300827D01*
X142699395Y-87300823D01*
X142699394Y-87300821D01*
X142636513Y-87206714D01*
X142615636Y-87140038D01*
X142634120Y-87072658D01*
X142651931Y-87050146D01*
X142731789Y-86970289D01*
X142819394Y-86839179D01*
X142824418Y-86827050D01*
X142868258Y-86772645D01*
X142934552Y-86750579D01*
X142938980Y-86750500D01*
X142978844Y-86750500D01*
X142978845Y-86750499D01*
X143133497Y-86719737D01*
X143279179Y-86659394D01*
X143410289Y-86571789D01*
X143521789Y-86460289D01*
X143609394Y-86329179D01*
X143612946Y-86320605D01*
X143650682Y-86229500D01*
X143669737Y-86183497D01*
X143700500Y-86028842D01*
X143700500Y-85871158D01*
X143700500Y-85871155D01*
X143700499Y-85871153D01*
X143679531Y-85765742D01*
X143669737Y-85716503D01*
X143633787Y-85629711D01*
X143609397Y-85570827D01*
X143609390Y-85570814D01*
X143521789Y-85439711D01*
X143521786Y-85439707D01*
X143410292Y-85328213D01*
X143410288Y-85328210D01*
X143279185Y-85240609D01*
X143279172Y-85240602D01*
X143133501Y-85180264D01*
X143133489Y-85180261D01*
X142978845Y-85149500D01*
X142978842Y-85149500D01*
X142821158Y-85149500D01*
X142821155Y-85149500D01*
X142666510Y-85180261D01*
X142666498Y-85180264D01*
X142520827Y-85240602D01*
X142520814Y-85240609D01*
X142389711Y-85328210D01*
X142389707Y-85328213D01*
X142278213Y-85439707D01*
X142278210Y-85439711D01*
X142190609Y-85570814D01*
X142190604Y-85570824D01*
X142185582Y-85582950D01*
X142141742Y-85637355D01*
X142075448Y-85659421D01*
X142071020Y-85659500D01*
X142031155Y-85659500D01*
X141876510Y-85690261D01*
X141876498Y-85690264D01*
X141730827Y-85750602D01*
X141730814Y-85750609D01*
X141599711Y-85838210D01*
X141599707Y-85838213D01*
X141488213Y-85949707D01*
X141488210Y-85949711D01*
X141400609Y-86080814D01*
X141400602Y-86080827D01*
X141340264Y-86226498D01*
X141340261Y-86226510D01*
X141309500Y-86381153D01*
X141309500Y-86538846D01*
X141340261Y-86693489D01*
X141340264Y-86693501D01*
X141400602Y-86839172D01*
X141400609Y-86839185D01*
X141463485Y-86933285D01*
X141484363Y-86999963D01*
X141465878Y-87067343D01*
X141448064Y-87089857D01*
X141368213Y-87169707D01*
X141368210Y-87169711D01*
X141280609Y-87300814D01*
X141280602Y-87300827D01*
X141220264Y-87446498D01*
X141220261Y-87446510D01*
X141189500Y-87601153D01*
X141189500Y-87601158D01*
X141189500Y-87758842D01*
X141189501Y-87758846D01*
X141192366Y-87773251D01*
X141186137Y-87842843D01*
X141143274Y-87898019D01*
X141077384Y-87921263D01*
X141009387Y-87905194D01*
X140996437Y-87896708D01*
X140982814Y-87886510D01*
X140942331Y-87856204D01*
X140942330Y-87856203D01*
X140942328Y-87856202D01*
X140807482Y-87805908D01*
X140807483Y-87805908D01*
X140747883Y-87799501D01*
X140747881Y-87799500D01*
X140747873Y-87799500D01*
X140747864Y-87799500D01*
X138452129Y-87799500D01*
X138452123Y-87799501D01*
X138392516Y-87805908D01*
X138257671Y-87856202D01*
X138257664Y-87856206D01*
X138142455Y-87942452D01*
X138142452Y-87942455D01*
X138056206Y-88057664D01*
X138056202Y-88057671D01*
X138005908Y-88192517D01*
X138000679Y-88241158D01*
X137999501Y-88252123D01*
X137999500Y-88252135D01*
X133669899Y-88252135D01*
X133675374Y-88224615D01*
X133675374Y-88224614D01*
X133680500Y-88198844D01*
X133680500Y-88041155D01*
X133680499Y-88041153D01*
X133664336Y-87959897D01*
X133649737Y-87886503D01*
X133646240Y-87878061D01*
X133589397Y-87740827D01*
X133589390Y-87740814D01*
X133501789Y-87609711D01*
X133501786Y-87609707D01*
X133390292Y-87498213D01*
X133390288Y-87498210D01*
X133259185Y-87410609D01*
X133259172Y-87410602D01*
X133113501Y-87350264D01*
X133113489Y-87350261D01*
X132958845Y-87319500D01*
X132958842Y-87319500D01*
X132801158Y-87319500D01*
X132801155Y-87319500D01*
X132646510Y-87350261D01*
X132646498Y-87350264D01*
X132500827Y-87410602D01*
X132500814Y-87410609D01*
X132369711Y-87498210D01*
X132369707Y-87498213D01*
X132258213Y-87609707D01*
X132258210Y-87609711D01*
X132170609Y-87740814D01*
X132170602Y-87740827D01*
X132110264Y-87886498D01*
X132110261Y-87886510D01*
X132079500Y-88041153D01*
X126400952Y-88041153D01*
X126359397Y-87940827D01*
X126359390Y-87940814D01*
X126271789Y-87809711D01*
X126271786Y-87809707D01*
X126160292Y-87698213D01*
X126160288Y-87698210D01*
X126029185Y-87610609D01*
X126029172Y-87610602D01*
X125883501Y-87550264D01*
X125883489Y-87550261D01*
X125728845Y-87519500D01*
X125728842Y-87519500D01*
X125674500Y-87519500D01*
X125607461Y-87499815D01*
X125561706Y-87447011D01*
X125550500Y-87395500D01*
X125550500Y-85432183D01*
X125570185Y-85365144D01*
X125622989Y-85319389D01*
X125692147Y-85309445D01*
X125743387Y-85329079D01*
X125848621Y-85399394D01*
X125848623Y-85399395D01*
X125848627Y-85399397D01*
X125994298Y-85459735D01*
X125994303Y-85459737D01*
X126148953Y-85490499D01*
X126148956Y-85490500D01*
X126148958Y-85490500D01*
X126306644Y-85490500D01*
X126306645Y-85490499D01*
X126461297Y-85459737D01*
X126573966Y-85413067D01*
X126606972Y-85399397D01*
X126606972Y-85399396D01*
X126606979Y-85399394D01*
X126738089Y-85311789D01*
X126849589Y-85200289D01*
X126937194Y-85069179D01*
X126997537Y-84923497D01*
X127028300Y-84768842D01*
X127028300Y-84611158D01*
X127028300Y-84611155D01*
X127028299Y-84611153D01*
X127016364Y-84551153D01*
X126997537Y-84456503D01*
X126997535Y-84456498D01*
X126937197Y-84310827D01*
X126937190Y-84310814D01*
X126849589Y-84179711D01*
X126849586Y-84179707D01*
X126738092Y-84068213D01*
X126738088Y-84068210D01*
X126606985Y-83980609D01*
X126606972Y-83980602D01*
X126461301Y-83920264D01*
X126461289Y-83920261D01*
X126306645Y-83889500D01*
X126306642Y-83889500D01*
X126148958Y-83889500D01*
X126148955Y-83889500D01*
X125994310Y-83920261D01*
X125994298Y-83920264D01*
X125848627Y-83980602D01*
X125848614Y-83980609D01*
X125743391Y-84050918D01*
X125676713Y-84071796D01*
X125609333Y-84053312D01*
X125562643Y-84001333D01*
X125550500Y-83947816D01*
X125550500Y-80671153D01*
X126242000Y-80671153D01*
X126242000Y-80828846D01*
X126272761Y-80983489D01*
X126272764Y-80983501D01*
X126333102Y-81129172D01*
X126333109Y-81129185D01*
X126420710Y-81260288D01*
X126420713Y-81260292D01*
X126532207Y-81371786D01*
X126532211Y-81371789D01*
X126663314Y-81459390D01*
X126663327Y-81459397D01*
X126807639Y-81519172D01*
X126809003Y-81519737D01*
X126963653Y-81550499D01*
X126963656Y-81550500D01*
X126963658Y-81550500D01*
X127121344Y-81550500D01*
X127121345Y-81550499D01*
X127275997Y-81519737D01*
X127421679Y-81459394D01*
X127552789Y-81371789D01*
X127664289Y-81260289D01*
X127751894Y-81129179D01*
X127812237Y-80983497D01*
X127843000Y-80828842D01*
X127843000Y-80671158D01*
X127843000Y-80671155D01*
X127842999Y-80671153D01*
X127836744Y-80639707D01*
X127812237Y-80516503D01*
X127812235Y-80516498D01*
X127751897Y-80370827D01*
X127751890Y-80370814D01*
X127664289Y-80239711D01*
X127664286Y-80239707D01*
X127552792Y-80128213D01*
X127552788Y-80128210D01*
X127421685Y-80040609D01*
X127421672Y-80040602D01*
X127276001Y-79980264D01*
X127275989Y-79980261D01*
X127121345Y-79949500D01*
X127121342Y-79949500D01*
X126963658Y-79949500D01*
X126963655Y-79949500D01*
X126809010Y-79980261D01*
X126808998Y-79980264D01*
X126663327Y-80040602D01*
X126663314Y-80040609D01*
X126532211Y-80128210D01*
X126532207Y-80128213D01*
X126420713Y-80239707D01*
X126420710Y-80239711D01*
X126333109Y-80370814D01*
X126333102Y-80370827D01*
X126272764Y-80516498D01*
X126272761Y-80516510D01*
X126242000Y-80671153D01*
X125550500Y-80671153D01*
X125550500Y-79029387D01*
X125570185Y-78962348D01*
X125586819Y-78941706D01*
X126441706Y-78086819D01*
X126503029Y-78053334D01*
X126529387Y-78050500D01*
X132419525Y-78050500D01*
X132486564Y-78070185D01*
X132532319Y-78122989D01*
X132542263Y-78192147D01*
X132513238Y-78255703D01*
X132466977Y-78289061D01*
X132390827Y-78320602D01*
X132390814Y-78320609D01*
X132259711Y-78408210D01*
X132259707Y-78408213D01*
X132148213Y-78519707D01*
X132148210Y-78519711D01*
X132060609Y-78650814D01*
X132060605Y-78650821D01*
X132054518Y-78665518D01*
X132051438Y-78672952D01*
X132007600Y-78727355D01*
X131941306Y-78749421D01*
X131936878Y-78749500D01*
X131921155Y-78749500D01*
X131766510Y-78780261D01*
X131766498Y-78780264D01*
X131620827Y-78840602D01*
X131620814Y-78840609D01*
X131489711Y-78928210D01*
X131489707Y-78928213D01*
X131378213Y-79039707D01*
X131378210Y-79039711D01*
X131290609Y-79170814D01*
X131290602Y-79170827D01*
X131230264Y-79316498D01*
X131230261Y-79316510D01*
X131199500Y-79471153D01*
X131199500Y-79628846D01*
X131230261Y-79783489D01*
X131230264Y-79783501D01*
X131290602Y-79929172D01*
X131290609Y-79929185D01*
X131378210Y-80060288D01*
X131378213Y-80060292D01*
X131489707Y-80171786D01*
X131489711Y-80171789D01*
X131620814Y-80259390D01*
X131620827Y-80259397D01*
X131726533Y-80303181D01*
X131766503Y-80319737D01*
X131889310Y-80344165D01*
X131921153Y-80350499D01*
X131921156Y-80350500D01*
X131921158Y-80350500D01*
X132078835Y-80350500D01*
X132078842Y-80350500D01*
X132078848Y-80350498D01*
X132083342Y-80350056D01*
X132151988Y-80363073D01*
X132202700Y-80411136D01*
X132219500Y-80473459D01*
X132219500Y-81490613D01*
X132199815Y-81557652D01*
X132183181Y-81578294D01*
X131548294Y-82213181D01*
X131486971Y-82246666D01*
X131460613Y-82249500D01*
X131356228Y-82249500D01*
X131191925Y-82282182D01*
X131191917Y-82282184D01*
X131037139Y-82346295D01*
X130897837Y-82439373D01*
X130779373Y-82557837D01*
X130686295Y-82697139D01*
X130622184Y-82851917D01*
X130622182Y-82851925D01*
X130589500Y-83016228D01*
X130589500Y-83183771D01*
X130622182Y-83348074D01*
X130622184Y-83348082D01*
X130686296Y-83502861D01*
X130686298Y-83502865D01*
X130775663Y-83636610D01*
X130796541Y-83703287D01*
X130778056Y-83770667D01*
X130726077Y-83817357D01*
X130672561Y-83829500D01*
X130651155Y-83829500D01*
X130496510Y-83860261D01*
X130496498Y-83860264D01*
X130350827Y-83920602D01*
X130350814Y-83920609D01*
X130219711Y-84008210D01*
X130219707Y-84008213D01*
X130108213Y-84119707D01*
X130108210Y-84119711D01*
X130020609Y-84250814D01*
X130020602Y-84250827D01*
X129960264Y-84396498D01*
X129960261Y-84396510D01*
X129929500Y-84551153D01*
X129929500Y-84708846D01*
X129960261Y-84863489D01*
X129960264Y-84863501D01*
X130020602Y-85009172D01*
X130020609Y-85009185D01*
X130108210Y-85140288D01*
X130108213Y-85140292D01*
X130219707Y-85251786D01*
X130219711Y-85251789D01*
X130350814Y-85339390D01*
X130350827Y-85339397D01*
X130495675Y-85399394D01*
X130496503Y-85399737D01*
X130650997Y-85430468D01*
X130651153Y-85430499D01*
X130651156Y-85430500D01*
X130651158Y-85430500D01*
X130808843Y-85430500D01*
X130825356Y-85427214D01*
X130840307Y-85424241D01*
X130909899Y-85430468D01*
X130965077Y-85473330D01*
X130988322Y-85539219D01*
X130972255Y-85607217D01*
X130959157Y-85624411D01*
X130959876Y-85625001D01*
X130956010Y-85629711D01*
X130868409Y-85760814D01*
X130868402Y-85760827D01*
X130808064Y-85906498D01*
X130808061Y-85906510D01*
X130777300Y-86061153D01*
X130777300Y-86218846D01*
X130808061Y-86373489D01*
X130808064Y-86373501D01*
X130868402Y-86519172D01*
X130868409Y-86519185D01*
X130956010Y-86650288D01*
X130956013Y-86650292D01*
X131067507Y-86761786D01*
X131067511Y-86761789D01*
X131198614Y-86849390D01*
X131198627Y-86849397D01*
X131344298Y-86909735D01*
X131344303Y-86909737D01*
X131462686Y-86933285D01*
X131498953Y-86940499D01*
X131498956Y-86940500D01*
X131498958Y-86940500D01*
X131656644Y-86940500D01*
X131656645Y-86940499D01*
X131811297Y-86909737D01*
X131956979Y-86849394D01*
X132088089Y-86761789D01*
X132199589Y-86650289D01*
X132287194Y-86519179D01*
X132347537Y-86373497D01*
X132378300Y-86218842D01*
X132378300Y-86061158D01*
X132378300Y-86061155D01*
X132378299Y-86061153D01*
X132368820Y-86013501D01*
X132347537Y-85906503D01*
X132332897Y-85871158D01*
X132287197Y-85760827D01*
X132287195Y-85760823D01*
X132287194Y-85760821D01*
X132247325Y-85701153D01*
X132609500Y-85701153D01*
X132609500Y-85858846D01*
X132640261Y-86013489D01*
X132640264Y-86013501D01*
X132700602Y-86159172D01*
X132700609Y-86159185D01*
X132788210Y-86290288D01*
X132788213Y-86290292D01*
X132899707Y-86401786D01*
X132899711Y-86401789D01*
X133030814Y-86489390D01*
X133030827Y-86489397D01*
X133176498Y-86549735D01*
X133176503Y-86549737D01*
X133324703Y-86579216D01*
X133331153Y-86580499D01*
X133331156Y-86580500D01*
X133331158Y-86580500D01*
X133488844Y-86580500D01*
X133488845Y-86580499D01*
X133643497Y-86549737D01*
X133789179Y-86489394D01*
X133920289Y-86401789D01*
X134031789Y-86290289D01*
X134119394Y-86159179D01*
X134179737Y-86013497D01*
X134210500Y-85858842D01*
X134210500Y-85701158D01*
X134210500Y-85701155D01*
X134210499Y-85701153D01*
X134184575Y-85570827D01*
X134179737Y-85546503D01*
X134135501Y-85439707D01*
X134119397Y-85400827D01*
X134119390Y-85400814D01*
X134031789Y-85269711D01*
X134031786Y-85269707D01*
X133920292Y-85158213D01*
X133920288Y-85158210D01*
X133789185Y-85070609D01*
X133789172Y-85070602D01*
X133643501Y-85010264D01*
X133643489Y-85010261D01*
X133488845Y-84979500D01*
X133488842Y-84979500D01*
X133331158Y-84979500D01*
X133331155Y-84979500D01*
X133176510Y-85010261D01*
X133176498Y-85010264D01*
X133030827Y-85070602D01*
X133030814Y-85070609D01*
X132899711Y-85158210D01*
X132899707Y-85158213D01*
X132788213Y-85269707D01*
X132788210Y-85269711D01*
X132700609Y-85400814D01*
X132700602Y-85400827D01*
X132640264Y-85546498D01*
X132640261Y-85546510D01*
X132609500Y-85701153D01*
X132247325Y-85701153D01*
X132199589Y-85629711D01*
X132199586Y-85629707D01*
X132088092Y-85518213D01*
X132088088Y-85518210D01*
X131956985Y-85430609D01*
X131956972Y-85430602D01*
X131811294Y-85370261D01*
X131808046Y-85369276D01*
X131806554Y-85368298D01*
X131805670Y-85367932D01*
X131805739Y-85367764D01*
X131791178Y-85358219D01*
X131772125Y-85351625D01*
X131762558Y-85339459D01*
X131749611Y-85330973D01*
X131741399Y-85312553D01*
X131728935Y-85296704D01*
X131727463Y-85281295D01*
X131721161Y-85267158D01*
X131724210Y-85247224D01*
X131722294Y-85227150D01*
X131729387Y-85213391D01*
X131731728Y-85198092D01*
X131745070Y-85182971D01*
X131754311Y-85165048D01*
X131775787Y-85148161D01*
X131777957Y-85145703D01*
X131782055Y-85143231D01*
X131782480Y-85142985D01*
X131782485Y-85142984D01*
X131787153Y-85140289D01*
X131844617Y-85107111D01*
X131844635Y-85107107D01*
X131906615Y-85090500D01*
X132043768Y-85090500D01*
X132043769Y-85090499D01*
X132208082Y-85057816D01*
X132362863Y-84993703D01*
X132502162Y-84900626D01*
X132620626Y-84782162D01*
X132713703Y-84642863D01*
X132777816Y-84488082D01*
X132810500Y-84323767D01*
X132810500Y-84156233D01*
X132777816Y-83991918D01*
X132713703Y-83837137D01*
X132662285Y-83760185D01*
X132620626Y-83697837D01*
X132502162Y-83579373D01*
X132362862Y-83486296D01*
X132334429Y-83474519D01*
X132280026Y-83430677D01*
X132257962Y-83364382D01*
X132260266Y-83335767D01*
X132290499Y-83183771D01*
X132290500Y-83183768D01*
X132290500Y-83079387D01*
X132310185Y-83012348D01*
X132326819Y-82991706D01*
X132760688Y-82557837D01*
X133210510Y-82108015D01*
X133282984Y-81982485D01*
X133303165Y-81907168D01*
X133320500Y-81842475D01*
X133320500Y-80461681D01*
X133340185Y-80394642D01*
X133392989Y-80348887D01*
X133462147Y-80338943D01*
X133468692Y-80340064D01*
X133521155Y-80350500D01*
X133521158Y-80350500D01*
X133678844Y-80350500D01*
X133678845Y-80350499D01*
X133833497Y-80319737D01*
X133979179Y-80259394D01*
X134110289Y-80171789D01*
X134221789Y-80060289D01*
X134309394Y-79929179D01*
X134369737Y-79783497D01*
X134400500Y-79628842D01*
X134400500Y-79471158D01*
X134400500Y-79471155D01*
X134400499Y-79471153D01*
X134391489Y-79425857D01*
X134369737Y-79316503D01*
X134369735Y-79316498D01*
X134309397Y-79170827D01*
X134309390Y-79170814D01*
X134221789Y-79039711D01*
X134221786Y-79039707D01*
X134110292Y-78928213D01*
X134110288Y-78928210D01*
X133979185Y-78840609D01*
X133979172Y-78840602D01*
X133833501Y-78780264D01*
X133833489Y-78780261D01*
X133678845Y-78749500D01*
X133678842Y-78749500D01*
X133603122Y-78749500D01*
X133536083Y-78729815D01*
X133490328Y-78677011D01*
X133488561Y-78672952D01*
X133486265Y-78667409D01*
X133479394Y-78650821D01*
X133479392Y-78650819D01*
X133479392Y-78650817D01*
X133391789Y-78519711D01*
X133391786Y-78519707D01*
X133280292Y-78408213D01*
X133280288Y-78408210D01*
X133149185Y-78320609D01*
X133149172Y-78320602D01*
X133073023Y-78289061D01*
X133018619Y-78245220D01*
X132996554Y-78178926D01*
X133013833Y-78111227D01*
X133064970Y-78063616D01*
X133120475Y-78050500D01*
X139262472Y-78050500D01*
X139262474Y-78050500D01*
X139262475Y-78050500D01*
X139402485Y-78012984D01*
X139528015Y-77940510D01*
X139811706Y-77656819D01*
X139873029Y-77623334D01*
X139899387Y-77620500D01*
X139948844Y-77620500D01*
X139948845Y-77620499D01*
X140103497Y-77589737D01*
X140249179Y-77529394D01*
X140380289Y-77441789D01*
X140491789Y-77330289D01*
X140579394Y-77199179D01*
X140639737Y-77053497D01*
X140670500Y-76898842D01*
X140670500Y-76741158D01*
X140670500Y-76741155D01*
X140670499Y-76741153D01*
X140668992Y-76733578D01*
X140639737Y-76586503D01*
X140639735Y-76586498D01*
X140579397Y-76440827D01*
X140579390Y-76440814D01*
X140491789Y-76309711D01*
X140491786Y-76309707D01*
X140380292Y-76198213D01*
X140380288Y-76198210D01*
X140249185Y-76110609D01*
X140249172Y-76110602D01*
X140103501Y-76050264D01*
X140103489Y-76050261D01*
X139948845Y-76019500D01*
X139948842Y-76019500D01*
X139791158Y-76019500D01*
X139791155Y-76019500D01*
X139636510Y-76050261D01*
X139636498Y-76050264D01*
X139490827Y-76110602D01*
X139490814Y-76110609D01*
X139359711Y-76198210D01*
X139359707Y-76198213D01*
X139248213Y-76309707D01*
X139248210Y-76309711D01*
X139160609Y-76440814D01*
X139160602Y-76440827D01*
X139100264Y-76586498D01*
X139100261Y-76586510D01*
X139069500Y-76741153D01*
X139069500Y-76790613D01*
X139060855Y-76820053D01*
X139054332Y-76850040D01*
X139050577Y-76855055D01*
X139049815Y-76857652D01*
X139033181Y-76878294D01*
X138998294Y-76913181D01*
X138936971Y-76946666D01*
X138910613Y-76949500D01*
X133628387Y-76949500D01*
X133561348Y-76929815D01*
X133515593Y-76877011D01*
X133505649Y-76807853D01*
X133534674Y-76744297D01*
X133540706Y-76737819D01*
X137712564Y-72565961D01*
X137773887Y-72532476D01*
X137800245Y-72529642D01*
X138357060Y-72529642D01*
X138424099Y-72549327D01*
X138444742Y-72565962D01*
X138479707Y-72600928D01*
X138479710Y-72600931D01*
X138579091Y-72667335D01*
X138610821Y-72688536D01*
X138610827Y-72688538D01*
X138616192Y-72691406D01*
X138615091Y-72693464D01*
X138661427Y-72730803D01*
X138681188Y-72777332D01*
X138710261Y-72923491D01*
X138710264Y-72923501D01*
X138770602Y-73069172D01*
X138770609Y-73069185D01*
X138858210Y-73200288D01*
X138858213Y-73200292D01*
X138969707Y-73311786D01*
X138969711Y-73311789D01*
X139100814Y-73399390D01*
X139100827Y-73399397D01*
X139221028Y-73449185D01*
X139246503Y-73459737D01*
X139346793Y-73479686D01*
X139401153Y-73490499D01*
X139401156Y-73490500D01*
X139401158Y-73490500D01*
X139558844Y-73490500D01*
X139558845Y-73490499D01*
X139713497Y-73459737D01*
X139832350Y-73410507D01*
X139859172Y-73399397D01*
X139859172Y-73399396D01*
X139859179Y-73399394D01*
X139990289Y-73311789D01*
X140101789Y-73200289D01*
X140189394Y-73069179D01*
X140193535Y-73059183D01*
X140249735Y-72923501D01*
X140249737Y-72923497D01*
X140280500Y-72768842D01*
X140280500Y-72611158D01*
X140280500Y-72611155D01*
X140280499Y-72611153D01*
X140278465Y-72600928D01*
X140249737Y-72456503D01*
X140220276Y-72385379D01*
X140212808Y-72315912D01*
X140244083Y-72253432D01*
X140265944Y-72234828D01*
X140360289Y-72171789D01*
X140471789Y-72060289D01*
X140559394Y-71929179D01*
X140619737Y-71783497D01*
X140650500Y-71628842D01*
X140650500Y-71471158D01*
X140650500Y-71471155D01*
X140650499Y-71471153D01*
X140638277Y-71409711D01*
X140619737Y-71316503D01*
X140575875Y-71210609D01*
X140559396Y-71170825D01*
X140559394Y-71170822D01*
X140559394Y-71170821D01*
X140524694Y-71118889D01*
X140503816Y-71052215D01*
X140522300Y-70984835D01*
X140524676Y-70981136D01*
X140559394Y-70929179D01*
X140619737Y-70783497D01*
X140650500Y-70628842D01*
X140650500Y-70471158D01*
X140650500Y-70471155D01*
X140650499Y-70471153D01*
X140632419Y-70380261D01*
X140619737Y-70316503D01*
X140607941Y-70288025D01*
X140559396Y-70170825D01*
X140559394Y-70170822D01*
X140559394Y-70170821D01*
X140524694Y-70118889D01*
X140503816Y-70052215D01*
X140522300Y-69984835D01*
X140524676Y-69981136D01*
X140559394Y-69929179D01*
X140619737Y-69783497D01*
X140650500Y-69628842D01*
X140650500Y-69471158D01*
X140650500Y-69471155D01*
X140650499Y-69471153D01*
X140619738Y-69316510D01*
X140619737Y-69316503D01*
X140603876Y-69278210D01*
X140559397Y-69170827D01*
X140559390Y-69170814D01*
X140471789Y-69039711D01*
X140471786Y-69039707D01*
X140360292Y-68928213D01*
X140360288Y-68928210D01*
X140344412Y-68917602D01*
X140299607Y-68863990D01*
X140290900Y-68794665D01*
X140321054Y-68731638D01*
X140380497Y-68694918D01*
X140413303Y-68690500D01*
X140690614Y-68690500D01*
X140716867Y-68698209D01*
X140743892Y-68702529D01*
X140752658Y-68708718D01*
X140757653Y-68710185D01*
X140773280Y-68722075D01*
X140775846Y-68724370D01*
X140816986Y-68765510D01*
X140830686Y-68773420D01*
X140840245Y-68781969D01*
X140841306Y-68783679D01*
X140845260Y-68786713D01*
X141943181Y-69884634D01*
X141976666Y-69945957D01*
X141979500Y-69972315D01*
X141979500Y-70028846D01*
X142010261Y-70183489D01*
X142010264Y-70183501D01*
X142070602Y-70329172D01*
X142070609Y-70329185D01*
X142158210Y-70460288D01*
X142158213Y-70460292D01*
X142269707Y-70571786D01*
X142269711Y-70571789D01*
X142400814Y-70659390D01*
X142400827Y-70659397D01*
X142500060Y-70700500D01*
X142546503Y-70719737D01*
X142701153Y-70750499D01*
X142701156Y-70750500D01*
X142701158Y-70750500D01*
X142858844Y-70750500D01*
X142858845Y-70750499D01*
X143013497Y-70719737D01*
X143159179Y-70659394D01*
X143189159Y-70639361D01*
X143255835Y-70618483D01*
X143305502Y-70627902D01*
X143406498Y-70669735D01*
X143406503Y-70669737D01*
X143561153Y-70700499D01*
X143561156Y-70700500D01*
X143561158Y-70700500D01*
X143718844Y-70700500D01*
X143718845Y-70700499D01*
X143873497Y-70669737D01*
X144019179Y-70609394D01*
X144150289Y-70521789D01*
X144261789Y-70410289D01*
X144349394Y-70279179D01*
X144409737Y-70133497D01*
X144440500Y-69978842D01*
X144440500Y-69821158D01*
X144440500Y-69821155D01*
X144440499Y-69821153D01*
X144433810Y-69787525D01*
X144409737Y-69666503D01*
X144409735Y-69666498D01*
X144349397Y-69520827D01*
X144349390Y-69520814D01*
X144261789Y-69389711D01*
X144261786Y-69389707D01*
X144150292Y-69278213D01*
X144150288Y-69278210D01*
X144019185Y-69190609D01*
X144019172Y-69190602D01*
X143873501Y-69130264D01*
X143873489Y-69130261D01*
X143718845Y-69099500D01*
X143718842Y-69099500D01*
X143669386Y-69099500D01*
X143602347Y-69079815D01*
X143581705Y-69063181D01*
X143290395Y-68771871D01*
X143256910Y-68710548D01*
X143261894Y-68640856D01*
X143303766Y-68584923D01*
X143362920Y-68561955D01*
X143362868Y-68561689D01*
X143364381Y-68561387D01*
X143365932Y-68560786D01*
X143368832Y-68560500D01*
X143368842Y-68560500D01*
X143523497Y-68529737D01*
X143669179Y-68469394D01*
X143800289Y-68381789D01*
X143911789Y-68270289D01*
X143999394Y-68139179D01*
X144059737Y-67993497D01*
X144089417Y-67844282D01*
X144121801Y-67782373D01*
X144182517Y-67747799D01*
X144252286Y-67751538D01*
X144298715Y-67780794D01*
X144389707Y-67871786D01*
X144389711Y-67871789D01*
X144520814Y-67959390D01*
X144520827Y-67959397D01*
X144603163Y-67993501D01*
X144666503Y-68019737D01*
X144821153Y-68050499D01*
X144821156Y-68050500D01*
X144821158Y-68050500D01*
X144978844Y-68050500D01*
X144978845Y-68050499D01*
X145133497Y-68019737D01*
X145251592Y-67970821D01*
X145279172Y-67959397D01*
X145279172Y-67959396D01*
X145279179Y-67959394D01*
X145410289Y-67871789D01*
X145521789Y-67760289D01*
X145609394Y-67629179D01*
X145669737Y-67483497D01*
X145700500Y-67328842D01*
X145700500Y-67171158D01*
X145700500Y-67171155D01*
X145700499Y-67171153D01*
X145676521Y-67050609D01*
X145669737Y-67016503D01*
X145665869Y-67007164D01*
X145609397Y-66870827D01*
X145609390Y-66870814D01*
X145521789Y-66739711D01*
X145521786Y-66739707D01*
X145410292Y-66628213D01*
X145410285Y-66628208D01*
X145405808Y-66625216D01*
X145361003Y-66571603D01*
X145352297Y-66502278D01*
X145382453Y-66439251D01*
X145386993Y-66434460D01*
X145536509Y-66284945D01*
X145608325Y-66160555D01*
X145645501Y-66021816D01*
X145645501Y-65937456D01*
X145649726Y-65905362D01*
X145650500Y-65902475D01*
X145650500Y-59532940D01*
X145670185Y-59465901D01*
X145686820Y-59445258D01*
X145721786Y-59410292D01*
X145721789Y-59410289D01*
X145809394Y-59279179D01*
X145869737Y-59133497D01*
X145900500Y-58978842D01*
X145900500Y-58821158D01*
X145900500Y-58821155D01*
X145900499Y-58821153D01*
X145899468Y-58815968D01*
X145869737Y-58666503D01*
X145843377Y-58602863D01*
X145809397Y-58520827D01*
X145809390Y-58520814D01*
X145721789Y-58389711D01*
X145721786Y-58389707D01*
X145610292Y-58278213D01*
X145610288Y-58278210D01*
X145479185Y-58190609D01*
X145479172Y-58190602D01*
X145333501Y-58130264D01*
X145333489Y-58130261D01*
X145178845Y-58099500D01*
X145178842Y-58099500D01*
X145021158Y-58099500D01*
X145021155Y-58099500D01*
X144866510Y-58130261D01*
X144866498Y-58130264D01*
X144720827Y-58190602D01*
X144720814Y-58190609D01*
X144589711Y-58278210D01*
X144589707Y-58278213D01*
X144478213Y-58389707D01*
X144478210Y-58389711D01*
X144390609Y-58520814D01*
X144390602Y-58520827D01*
X144330264Y-58666498D01*
X144330261Y-58666510D01*
X144299500Y-58821153D01*
X144299500Y-58978846D01*
X144330261Y-59133489D01*
X144330264Y-59133501D01*
X144390602Y-59279172D01*
X144390609Y-59279185D01*
X144478210Y-59410288D01*
X144478213Y-59410292D01*
X144513180Y-59445258D01*
X144546666Y-59506580D01*
X144549500Y-59532940D01*
X144549500Y-62539240D01*
X144529815Y-62606279D01*
X144477011Y-62652034D01*
X144407853Y-62661978D01*
X144356610Y-62642342D01*
X144279190Y-62590612D01*
X144279172Y-62590602D01*
X144133501Y-62530264D01*
X144133489Y-62530261D01*
X143978845Y-62499500D01*
X143978842Y-62499500D01*
X143821158Y-62499500D01*
X143821155Y-62499500D01*
X143666510Y-62530261D01*
X143666498Y-62530264D01*
X143520827Y-62590602D01*
X143520814Y-62590609D01*
X143389711Y-62678210D01*
X143389707Y-62678213D01*
X143278213Y-62789707D01*
X143278210Y-62789711D01*
X143190609Y-62920814D01*
X143190602Y-62920827D01*
X143130264Y-63066498D01*
X143130261Y-63066510D01*
X143099500Y-63221153D01*
X143099500Y-63378846D01*
X143130261Y-63533489D01*
X143130264Y-63533501D01*
X143190602Y-63679172D01*
X143190609Y-63679185D01*
X143278210Y-63810288D01*
X143278213Y-63810292D01*
X143389707Y-63921786D01*
X143389711Y-63921789D01*
X143520814Y-64009390D01*
X143520827Y-64009397D01*
X143644828Y-64060759D01*
X143666503Y-64069737D01*
X143821153Y-64100499D01*
X143821156Y-64100500D01*
X143821158Y-64100500D01*
X143978844Y-64100500D01*
X143978845Y-64100499D01*
X144133497Y-64069737D01*
X144279179Y-64009394D01*
X144356609Y-63957657D01*
X144423286Y-63936779D01*
X144490666Y-63955263D01*
X144537357Y-64007242D01*
X144549500Y-64060759D01*
X144549500Y-65677684D01*
X144529815Y-65744723D01*
X144513181Y-65765365D01*
X143355366Y-66923181D01*
X143294043Y-66956666D01*
X143267685Y-66959500D01*
X143211155Y-66959500D01*
X143056510Y-66990261D01*
X143056498Y-66990264D01*
X142910827Y-67050602D01*
X142910814Y-67050609D01*
X142779711Y-67138210D01*
X142779707Y-67138213D01*
X142668213Y-67249707D01*
X142668210Y-67249711D01*
X142580609Y-67380814D01*
X142580602Y-67380827D01*
X142520264Y-67526498D01*
X142520261Y-67526510D01*
X142489498Y-67681159D01*
X142489211Y-67684082D01*
X142488633Y-67685513D01*
X142488311Y-67687132D01*
X142488003Y-67687070D01*
X142463047Y-67748868D01*
X142406011Y-67789224D01*
X142336211Y-67792338D01*
X142278128Y-67759603D01*
X141428016Y-66909491D01*
X141428015Y-66909490D01*
X141302485Y-66837016D01*
X141302486Y-66837016D01*
X141267482Y-66827637D01*
X141162475Y-66799500D01*
X141162472Y-66799500D01*
X136443122Y-66799500D01*
X136376083Y-66779815D01*
X136330328Y-66727011D01*
X136328570Y-66722974D01*
X136319394Y-66700821D01*
X136319390Y-66700814D01*
X136231789Y-66569711D01*
X136231786Y-66569707D01*
X136120292Y-66458213D01*
X136120288Y-66458210D01*
X135989185Y-66370609D01*
X135989172Y-66370602D01*
X135843501Y-66310264D01*
X135843489Y-66310261D01*
X135688845Y-66279500D01*
X135688842Y-66279500D01*
X135531158Y-66279500D01*
X135531155Y-66279500D01*
X135376510Y-66310261D01*
X135376498Y-66310264D01*
X135230827Y-66370602D01*
X135230814Y-66370609D01*
X135099711Y-66458210D01*
X135099707Y-66458213D01*
X134988213Y-66569707D01*
X134988210Y-66569711D01*
X134900609Y-66700814D01*
X134900602Y-66700827D01*
X134840264Y-66846498D01*
X134840261Y-66846510D01*
X134809500Y-67001153D01*
X134809500Y-67158846D01*
X134840261Y-67313489D01*
X134840263Y-67313497D01*
X134881410Y-67412836D01*
X134883569Y-67418047D01*
X134891038Y-67487517D01*
X134859763Y-67549996D01*
X134799674Y-67585648D01*
X134769008Y-67589500D01*
X130842940Y-67589500D01*
X130775901Y-67569815D01*
X130755258Y-67553180D01*
X130720292Y-67518213D01*
X130720288Y-67518210D01*
X130589185Y-67430609D01*
X130589172Y-67430602D01*
X130443501Y-67370264D01*
X130443489Y-67370261D01*
X130288845Y-67339500D01*
X130288842Y-67339500D01*
X130131158Y-67339500D01*
X130131153Y-67339500D01*
X129980368Y-67369493D01*
X129910776Y-67363266D01*
X129855599Y-67320403D01*
X129841618Y-67295334D01*
X129829394Y-67265821D01*
X129818627Y-67249707D01*
X129741789Y-67134710D01*
X129701819Y-67094740D01*
X129668334Y-67033417D01*
X129665500Y-67007059D01*
X129665500Y-64714500D01*
X129685185Y-64647461D01*
X129737989Y-64601706D01*
X129789500Y-64590500D01*
X129793768Y-64590500D01*
X129793769Y-64590499D01*
X129958082Y-64557816D01*
X130112863Y-64493703D01*
X130252162Y-64400626D01*
X130370626Y-64282162D01*
X130463703Y-64142863D01*
X130527816Y-63988082D01*
X130560500Y-63823767D01*
X130560500Y-63656233D01*
X130527816Y-63491918D01*
X130463703Y-63337137D01*
X130386205Y-63221153D01*
X130370626Y-63197837D01*
X130252162Y-63079373D01*
X130112860Y-62986295D01*
X129958082Y-62922184D01*
X129958074Y-62922182D01*
X129793771Y-62889500D01*
X129793767Y-62889500D01*
X129626233Y-62889500D01*
X129626228Y-62889500D01*
X129461925Y-62922182D01*
X129461917Y-62922184D01*
X129307139Y-62986295D01*
X129167837Y-63079373D01*
X129049373Y-63197837D01*
X128956295Y-63337139D01*
X128892184Y-63491917D01*
X128892182Y-63491925D01*
X128859500Y-63656228D01*
X128859500Y-63767683D01*
X128850855Y-63797122D01*
X128844333Y-63827108D01*
X128840577Y-63832124D01*
X128839815Y-63834722D01*
X128823182Y-63855363D01*
X128785056Y-63893490D01*
X128785055Y-63893491D01*
X128683492Y-63995053D01*
X128683490Y-63995055D01*
X128645794Y-64060348D01*
X128645792Y-64060351D01*
X128640374Y-64069737D01*
X128611675Y-64119445D01*
X128577959Y-64245276D01*
X128576557Y-64250505D01*
X128576556Y-64250510D01*
X128574500Y-64258184D01*
X128574500Y-67007059D01*
X128554815Y-67074098D01*
X128538181Y-67094740D01*
X128498213Y-67134707D01*
X128498210Y-67134711D01*
X128410609Y-67265814D01*
X128410602Y-67265827D01*
X128350264Y-67411498D01*
X128350261Y-67411510D01*
X128319500Y-67566153D01*
X128319500Y-67723846D01*
X128350261Y-67878489D01*
X128350264Y-67878501D01*
X128410602Y-68024172D01*
X128410609Y-68024185D01*
X128498210Y-68155288D01*
X128498213Y-68155292D01*
X128609707Y-68266786D01*
X128609711Y-68266789D01*
X128740814Y-68354390D01*
X128740827Y-68354397D01*
X128886498Y-68414735D01*
X128886503Y-68414737D01*
X129041153Y-68445499D01*
X129041156Y-68445500D01*
X129041158Y-68445500D01*
X129198844Y-68445500D01*
X129318326Y-68421733D01*
X129349630Y-68415506D01*
X129419222Y-68421733D01*
X129474399Y-68464596D01*
X129488383Y-68489671D01*
X129500602Y-68519172D01*
X129500609Y-68519185D01*
X129588210Y-68650288D01*
X129588213Y-68650292D01*
X129699707Y-68761786D01*
X129699711Y-68761789D01*
X129830814Y-68849390D01*
X129830827Y-68849397D01*
X129971766Y-68907775D01*
X129976503Y-68909737D01*
X130131153Y-68940499D01*
X130131156Y-68940500D01*
X130131158Y-68940500D01*
X130288844Y-68940500D01*
X130288845Y-68940499D01*
X130443497Y-68909737D01*
X130589179Y-68849394D01*
X130720289Y-68761789D01*
X130755258Y-68726820D01*
X130816580Y-68693334D01*
X130842940Y-68690500D01*
X139286697Y-68690500D01*
X139311741Y-68697853D01*
X139337601Y-68701430D01*
X139344730Y-68707540D01*
X139353736Y-68710185D01*
X139370827Y-68729909D01*
X139390650Y-68746900D01*
X139393343Y-68755894D01*
X139399491Y-68762989D01*
X139403206Y-68788826D01*
X139410695Y-68813833D01*
X139408098Y-68822854D01*
X139409435Y-68832147D01*
X139398591Y-68855891D01*
X139391372Y-68880977D01*
X139383416Y-68889119D01*
X139380410Y-68895703D01*
X139368403Y-68907775D01*
X139362317Y-68913106D01*
X139339711Y-68928211D01*
X139301837Y-68966084D01*
X139298766Y-68968775D01*
X139270630Y-68981807D01*
X139243420Y-68996666D01*
X139237079Y-68997347D01*
X139235367Y-68998141D01*
X139232888Y-68997798D01*
X139217060Y-68999500D01*
X136127525Y-68999500D01*
X136022517Y-69027637D01*
X135987514Y-69037016D01*
X135861986Y-69109489D01*
X135861983Y-69109491D01*
X134034002Y-70937472D01*
X133972679Y-70970957D01*
X133902987Y-70965973D01*
X133847054Y-70924101D01*
X133831760Y-70897244D01*
X133779395Y-70770823D01*
X133779390Y-70770814D01*
X133691789Y-70639711D01*
X133691786Y-70639707D01*
X133580292Y-70528213D01*
X133580288Y-70528210D01*
X133449185Y-70440609D01*
X133449172Y-70440602D01*
X133303501Y-70380264D01*
X133303489Y-70380261D01*
X133148845Y-70349500D01*
X133148842Y-70349500D01*
X132991158Y-70349500D01*
X132991155Y-70349500D01*
X132836510Y-70380261D01*
X132836498Y-70380264D01*
X132690827Y-70440602D01*
X132690814Y-70440609D01*
X132559711Y-70528210D01*
X132559707Y-70528213D01*
X132448213Y-70639707D01*
X132448210Y-70639711D01*
X132360609Y-70770814D01*
X132360602Y-70770827D01*
X132300264Y-70916498D01*
X132300261Y-70916510D01*
X132269500Y-71071153D01*
X132269500Y-71228846D01*
X132300261Y-71383489D01*
X132300264Y-71383501D01*
X132360602Y-71529172D01*
X132360609Y-71529185D01*
X132448210Y-71660288D01*
X132448213Y-71660292D01*
X132559707Y-71771786D01*
X132559711Y-71771789D01*
X132690814Y-71859390D01*
X132690823Y-71859395D01*
X132817244Y-71911760D01*
X132871647Y-71955601D01*
X132893712Y-72021895D01*
X132876433Y-72089594D01*
X132857472Y-72114002D01*
X131058294Y-73913181D01*
X130996971Y-73946666D01*
X130970613Y-73949500D01*
X128797350Y-73949500D01*
X128730311Y-73929815D01*
X128684556Y-73877011D01*
X128674612Y-73807853D01*
X128694248Y-73756609D01*
X128779390Y-73629185D01*
X128779390Y-73629184D01*
X128779394Y-73629179D01*
X128839737Y-73483497D01*
X128870500Y-73328842D01*
X128870500Y-73171158D01*
X128870500Y-73171155D01*
X128870499Y-73171153D01*
X128850215Y-73069179D01*
X128839737Y-73016503D01*
X128801213Y-72923497D01*
X128779397Y-72870827D01*
X128779390Y-72870814D01*
X128691789Y-72739711D01*
X128691786Y-72739707D01*
X128580292Y-72628213D01*
X128580288Y-72628210D01*
X128449185Y-72540609D01*
X128449172Y-72540602D01*
X128303501Y-72480264D01*
X128303489Y-72480261D01*
X128148845Y-72449500D01*
X128148842Y-72449500D01*
X127991158Y-72449500D01*
X127991155Y-72449500D01*
X127836510Y-72480261D01*
X127836498Y-72480264D01*
X127690827Y-72540602D01*
X127690814Y-72540609D01*
X127559711Y-72628210D01*
X127559707Y-72628213D01*
X127448213Y-72739707D01*
X127448210Y-72739711D01*
X127360609Y-72870814D01*
X127360602Y-72870827D01*
X127300264Y-73016498D01*
X127300261Y-73016510D01*
X127269500Y-73171153D01*
X127269500Y-73328846D01*
X127300261Y-73483489D01*
X127300264Y-73483501D01*
X127360602Y-73629172D01*
X127360609Y-73629185D01*
X127445752Y-73756609D01*
X127466630Y-73823286D01*
X127448146Y-73890666D01*
X127396167Y-73937357D01*
X127342650Y-73949500D01*
X124677525Y-73949500D01*
X124572517Y-73977637D01*
X124537514Y-73987016D01*
X124411986Y-74059489D01*
X124411983Y-74059491D01*
X121612181Y-76859294D01*
X121550858Y-76892779D01*
X121481166Y-76887795D01*
X121425233Y-76845923D01*
X121400816Y-76780459D01*
X121400500Y-76771613D01*
X121400500Y-54971153D01*
X140549500Y-54971153D01*
X140549500Y-55128846D01*
X140580261Y-55283489D01*
X140580264Y-55283501D01*
X140640602Y-55429172D01*
X140640609Y-55429185D01*
X140728210Y-55560288D01*
X140728213Y-55560292D01*
X140839707Y-55671786D01*
X140839711Y-55671789D01*
X140970814Y-55759390D01*
X140970827Y-55759397D01*
X141116498Y-55819735D01*
X141116503Y-55819737D01*
X141271153Y-55850499D01*
X141271156Y-55850500D01*
X141271158Y-55850500D01*
X141428844Y-55850500D01*
X141428845Y-55850499D01*
X141583497Y-55819737D01*
X141729179Y-55759394D01*
X141860289Y-55671789D01*
X141971789Y-55560289D01*
X142059394Y-55429179D01*
X142119737Y-55283497D01*
X142150500Y-55128842D01*
X142150500Y-54971158D01*
X142150500Y-54971155D01*
X142150499Y-54971153D01*
X142119738Y-54816510D01*
X142119737Y-54816503D01*
X142119735Y-54816498D01*
X142059397Y-54670827D01*
X142059390Y-54670814D01*
X141971789Y-54539711D01*
X141971786Y-54539707D01*
X141860292Y-54428213D01*
X141860288Y-54428210D01*
X141729185Y-54340609D01*
X141729172Y-54340602D01*
X141583501Y-54280264D01*
X141583489Y-54280261D01*
X141428845Y-54249500D01*
X141428842Y-54249500D01*
X141271158Y-54249500D01*
X141271155Y-54249500D01*
X141116510Y-54280261D01*
X141116498Y-54280264D01*
X140970827Y-54340602D01*
X140970814Y-54340609D01*
X140839711Y-54428210D01*
X140839707Y-54428213D01*
X140728213Y-54539707D01*
X140728210Y-54539711D01*
X140640609Y-54670814D01*
X140640602Y-54670827D01*
X140580264Y-54816498D01*
X140580261Y-54816510D01*
X140549500Y-54971153D01*
X121400500Y-54971153D01*
X121400500Y-50821153D01*
X166299500Y-50821153D01*
X166299500Y-50978846D01*
X166330261Y-51133489D01*
X166330264Y-51133501D01*
X166390602Y-51279172D01*
X166390609Y-51279185D01*
X166478210Y-51410288D01*
X166478213Y-51410292D01*
X166589707Y-51521786D01*
X166589711Y-51521789D01*
X166720814Y-51609390D01*
X166720827Y-51609397D01*
X166866498Y-51669735D01*
X166866503Y-51669737D01*
X167021153Y-51700499D01*
X167021156Y-51700500D01*
X167021158Y-51700500D01*
X167178844Y-51700500D01*
X167178845Y-51700499D01*
X167333497Y-51669737D01*
X167479179Y-51609394D01*
X167610289Y-51521789D01*
X167721789Y-51410289D01*
X167809394Y-51279179D01*
X167869737Y-51133497D01*
X167900500Y-50978842D01*
X167900500Y-50821158D01*
X167900500Y-50821155D01*
X167900499Y-50821153D01*
X167869738Y-50666510D01*
X167869737Y-50666503D01*
X167869735Y-50666498D01*
X167809397Y-50520827D01*
X167809390Y-50520814D01*
X167721789Y-50389711D01*
X167721786Y-50389707D01*
X167610292Y-50278213D01*
X167610288Y-50278210D01*
X167479185Y-50190609D01*
X167479172Y-50190602D01*
X167333501Y-50130264D01*
X167333489Y-50130261D01*
X167178845Y-50099500D01*
X167178842Y-50099500D01*
X167021158Y-50099500D01*
X167021155Y-50099500D01*
X166866510Y-50130261D01*
X166866498Y-50130264D01*
X166720827Y-50190602D01*
X166720814Y-50190609D01*
X166589711Y-50278210D01*
X166589707Y-50278213D01*
X166478213Y-50389707D01*
X166478210Y-50389711D01*
X166390609Y-50520814D01*
X166390602Y-50520827D01*
X166330264Y-50666498D01*
X166330261Y-50666510D01*
X166299500Y-50821153D01*
X121400500Y-50821153D01*
X121400500Y-47521153D01*
X132899500Y-47521153D01*
X132899500Y-47678846D01*
X132930261Y-47833489D01*
X132930264Y-47833501D01*
X132990602Y-47979172D01*
X132990609Y-47979185D01*
X133078210Y-48110288D01*
X133078213Y-48110292D01*
X133189707Y-48221786D01*
X133189711Y-48221789D01*
X133320814Y-48309390D01*
X133320827Y-48309397D01*
X133466498Y-48369735D01*
X133466503Y-48369737D01*
X133621153Y-48400499D01*
X133621156Y-48400500D01*
X133621158Y-48400500D01*
X133778844Y-48400500D01*
X133778845Y-48400499D01*
X133933497Y-48369737D01*
X134079179Y-48309394D01*
X134210289Y-48221789D01*
X134321789Y-48110289D01*
X134409394Y-47979179D01*
X134469737Y-47833497D01*
X134500500Y-47678842D01*
X134500500Y-47521158D01*
X134500500Y-47521155D01*
X134500499Y-47521153D01*
X134469738Y-47366510D01*
X134469737Y-47366503D01*
X134469735Y-47366498D01*
X134409397Y-47220827D01*
X134409390Y-47220814D01*
X134321789Y-47089711D01*
X134321786Y-47089707D01*
X134210292Y-46978213D01*
X134210288Y-46978210D01*
X134079185Y-46890609D01*
X134079172Y-46890602D01*
X133933501Y-46830264D01*
X133933489Y-46830261D01*
X133778845Y-46799500D01*
X133778842Y-46799500D01*
X133621158Y-46799500D01*
X133621155Y-46799500D01*
X133466510Y-46830261D01*
X133466498Y-46830264D01*
X133320827Y-46890602D01*
X133320814Y-46890609D01*
X133189711Y-46978210D01*
X133189707Y-46978213D01*
X133078213Y-47089707D01*
X133078210Y-47089711D01*
X132990609Y-47220814D01*
X132990602Y-47220827D01*
X132930264Y-47366498D01*
X132930261Y-47366510D01*
X132899500Y-47521153D01*
X121400500Y-47521153D01*
X121400500Y-45571153D01*
X131899500Y-45571153D01*
X131899500Y-45728846D01*
X131930261Y-45883489D01*
X131930264Y-45883501D01*
X131990602Y-46029172D01*
X131990609Y-46029185D01*
X132078210Y-46160288D01*
X132078213Y-46160292D01*
X132189707Y-46271786D01*
X132189711Y-46271789D01*
X132320814Y-46359390D01*
X132320827Y-46359397D01*
X132466498Y-46419735D01*
X132466503Y-46419737D01*
X132621153Y-46450499D01*
X132621156Y-46450500D01*
X132621158Y-46450500D01*
X132778844Y-46450500D01*
X132778845Y-46450499D01*
X132933497Y-46419737D01*
X133079179Y-46359394D01*
X133210289Y-46271789D01*
X133321789Y-46160289D01*
X133409394Y-46029179D01*
X133469737Y-45883497D01*
X133500500Y-45728842D01*
X133500500Y-45571158D01*
X133500500Y-45571155D01*
X133500499Y-45571153D01*
X133469738Y-45416510D01*
X133469737Y-45416503D01*
X133469735Y-45416498D01*
X133409397Y-45270827D01*
X133409390Y-45270814D01*
X133395482Y-45250000D01*
X141935000Y-45250000D01*
X144025000Y-45250000D01*
X148800000Y-45250000D01*
X150890000Y-45250000D01*
X150890000Y-43350000D01*
X148800000Y-43350000D01*
X148800000Y-45250000D01*
X144025000Y-45250000D01*
X144025000Y-43350000D01*
X141935000Y-43350000D01*
X141935000Y-45250000D01*
X133395482Y-45250000D01*
X133321789Y-45139711D01*
X133321786Y-45139707D01*
X133210292Y-45028213D01*
X133210288Y-45028210D01*
X133079185Y-44940609D01*
X133079172Y-44940602D01*
X132933501Y-44880264D01*
X132933489Y-44880261D01*
X132778845Y-44849500D01*
X132778842Y-44849500D01*
X132621158Y-44849500D01*
X132621155Y-44849500D01*
X132466510Y-44880261D01*
X132466498Y-44880264D01*
X132320827Y-44940602D01*
X132320814Y-44940609D01*
X132189711Y-45028210D01*
X132189707Y-45028213D01*
X132078213Y-45139707D01*
X132078210Y-45139711D01*
X131990609Y-45270814D01*
X131990602Y-45270827D01*
X131930264Y-45416498D01*
X131930261Y-45416510D01*
X131899500Y-45571153D01*
X121400500Y-45571153D01*
X121400500Y-43081995D01*
X123399500Y-43081995D01*
X123399500Y-43318004D01*
X123399501Y-43318020D01*
X123430306Y-43552010D01*
X123491394Y-43779993D01*
X123581714Y-43998045D01*
X123581719Y-43998056D01*
X123652677Y-44120957D01*
X123699727Y-44202450D01*
X123699729Y-44202453D01*
X123699730Y-44202454D01*
X123843406Y-44389697D01*
X123843412Y-44389704D01*
X124010295Y-44556587D01*
X124010301Y-44556592D01*
X124197550Y-44700273D01*
X124328918Y-44776118D01*
X124401943Y-44818280D01*
X124401948Y-44818282D01*
X124401951Y-44818284D01*
X124620007Y-44908606D01*
X124847986Y-44969693D01*
X125081989Y-45000500D01*
X125081996Y-45000500D01*
X125318004Y-45000500D01*
X125318011Y-45000500D01*
X125552014Y-44969693D01*
X125779993Y-44908606D01*
X125998049Y-44818284D01*
X126202450Y-44700273D01*
X126389699Y-44556592D01*
X126556592Y-44389699D01*
X126700273Y-44202450D01*
X126818284Y-43998049D01*
X126908606Y-43779993D01*
X126969693Y-43552014D01*
X127000500Y-43318011D01*
X127000500Y-43081995D01*
X165399500Y-43081995D01*
X165399500Y-43318004D01*
X165399501Y-43318020D01*
X165430306Y-43552010D01*
X165491394Y-43779993D01*
X165581714Y-43998045D01*
X165581719Y-43998056D01*
X165652677Y-44120957D01*
X165699727Y-44202450D01*
X165699729Y-44202453D01*
X165699730Y-44202454D01*
X165843406Y-44389697D01*
X165843412Y-44389704D01*
X166010295Y-44556587D01*
X166010301Y-44556592D01*
X166197550Y-44700273D01*
X166328918Y-44776118D01*
X166401943Y-44818280D01*
X166401948Y-44818282D01*
X166401951Y-44818284D01*
X166620007Y-44908606D01*
X166847986Y-44969693D01*
X167081989Y-45000500D01*
X167081996Y-45000500D01*
X167318004Y-45000500D01*
X167318011Y-45000500D01*
X167552014Y-44969693D01*
X167779993Y-44908606D01*
X167998049Y-44818284D01*
X168202450Y-44700273D01*
X168389699Y-44556592D01*
X168556592Y-44389699D01*
X168700273Y-44202450D01*
X168818284Y-43998049D01*
X168908606Y-43779993D01*
X168969693Y-43552014D01*
X169000500Y-43318011D01*
X169000500Y-43081989D01*
X168969693Y-42847986D01*
X168908606Y-42620007D01*
X168818284Y-42401951D01*
X168818282Y-42401948D01*
X168818280Y-42401943D01*
X168776118Y-42328918D01*
X168700273Y-42197550D01*
X168556592Y-42010301D01*
X168556587Y-42010295D01*
X168389704Y-41843412D01*
X168389697Y-41843406D01*
X168202454Y-41699730D01*
X168202453Y-41699729D01*
X168202450Y-41699727D01*
X168120957Y-41652677D01*
X167998056Y-41581719D01*
X167998045Y-41581714D01*
X167779993Y-41491394D01*
X167552010Y-41430306D01*
X167318020Y-41399501D01*
X167318017Y-41399500D01*
X167318011Y-41399500D01*
X167081989Y-41399500D01*
X167081983Y-41399500D01*
X167081979Y-41399501D01*
X166847989Y-41430306D01*
X166620006Y-41491394D01*
X166401954Y-41581714D01*
X166401943Y-41581719D01*
X166197545Y-41699730D01*
X166010302Y-41843406D01*
X166010295Y-41843412D01*
X165843412Y-42010295D01*
X165843406Y-42010302D01*
X165699730Y-42197545D01*
X165581719Y-42401943D01*
X165581714Y-42401954D01*
X165491394Y-42620006D01*
X165430306Y-42847989D01*
X165399501Y-43081979D01*
X165399500Y-43081995D01*
X127000500Y-43081995D01*
X127000500Y-43081989D01*
X126969693Y-42847986D01*
X126908606Y-42620007D01*
X126818284Y-42401951D01*
X126818282Y-42401948D01*
X126818280Y-42401943D01*
X126776118Y-42328918D01*
X126700273Y-42197550D01*
X126556592Y-42010301D01*
X126556587Y-42010295D01*
X126389704Y-41843412D01*
X126389697Y-41843406D01*
X126202454Y-41699730D01*
X126202453Y-41699729D01*
X126202450Y-41699727D01*
X126120957Y-41652677D01*
X125998056Y-41581719D01*
X125998045Y-41581714D01*
X125779993Y-41491394D01*
X125552010Y-41430306D01*
X125318020Y-41399501D01*
X125318017Y-41399500D01*
X125318011Y-41399500D01*
X125081989Y-41399500D01*
X125081983Y-41399500D01*
X125081979Y-41399501D01*
X124847989Y-41430306D01*
X124620006Y-41491394D01*
X124401954Y-41581714D01*
X124401943Y-41581719D01*
X124197545Y-41699730D01*
X124010302Y-41843406D01*
X124010295Y-41843412D01*
X123843412Y-42010295D01*
X123843406Y-42010302D01*
X123699730Y-42197545D01*
X123581719Y-42401943D01*
X123581714Y-42401954D01*
X123491394Y-42620006D01*
X123430306Y-42847989D01*
X123399501Y-43081979D01*
X123399500Y-43081995D01*
X121400500Y-43081995D01*
X121400500Y-39524500D01*
X121420185Y-39457461D01*
X121472989Y-39411706D01*
X121524500Y-39400500D01*
X170875500Y-39400500D01*
X170942539Y-39420185D01*
G37*
%TD.AperFunction*%
%TD*%
M02*
