%TF.GenerationSoftware,KiCad,Pcbnew,9.0.0*%
%TF.CreationDate,2025-06-08T22:37:43-05:00*%
%TF.ProjectId,flight-computer-one,666c6967-6874-42d6-936f-6d7075746572,rev?*%
%TF.SameCoordinates,Original*%
%TF.FileFunction,Soldermask,Top*%
%TF.FilePolarity,Negative*%
%FSLAX46Y46*%
G04 Gerber Fmt 4.6, Leading zero omitted, Abs format (unit mm)*
G04 Created by KiCad (PCBNEW 9.0.0) date 2025-06-08 22:37:43*
%MOMM*%
%LPD*%
G01*
G04 APERTURE LIST*
G04 Aperture macros list*
%AMRoundRect*
0 Rectangle with rounded corners*
0 $1 Rounding radius*
0 $2 $3 $4 $5 $6 $7 $8 $9 X,Y pos of 4 corners*
0 Add a 4 corners polygon primitive as box body*
4,1,4,$2,$3,$4,$5,$6,$7,$8,$9,$2,$3,0*
0 Add four circle primitives for the rounded corners*
1,1,$1+$1,$2,$3*
1,1,$1+$1,$4,$5*
1,1,$1+$1,$6,$7*
1,1,$1+$1,$8,$9*
0 Add four rect primitives between the rounded corners*
20,1,$1+$1,$2,$3,$4,$5,0*
20,1,$1+$1,$4,$5,$6,$7,0*
20,1,$1+$1,$6,$7,$8,$9,0*
20,1,$1+$1,$8,$9,$2,$3,0*%
G04 Aperture macros list end*
%ADD10RoundRect,0.263100X0.288100X-0.263100X0.288100X0.263100X-0.288100X0.263100X-0.288100X-0.263100X0*%
%ADD11RoundRect,0.238100X-0.238100X-0.313100X0.238100X-0.313100X0.238100X0.313100X-0.238100X0.313100X0*%
%ADD12RoundRect,0.076200X-0.381000X-0.507000X0.381000X-0.507000X0.381000X0.507000X-0.381000X0.507000X0*%
%ADD13RoundRect,0.076200X-1.145000X0.507000X-1.145000X-0.507000X1.145000X-0.507000X1.145000X0.507000X0*%
%ADD14RoundRect,0.076200X-1.200000X-0.370000X1.200000X-0.370000X1.200000X0.370000X-1.200000X0.370000X0*%
%ADD15RoundRect,0.288100X-0.313100X-0.288100X0.313100X-0.288100X0.313100X0.288100X-0.313100X0.288100X0*%
%ADD16RoundRect,0.286286X-0.889914X-0.314914X0.889914X-0.314914X0.889914X0.314914X-0.889914X0.314914X0*%
%ADD17RoundRect,0.088100X-0.425600X-0.088100X0.425600X-0.088100X0.425600X0.088100X-0.425600X0.088100X0*%
%ADD18RoundRect,0.088100X-0.088100X-0.425600X0.088100X-0.425600X0.088100X0.425600X-0.088100X0.425600X0*%
%ADD19RoundRect,0.076200X-2.350000X-2.350000X2.350000X-2.350000X2.350000X2.350000X-2.350000X2.350000X0*%
%ADD20RoundRect,0.238100X0.238100X0.313100X-0.238100X0.313100X-0.238100X-0.313100X0.238100X-0.313100X0*%
%ADD21RoundRect,0.213100X0.763100X0.213100X-0.763100X0.213100X-0.763100X-0.213100X0.763100X-0.213100X0*%
%ADD22RoundRect,0.238100X0.738100X0.238100X-0.738100X0.238100X-0.738100X-0.238100X0.738100X-0.238100X0*%
%ADD23RoundRect,0.263100X-0.288100X0.263100X-0.288100X-0.263100X0.288100X-0.263100X0.288100X0.263100X0*%
%ADD24RoundRect,0.238100X0.313100X-0.238100X0.313100X0.238100X-0.313100X0.238100X-0.313100X-0.238100X0*%
%ADD25RoundRect,0.263100X-0.263100X-0.288100X0.263100X-0.288100X0.263100X0.288100X-0.263100X0.288100X0*%
%ADD26RoundRect,0.238100X-0.313100X0.238100X-0.313100X-0.238100X0.313100X-0.238100X0.313100X0.238100X0*%
%ADD27C,3.352400*%
%ADD28RoundRect,0.076200X-0.325000X0.525000X-0.325000X-0.525000X0.325000X-0.525000X0.325000X0.525000X0*%
%ADD29RoundRect,0.075551X-0.150649X0.225649X-0.150649X-0.225649X0.150649X-0.225649X0.150649X0.225649X0*%
%ADD30RoundRect,0.075551X-0.150649X0.375649X-0.150649X-0.375649X0.150649X-0.375649X0.150649X0.375649X0*%
%ADD31RoundRect,0.058427X-0.492773X0.517773X-0.492773X-0.517773X0.492773X-0.517773X0.492773X0.517773X0*%
%ADD32RoundRect,0.256850X-0.294350X0.256850X-0.294350X-0.256850X0.294350X-0.256850X0.294350X0.256850X0*%
%ADD33RoundRect,0.175600X-0.700600X0.175600X-0.700600X-0.175600X0.700600X-0.175600X0.700600X0.175600X0*%
%ADD34C,0.802400*%
%ADD35RoundRect,0.188100X0.463100X-0.188100X0.463100X0.188100X-0.463100X0.188100X-0.463100X-0.188100X0*%
%ADD36RoundRect,0.113100X0.538100X-0.113100X0.538100X0.113100X-0.538100X0.113100X-0.538100X-0.113100X0*%
%ADD37RoundRect,0.269050X0.807150X-0.897150X0.807150X0.897150X-0.807150X0.897150X-0.807150X-0.897150X0*%
%ADD38RoundRect,0.076200X-0.750000X1.000000X-0.750000X-1.000000X0.750000X-1.000000X0.750000X1.000000X0*%
%ADD39RoundRect,0.263100X0.263100X0.288100X-0.263100X0.288100X-0.263100X-0.288100X0.263100X-0.288100X0*%
%ADD40RoundRect,0.288100X0.313100X0.288100X-0.313100X0.288100X-0.313100X-0.288100X0.313100X-0.288100X0*%
%ADD41RoundRect,0.286286X0.889914X0.314914X-0.889914X0.314914X-0.889914X-0.314914X0.889914X-0.314914X0*%
%ADD42RoundRect,0.125600X-0.288100X-0.125600X0.288100X-0.125600X0.288100X0.125600X-0.288100X0.125600X0*%
%ADD43RoundRect,0.256850X0.256850X0.294350X-0.256850X0.294350X-0.256850X-0.294350X0.256850X-0.294350X0*%
%ADD44RoundRect,0.076200X0.250000X0.150000X-0.250000X0.150000X-0.250000X-0.150000X0.250000X-0.150000X0*%
%ADD45RoundRect,0.163100X-0.575600X-0.163100X0.575600X-0.163100X0.575600X0.163100X-0.575600X0.163100X0*%
%ADD46RoundRect,0.288100X0.288100X0.513100X-0.288100X0.513100X-0.288100X-0.513100X0.288100X-0.513100X0*%
%ADD47RoundRect,0.076200X0.600000X-0.350000X0.600000X0.350000X-0.600000X0.350000X-0.600000X-0.350000X0*%
%ADD48RoundRect,0.076200X0.400000X-0.500000X0.400000X0.500000X-0.400000X0.500000X-0.400000X-0.500000X0*%
%ADD49RoundRect,0.076200X0.600000X-0.500000X0.600000X0.500000X-0.600000X0.500000X-0.600000X-0.500000X0*%
%ADD50RoundRect,0.076200X1.400000X-0.500000X1.400000X0.500000X-1.400000X0.500000X-1.400000X-0.500000X0*%
%ADD51RoundRect,0.076200X0.950000X-0.650000X0.950000X0.650000X-0.950000X0.650000X-0.950000X-0.650000X0*%
%ADD52RoundRect,0.076200X0.300000X-0.150000X0.300000X0.150000X-0.300000X0.150000X-0.300000X-0.150000X0*%
%ADD53RoundRect,0.076200X-0.150000X-0.300000X0.150000X-0.300000X0.150000X0.300000X-0.150000X0.300000X0*%
%ADD54RoundRect,0.288100X-0.288100X-0.513100X0.288100X-0.513100X0.288100X0.513100X-0.288100X0.513100X0*%
%ADD55RoundRect,0.075551X0.225649X0.150649X-0.225649X0.150649X-0.225649X-0.150649X0.225649X-0.150649X0*%
%ADD56RoundRect,0.075551X0.375649X0.150649X-0.375649X0.150649X-0.375649X-0.150649X0.375649X-0.150649X0*%
%ADD57RoundRect,0.058427X0.517773X0.492773X-0.517773X0.492773X-0.517773X-0.492773X0.517773X-0.492773X0*%
%ADD58RoundRect,0.076200X0.275000X-0.475000X0.275000X0.475000X-0.275000X0.475000X-0.275000X-0.475000X0*%
%ADD59RoundRect,0.150600X0.150600X-0.450600X0.150600X0.450600X-0.150600X0.450600X-0.150600X-0.450600X0*%
%ADD60RoundRect,0.288100X-0.513100X0.288100X-0.513100X-0.288100X0.513100X-0.288100X0.513100X0.288100X0*%
%ADD61RoundRect,0.138100X-0.138100X0.463100X-0.138100X-0.463100X0.138100X-0.463100X0.138100X0.463100X0*%
%ADD62RoundRect,0.088100X-0.288100X0.088100X-0.288100X-0.088100X0.288100X-0.088100X0.288100X0.088100X0*%
%ADD63RoundRect,0.188100X0.550600X0.188100X-0.550600X0.188100X-0.550600X-0.188100X0.550600X-0.188100X0*%
%ADD64RoundRect,0.076200X0.337800X-0.127000X0.337800X0.127000X-0.337800X0.127000X-0.337800X-0.127000X0*%
%ADD65RoundRect,0.076200X0.337800X-0.126996X0.337800X0.126996X-0.337800X0.126996X-0.337800X-0.126996X0*%
%ADD66RoundRect,0.076200X0.337800X-0.126999X0.337800X0.126999X-0.337800X0.126999X-0.337800X-0.126999X0*%
%ADD67RoundRect,0.076200X0.127000X0.335000X-0.127000X0.335000X-0.127000X-0.335000X0.127000X-0.335000X0*%
%ADD68RoundRect,0.256850X0.294350X-0.256850X0.294350X0.256850X-0.294350X0.256850X-0.294350X-0.256850X0*%
%ADD69C,1.152400*%
%ADD70RoundRect,0.076200X-0.175000X0.187500X-0.175000X-0.187500X0.175000X-0.187500X0.175000X0.187500X0*%
%ADD71RoundRect,0.076200X-0.187500X-0.175000X0.187500X-0.175000X0.187500X0.175000X-0.187500X0.175000X0*%
%ADD72RoundRect,0.264654X1.111546X-1.111546X1.111546X1.111546X-1.111546X1.111546X-1.111546X-1.111546X0*%
%ADD73C,2.752400*%
%ADD74RoundRect,0.264654X-1.111546X1.111546X-1.111546X-1.111546X1.111546X-1.111546X1.111546X1.111546X0*%
G04 APERTURE END LIST*
%TO.C,J6*%
G36*
X141935000Y-43360000D02*
G01*
X144025000Y-43360000D01*
X144025000Y-45240000D01*
X141935000Y-45240000D01*
X141935000Y-43360000D01*
G37*
%TO.C,J7*%
G36*
X150890000Y-45240000D02*
G01*
X148800000Y-45240000D01*
X148800000Y-43360000D01*
X150890000Y-43360000D01*
X150890000Y-45240000D01*
G37*
%TD*%
D10*
%TO.C,C5*%
X164314252Y-106580403D03*
X164314252Y-108130403D03*
%TD*%
D11*
%TO.C,R11*%
X162839252Y-106555403D03*
X161189252Y-106555403D03*
%TD*%
%TO.C,R10*%
X162839252Y-108155403D03*
X161189252Y-108155403D03*
%TD*%
D12*
%TO.C,R8*%
X159110000Y-105080000D03*
D13*
X157203000Y-105080000D03*
X157203000Y-106856000D03*
D12*
X159110000Y-106856000D03*
%TD*%
D14*
%TO.C,J4*%
X143100000Y-55080000D03*
X147000000Y-55080000D03*
X143100000Y-56350000D03*
X147000000Y-56350000D03*
X143100000Y-57620000D03*
X147000000Y-57620000D03*
X143100000Y-58890000D03*
X147000000Y-58890000D03*
X143100000Y-60160000D03*
X147000000Y-60160000D03*
%TD*%
D15*
%TO.C,J6*%
X141400000Y-44300000D03*
D16*
X142925000Y-42825000D03*
X142925000Y-45775000D03*
%TD*%
D17*
%TO.C,U1*%
X141037500Y-69562500D03*
X141037500Y-70062500D03*
X141037500Y-70562500D03*
X141037500Y-71062500D03*
X141037500Y-71562500D03*
X141037500Y-72062500D03*
X141037500Y-72562500D03*
X141037500Y-73062500D03*
X141037500Y-73562500D03*
X141037500Y-74062500D03*
X141037500Y-74562500D03*
X141037500Y-75062500D03*
X141037500Y-75562500D03*
X141037500Y-76062500D03*
X141037500Y-76562500D03*
X141037500Y-77062500D03*
D18*
X141700000Y-77725000D03*
X142200000Y-77725000D03*
X142700000Y-77725000D03*
X143200000Y-77725000D03*
X143700000Y-77725000D03*
X144200000Y-77725000D03*
X144700000Y-77725000D03*
X145200000Y-77725000D03*
X145700000Y-77725000D03*
X146200000Y-77725000D03*
X146700000Y-77725000D03*
X147200000Y-77725000D03*
X147700000Y-77725000D03*
X148200000Y-77725000D03*
X148700000Y-77725000D03*
X149200000Y-77725000D03*
D17*
X149862500Y-77062500D03*
X149862500Y-76562500D03*
X149862500Y-76062500D03*
X149862500Y-75562500D03*
X149862500Y-75062500D03*
X149862500Y-74562500D03*
X149862500Y-74062500D03*
X149862500Y-73562500D03*
X149862500Y-73062500D03*
X149862500Y-72562500D03*
X149862500Y-72062500D03*
X149862500Y-71562500D03*
X149862500Y-71062500D03*
X149862500Y-70562500D03*
X149862500Y-70062500D03*
X149862500Y-69562500D03*
D18*
X149200000Y-68900000D03*
X148700000Y-68900000D03*
X148200000Y-68900000D03*
X147700000Y-68900000D03*
X147200000Y-68900000D03*
X146700000Y-68900000D03*
X146200000Y-68900000D03*
X145700000Y-68900000D03*
X145200000Y-68900000D03*
X144700000Y-68900000D03*
X144200000Y-68900000D03*
X143700000Y-68900000D03*
X143200000Y-68900000D03*
X142700000Y-68900000D03*
X142200000Y-68900000D03*
X141700000Y-68900000D03*
D19*
X145450000Y-73312500D03*
%TD*%
D20*
%TO.C,R35*%
X143265000Y-89680000D03*
X141615000Y-89680000D03*
%TD*%
D21*
%TO.C,U13*%
X168950000Y-58600000D03*
D22*
X168950000Y-57500000D03*
X168950000Y-56400000D03*
X168950000Y-55300000D03*
X168950000Y-54200000D03*
X168950000Y-53100000D03*
X168950000Y-52000000D03*
X168950000Y-50900000D03*
D21*
X168950000Y-49800000D03*
X159450000Y-49800000D03*
D22*
X159450000Y-50900000D03*
X159450000Y-52000000D03*
X159450000Y-53100000D03*
X159450000Y-54200000D03*
X159450000Y-55300000D03*
X159450000Y-56400000D03*
X159450000Y-57500000D03*
D21*
X159450000Y-58600000D03*
%TD*%
D23*
%TO.C,C11*%
X147300000Y-65675000D03*
X147300000Y-67225000D03*
%TD*%
%TO.C,C19*%
X125527800Y-85615000D03*
X125527800Y-87165000D03*
%TD*%
D11*
%TO.C,R36*%
X166765000Y-103650000D03*
X168415000Y-103650000D03*
%TD*%
D24*
%TO.C,R32*%
X132500000Y-106650000D03*
X132500000Y-105000000D03*
%TD*%
D25*
%TO.C,C10*%
X151975000Y-59200000D03*
X153525000Y-59200000D03*
%TD*%
D26*
%TO.C,R4*%
X160625000Y-72312500D03*
X160625000Y-73962500D03*
%TD*%
D27*
%TO.C,H4*%
X167200000Y-135200000D03*
%TD*%
D25*
%TO.C,C14*%
X151350000Y-69350000D03*
X152900000Y-69350000D03*
%TD*%
D28*
%TO.C,SW2*%
X147855000Y-81435000D03*
X147855000Y-85585000D03*
X145705000Y-81435000D03*
X145705000Y-85560000D03*
%TD*%
D29*
%TO.C,Q3*%
X137700000Y-114800000D03*
X137050000Y-114800000D03*
X136400000Y-114800000D03*
X136400000Y-116750000D03*
X137050000Y-116750000D03*
X137700000Y-116750000D03*
D30*
X136400000Y-115870000D03*
D31*
X137375000Y-115775000D03*
%TD*%
D32*
%TO.C,FB1*%
X159100000Y-72350000D03*
X159100000Y-73925000D03*
%TD*%
D29*
%TO.C,Q2*%
X135150000Y-104800000D03*
X134500000Y-104800000D03*
X133850000Y-104800000D03*
X133850000Y-106750000D03*
X134500000Y-106750000D03*
X135150000Y-106750000D03*
D30*
X133850000Y-105870000D03*
D31*
X134825000Y-105775000D03*
%TD*%
D10*
%TO.C,C22*%
X131570000Y-70225000D03*
X131570000Y-68675000D03*
%TD*%
D20*
%TO.C,R16*%
X165825000Y-98600000D03*
X164175000Y-98600000D03*
%TD*%
D33*
%TO.C,L1*%
X156200000Y-114575000D03*
X156200000Y-116025000D03*
%TD*%
D28*
%TO.C,SW1*%
X154150000Y-53445000D03*
X154150000Y-57595000D03*
X152000000Y-53445000D03*
X152000000Y-57570000D03*
%TD*%
D34*
%TO.C,J3*%
X164885000Y-72990000D03*
X164885000Y-67210000D03*
D35*
X163810000Y-73300000D03*
X163810000Y-72500000D03*
D36*
X163810000Y-71350000D03*
X163810000Y-70350000D03*
X163810000Y-69850000D03*
X163810000Y-68850000D03*
D35*
X163810000Y-67700000D03*
X163810000Y-66900000D03*
X163810000Y-66900000D03*
X163810000Y-67700000D03*
D36*
X163810000Y-68350000D03*
X163810000Y-69350000D03*
X163810000Y-70850000D03*
X163810000Y-71850000D03*
D35*
X163810000Y-72500000D03*
X163810000Y-73300000D03*
D37*
X164385000Y-75210000D03*
X168315000Y-75210000D03*
X164385000Y-64990000D03*
X168315000Y-64990000D03*
%TD*%
D29*
%TO.C,Q4*%
X135000000Y-114800000D03*
X134350000Y-114800000D03*
X133700000Y-114800000D03*
X133700000Y-116750000D03*
X134350000Y-116750000D03*
X135000000Y-116750000D03*
D30*
X133700000Y-115870000D03*
D31*
X134675000Y-115775000D03*
%TD*%
D26*
%TO.C,R23*%
X134550000Y-101980000D03*
X134550000Y-103630000D03*
%TD*%
D38*
%TO.C,U12*%
X137700000Y-49300000D03*
X135700000Y-49300000D03*
X133700000Y-49300000D03*
X131700000Y-49300000D03*
X129700000Y-49300000D03*
X127700000Y-49300000D03*
X125700000Y-49300000D03*
X123700000Y-49300000D03*
X123700000Y-65300000D03*
X125700000Y-65300000D03*
X127700000Y-65300000D03*
X129700000Y-65300000D03*
X131700000Y-65300000D03*
X133700000Y-65300000D03*
X135700000Y-65300000D03*
X137700000Y-65300000D03*
%TD*%
D20*
%TO.C,R31*%
X133825000Y-118100000D03*
X132175000Y-118100000D03*
%TD*%
D39*
%TO.C,C15*%
X139505000Y-73540000D03*
X137955000Y-73540000D03*
%TD*%
D40*
%TO.C,J7*%
X151425000Y-44300000D03*
D41*
X149900000Y-45775000D03*
X149900000Y-42825000D03*
%TD*%
D39*
%TO.C,C28*%
X138575000Y-123300000D03*
X137025000Y-123300000D03*
%TD*%
%TO.C,C17*%
X135445000Y-88130000D03*
X133895000Y-88130000D03*
%TD*%
D24*
%TO.C,R28*%
X133050000Y-103630000D03*
X133050000Y-101980000D03*
%TD*%
D42*
%TO.C,U4*%
X157975000Y-113600000D03*
X157975000Y-114100000D03*
X157975000Y-114600000D03*
X159400000Y-114600000D03*
X159400000Y-114100000D03*
X159400000Y-113600000D03*
%TD*%
D25*
%TO.C,C3*%
X156025000Y-73887500D03*
X157575000Y-73887500D03*
%TD*%
D10*
%TO.C,C20*%
X133095000Y-70225000D03*
X133095000Y-68675000D03*
%TD*%
D27*
%TO.C,H1*%
X125200000Y-43200000D03*
%TD*%
D29*
%TO.C,Q1*%
X137700000Y-104800000D03*
X137050000Y-104800000D03*
X136400000Y-104800000D03*
X136400000Y-106750000D03*
X137050000Y-106750000D03*
X137700000Y-106750000D03*
D30*
X136400000Y-105870000D03*
D31*
X137375000Y-105775000D03*
%TD*%
D20*
%TO.C,R13*%
X160925000Y-112000000D03*
X159275000Y-112000000D03*
%TD*%
D23*
%TO.C,C16*%
X143700000Y-79200000D03*
X143700000Y-80750000D03*
%TD*%
D39*
%TO.C,C25*%
X141225000Y-87800000D03*
X139675000Y-87800000D03*
%TD*%
D24*
%TO.C,R29*%
X133050000Y-113600000D03*
X133050000Y-111950000D03*
%TD*%
D43*
%TO.C,D3*%
X157587500Y-77600000D03*
X156012500Y-77600000D03*
%TD*%
D20*
%TO.C,R6*%
X161537500Y-79137500D03*
X159887500Y-79137500D03*
%TD*%
D25*
%TO.C,R5*%
X160225000Y-102520000D03*
X161775000Y-102520000D03*
%TD*%
D44*
%TO.C,U10*%
X130592500Y-81950000D03*
X130592500Y-81150000D03*
X129192500Y-81150000D03*
X129192500Y-81950000D03*
%TD*%
D26*
%TO.C,R19*%
X131700000Y-45625000D03*
X131700000Y-47275000D03*
%TD*%
D25*
%TO.C,C26*%
X139675000Y-86250000D03*
X141225000Y-86250000D03*
%TD*%
D20*
%TO.C,R18*%
X157625000Y-79200000D03*
X155975000Y-79200000D03*
%TD*%
D10*
%TO.C,C7*%
X169372181Y-108006104D03*
X169372181Y-106456104D03*
%TD*%
D24*
%TO.C,R27*%
X136050000Y-113600000D03*
X136050000Y-111950000D03*
%TD*%
D20*
%TO.C,R30*%
X134175000Y-108105000D03*
X132525000Y-108105000D03*
%TD*%
D45*
%TO.C,U11*%
X130012500Y-122400000D03*
X130012500Y-123050000D03*
X130012500Y-123700000D03*
X130012500Y-124350000D03*
X132287500Y-124350000D03*
X132287500Y-123700000D03*
X132287500Y-123050000D03*
X132287500Y-122400000D03*
%TD*%
D23*
%TO.C,C27*%
X127892500Y-80775000D03*
X127892500Y-82325000D03*
%TD*%
D46*
%TO.C,C4*%
X157571500Y-112015000D03*
X155671500Y-112015000D03*
%TD*%
D47*
%TO.C,J5*%
X153710000Y-87255000D03*
X153710000Y-88355000D03*
X153710000Y-89455000D03*
X153710000Y-90555000D03*
X153710000Y-91655000D03*
X153710000Y-92755000D03*
X153710000Y-93855000D03*
X153710000Y-94955000D03*
X153710000Y-95905000D03*
D48*
X164210000Y-96855000D03*
D49*
X158010000Y-96855000D03*
D50*
X168360000Y-96855000D03*
D49*
X153710000Y-85705000D03*
D51*
X168810000Y-83355000D03*
%TD*%
D24*
%TO.C,R26*%
X136050000Y-103630000D03*
X136050000Y-101980000D03*
%TD*%
D39*
%TO.C,C21*%
X129620000Y-72350000D03*
X128070000Y-72350000D03*
%TD*%
D26*
%TO.C,R20*%
X135400000Y-120975000D03*
X135400000Y-122625000D03*
%TD*%
D52*
%TO.C,U9*%
X127370000Y-68800000D03*
X127370000Y-69300000D03*
X127370000Y-69800000D03*
X127370000Y-70300000D03*
D53*
X128020000Y-70450000D03*
X128520000Y-70450000D03*
X129020000Y-70450000D03*
D52*
X129670000Y-70300000D03*
X129670000Y-69800000D03*
X129670000Y-69300000D03*
X129670000Y-68800000D03*
D53*
X129020000Y-68650000D03*
X128520000Y-68650000D03*
X128020000Y-68650000D03*
%TD*%
D54*
%TO.C,C8*%
X156000000Y-117600000D03*
X157900000Y-117600000D03*
%TD*%
D11*
%TO.C,R37*%
X163425000Y-103680000D03*
X165075000Y-103680000D03*
%TD*%
D23*
%TO.C,C13*%
X151500000Y-76175000D03*
X151500000Y-77725000D03*
%TD*%
D27*
%TO.C,H3*%
X125200000Y-135200000D03*
%TD*%
D24*
%TO.C,R7*%
X162100000Y-121350000D03*
X162100000Y-119700000D03*
%TD*%
D55*
%TO.C,Q5*%
X143440000Y-92480000D03*
X143440000Y-91830000D03*
X143440000Y-91180000D03*
X141490000Y-91180000D03*
X141490000Y-91830000D03*
X141490000Y-92480000D03*
D56*
X142370000Y-91180000D03*
D57*
X142465000Y-92155000D03*
%TD*%
D20*
%TO.C,R3*%
X160750000Y-67287500D03*
X159100000Y-67287500D03*
%TD*%
D23*
%TO.C,C24*%
X138450000Y-83175000D03*
X138450000Y-84725000D03*
%TD*%
D27*
%TO.C,H2*%
X167200000Y-43200000D03*
%TD*%
D10*
%TO.C,C18*%
X130727800Y-87715000D03*
X130727800Y-86165000D03*
%TD*%
D25*
%TO.C,C2*%
X156025000Y-72337500D03*
X157575000Y-72337500D03*
%TD*%
D58*
%TO.C,U7*%
X132817500Y-86532500D03*
X134067500Y-86532500D03*
X135317500Y-86532500D03*
X136567500Y-86532500D03*
X136567500Y-84382500D03*
X135317500Y-84382500D03*
X134067500Y-84382500D03*
X132817500Y-84382500D03*
%TD*%
D59*
%TO.C,U5*%
X165822181Y-108031104D03*
X166472181Y-108031104D03*
X167122181Y-108031104D03*
X167772181Y-108031104D03*
X167772181Y-105431104D03*
X167122181Y-105431104D03*
X166472181Y-105431104D03*
X165822181Y-105431104D03*
%TD*%
D26*
%TO.C,R22*%
X137550000Y-101980000D03*
X137550000Y-103630000D03*
%TD*%
%TO.C,R34*%
X144777500Y-89492500D03*
X144777500Y-91142500D03*
%TD*%
%TO.C,R2*%
X133600000Y-80375000D03*
X133600000Y-82025000D03*
%TD*%
D60*
%TO.C,C23*%
X142950000Y-83100000D03*
X142950000Y-85000000D03*
%TD*%
D20*
%TO.C,R17*%
X147385000Y-87200000D03*
X145735000Y-87200000D03*
%TD*%
%TO.C,R15*%
X153575000Y-60800000D03*
X151925000Y-60800000D03*
%TD*%
D61*
%TO.C,U3*%
X158100000Y-101070000D03*
X157400000Y-101070000D03*
D62*
X156600000Y-100995000D03*
X156600000Y-101495000D03*
X156600000Y-101995000D03*
X156600000Y-102495000D03*
D61*
X157400000Y-102420000D03*
X158100000Y-102420000D03*
D62*
X158900000Y-102495000D03*
X158900000Y-101995000D03*
X158900000Y-101495000D03*
X158900000Y-100995000D03*
%TD*%
D26*
%TO.C,R21*%
X135400000Y-123975000D03*
X135400000Y-125625000D03*
%TD*%
%TO.C,R25*%
X134550000Y-111950000D03*
X134550000Y-113600000D03*
%TD*%
D63*
%TO.C,U2*%
X160462500Y-70837500D03*
X160462500Y-69887500D03*
X160462500Y-68937500D03*
X158187500Y-68937500D03*
X158187500Y-69887500D03*
X158187500Y-70837500D03*
%TD*%
D26*
%TO.C,R24*%
X137550000Y-111950000D03*
X137550000Y-113600000D03*
%TD*%
D43*
%TO.C,D1*%
X161500000Y-77537500D03*
X159925000Y-77537500D03*
%TD*%
D26*
%TO.C,R1*%
X132000000Y-80375000D03*
X132000000Y-82025000D03*
%TD*%
D64*
%TO.C,U6*%
X126875600Y-88140000D03*
D65*
X126875600Y-87639997D03*
D66*
X126875600Y-87139998D03*
D64*
X126875600Y-86640000D03*
X126875600Y-86140001D03*
X126875600Y-85639999D03*
X126875600Y-85140000D03*
D67*
X128127800Y-84635000D03*
D64*
X129380000Y-85140000D03*
X129380000Y-85639999D03*
X129380000Y-86140001D03*
X129380000Y-86640000D03*
X129380000Y-87139999D03*
D66*
X129380000Y-87640000D03*
D64*
X129380000Y-88140000D03*
D67*
X128127800Y-88645000D03*
%TD*%
D68*
%TO.C,D2*%
X160500000Y-121297500D03*
X160500000Y-119722500D03*
%TD*%
D23*
%TO.C,C6*%
X160800000Y-115525000D03*
X160800000Y-117075000D03*
%TD*%
D10*
%TO.C,C12*%
X145750000Y-67232500D03*
X145750000Y-65682500D03*
%TD*%
D69*
%TO.C,TP1*%
X158500000Y-119750000D03*
%TD*%
D11*
%TO.C,R12*%
X162475000Y-112000000D03*
X164125000Y-112000000D03*
%TD*%
D20*
%TO.C,R9*%
X162312500Y-113912500D03*
X160662500Y-113912500D03*
%TD*%
D70*
%TO.C,U8*%
X141300000Y-83387500D03*
X140800000Y-83387500D03*
X140300000Y-83387500D03*
X139800000Y-83387500D03*
D71*
X139787500Y-83900000D03*
X139787500Y-84400000D03*
D70*
X139800000Y-84912500D03*
X140300000Y-84912500D03*
X140800000Y-84912500D03*
X141300000Y-84912500D03*
D71*
X141312500Y-84400000D03*
X141312500Y-83900000D03*
%TD*%
D20*
%TO.C,R14*%
X143900000Y-62270000D03*
X142250000Y-62270000D03*
%TD*%
D24*
%TO.C,R33*%
X132250000Y-116625000D03*
X132250000Y-114975000D03*
%TD*%
D25*
%TO.C,C1*%
X160225000Y-100920000D03*
X161775000Y-100920000D03*
%TD*%
D72*
%TO.C,J2*%
X140500000Y-135800000D03*
D73*
X140500000Y-130800000D03*
X140500000Y-125800000D03*
X140500000Y-120800000D03*
X140500000Y-115800000D03*
X140500000Y-110800000D03*
X140500000Y-105800000D03*
X140500000Y-100800000D03*
%TD*%
D74*
%TO.C,J1*%
X152000000Y-100800000D03*
D73*
X152000000Y-105800000D03*
X152000000Y-110800000D03*
X152000000Y-115800000D03*
X152000000Y-120800000D03*
X152000000Y-125800000D03*
X152000000Y-130800000D03*
X152000000Y-135800000D03*
%TD*%
M02*
